<?xml version="1.0" encoding="UTF-8"?>
<svg width="182px" height="196px" viewBox="0 0 182 196" version="1.1" xmlns="http://www.w3.org/2000/svg" xmlns:xlink="http://www.w3.org/1999/xlink">
    <title>5ADA7FFC-8B5D-49C2-88FB-115F719B8852</title>
    <g id="💻-Web-Pages" stroke="none" stroke-width="1" fill="none" fill-rule="evenodd">
        
        <g id="bg" transform="translate(74.089125, 63.161384) rotate(-20.000000) translate(-74.089125, -63.161384) translate(11.089125, 19.661384)" fill-rule="nonzero">
            <path d="M119.195802,60.9917444 L20.3230003,73.0728387 C19.560191,73.1850165 18.8646884,72.6465629 18.7637283,71.8837535 L13.8166856,35.224035 C13.7157255,34.4612257 14.2429614,33.7657231 15.0057707,33.664763 L113.878572,21.5836688 C114.641381,21.4827088 115.336884,22.0099446 115.437844,22.7727539 L120.384887,59.4324725 C120.485847,60.1952818 119.958611,60.9020022 119.195802,60.9917444 Z" id="Path-Copy" fill="#DBE3E8" transform="translate(67.100786, 47.329459) rotate(15.000000) translate(-67.100786, -47.329459) "></path>
            <path d="M114.009812,52.7814318 L11.7610858,65.452155 C10.9982765,65.5643328 10.3027738,65.0258792 10.2018138,64.2630699 L5.25477102,27.6033514 C5.15381097,26.840542 5.68104682,26.1450394 6.44385613,26.0440794 L108.692582,13.3733561 C109.455392,13.2723961 110.150894,13.7996319 110.251854,14.5624413 L115.198897,51.2221598 C115.299857,51.9849691 114.772621,52.6916895 114.009812,52.7814318 Z" id="Path-Copy" stroke="#C1C9CC" stroke-width="0.25" fill="#FFFFFF" transform="translate(60.226834, 39.413961) rotate(15.000000) translate(-60.226834, -39.413961) "></path>
            <path d="M74.4013329,41.8693375 L46.5059551,45.2385011 C45.7419931,45.328379 45.02297,44.7891117 44.9106227,44.0251497 C44.8207448,43.2387182 45.3600121,42.5421647 46.1239741,42.4298173 L74.0193519,39.0606537 C74.7833139,38.9707758 75.502337,39.5100431 75.6146843,40.2740051 C75.7270317,41.0379671 75.1652949,41.7569902 74.4013329,41.8693375 Z" id="Path" fill="#DEE4EC" transform="translate(60.264927, 42.149577) rotate(15.000000) translate(-60.264927, -42.149577) "></path>
            <path d="M92.1977951,34.1402521 L48.0391417,39.8334345 C47.2751797,39.9233124 46.5561566,39.3840451 46.4438093,38.6200831 C46.3539314,37.8336516 46.8931987,37.137098 47.6571607,37.0247507 L91.8158141,31.3315683 C92.5797761,31.2416904 93.2987991,31.7809577 93.4111465,32.5449197 C93.5234938,33.3088817 92.9617571,34.0279047 92.1977951,34.1402521 Z" id="Path-Copy-2" fill="#DEE4EC" transform="translate(69.929751, 35.582501) rotate(15.000000) translate(-69.929751, -35.582501) "></path>
        </g>
        <g id="picto" transform="translate(28.929624, 59.493904)">
            <path d="M8.46826954,16.9365391 C13.1427543,16.9365391 16.9365391,13.1427543 16.9365391,8.46826954 C16.9365391,3.79378475 13.1427543,-6.89215655e-15 8.46826954,-6.89215655e-15 C3.79378475,-6.89215655e-15 -5.11168278e-13,3.79378475 -5.11168278e-13,8.46826954 C0.0338730782,13.1427543 3.79378475,16.9365391 8.46826954,16.9365391 Z" id="Path" fill="#FF7C00" fill-rule="nonzero"></path>
            <g id="icon/person" transform="translate(8.437217, 8.303059) rotate(-7.000000) translate(-8.437217, -8.303059) translate(5.203935, 3.776463)" stroke="#FFFFFF" stroke-linecap="round" stroke-linejoin="round">
                <circle id="Ellipse_736" cx="3.08852653" cy="1.79521346" r="1.79521346"></circle>
                <path d="M4.7590341e-12,7.65172592 C-0.000498114205,7.51973568 0.0290211055,7.38935913 0.0863309614,7.27045893 C0.266173884,6.91077308 0.773330925,6.72013958 1.19416336,6.63381498 C1.49766733,6.56904707 1.80536347,6.5257773 2.11495913,6.50432808 C2.68815394,6.45397777 3.26465951,6.45397777 3.83785432,6.50432808 C4.14742404,6.52602431 4.45510293,6.56929166 4.75865009,6.63381498 C5.17948252,6.72013958 5.68663957,6.89278879 5.86648249,7.27045893 C5.98173451,7.51283252 5.98173451,7.79421618 5.86648249,8.03658977 C5.68663957,8.41425991 5.17948252,8.58690912 4.75865009,8.66963686 C4.45550094,8.73708701 4.14769584,8.78157446 3.83785432,8.80272062 C3.37132067,8.84227027 2.90260901,8.84948122 2.43507953,8.82430177 C2.32717377,8.82430177 2.22286488,8.82430177 2.11495913,8.80272062 C1.80627747,8.78183502 1.4996482,8.73734371 1.19776022,8.66963686 C0.773330925,8.58690912 0.269770742,8.41425991 0.0863309614,8.03658977 C0.0293138917,7.91631068 -0.000176024188,7.7848348 4.7590341e-12,7.65172592 Z" id="Path_33945"></path>
            </g>
        </g>
    </g>
    <g id="card" transform="translate(90.500000, 112.000000) rotate(17.000000) translate(-90.500000, -112.000000) translate(16.000000, 49.000000)" fill-rule="nonzero">
        <g id="bg" transform="translate(74.089125, 63.161384) rotate(-20.000000) translate(-74.089125, -63.161384) translate(11.089125, 19.661384)">
            <path d="M119.195802,60.9917444 L20.3230003,73.0728387 C19.560191,73.1850165 18.8646884,72.6465629 18.7637283,71.8837535 L13.8166856,35.224035 C13.7157255,34.4612257 14.2429614,33.7657231 15.0057707,33.664763 L113.878572,21.5836688 C114.641381,21.4827088 115.336884,22.0099446 115.437844,22.7727539 L120.384887,59.4324725 C120.485847,60.1952818 119.958611,60.9020022 119.195802,60.9917444 Z" id="Path-Copy" fill="#DBE3E8" transform="translate(67.100786, 47.329459) rotate(15.000000) translate(-67.100786, -47.329459) "></path>
            <path d="M114.009812,52.7814318 L11.7610858,65.452155 C10.9982765,65.5643328 10.3027738,65.0258792 10.2018138,64.2630699 L5.25477102,27.6033514 C5.15381097,26.840542 5.68104682,26.1450394 6.44385613,26.0440794 L108.692582,13.3733561 C109.455392,13.2723961 110.150894,13.7996319 110.251854,14.5624413 L115.198897,51.2221598 C115.299857,51.9849691 114.772621,52.6916895 114.009812,52.7814318 Z" id="Path-Copy" stroke="#C1C9CC" stroke-width="0.25" fill="#FFFFFF" transform="translate(60.226834, 39.413961) rotate(15.000000) translate(-60.226834, -39.413961) "></path>
            <path d="M74.4013329,41.8693375 L46.5059551,45.2385011 C45.7419931,45.328379 45.02297,44.7891117 44.9106227,44.0251497 C44.8207448,43.2387182 45.3600121,42.5421647 46.1239741,42.4298173 L74.0193519,39.0606537 C74.7833139,38.9707758 75.502337,39.5100431 75.6146843,40.2740051 C75.7270317,41.0379671 75.1652949,41.7569902 74.4013329,41.8693375 Z" id="Path" fill="#DEE4EC" transform="translate(60.264927, 42.149577) rotate(15.000000) translate(-60.264927, -42.149577) "></path>
            <path d="M92.1977951,34.1402521 L48.0391417,39.8334345 C47.2751797,39.9233124 46.5561566,39.3840451 46.4438093,38.6200831 C46.3539314,37.8336516 46.8931987,37.137098 47.6571607,37.0247507 L91.8158141,31.3315683 C92.5797761,31.2416904 93.2987991,31.7809577 93.4111465,32.5449197 C93.5234938,33.3088817 92.9617571,34.0279047 92.1977951,34.1402521 Z" id="Path-Copy-2" fill="#DEE4EC" transform="translate(69.929751, 35.582501) rotate(15.000000) translate(-69.929751, -35.582501) "></path>
        </g>
        <g id="picto" transform="translate(28.929624, 59.493904)" fill="#893AE3">
            <path d="M8.46826954,16.9365391 C13.1427543,16.9365391 16.9365391,13.1427543 16.9365391,8.46826954 C16.9365391,3.79378475 13.1427543,-6.89215655e-15 8.46826954,-6.89215655e-15 C3.79378475,-6.89215655e-15 -5.11168278e-13,3.79378475 -5.11168278e-13,8.46826954 C0.0338730782,13.1427543 3.79378475,16.9365391 8.46826954,16.9365391 Z" id="Path"></path>
        </g>
    </g>
    <g id="card" transform="translate(131.000000, 87.509201) rotate(26.000000) translate(-131.000000, -87.509201) translate(108.000000, 74.009201)">
        <path d="M2.82142857,-3.73542467e-13 L40.2794118,-3.73542467e-13 C41.3839813,-3.73745373e-13 42.2794118,0.8954305 42.2794118,2 L42.2794118,19.7920168 C42.2794118,20.8965863 41.3839813,21.7920168 40.2794118,21.7920168 L2.82142857,21.7920168 C1.71685907,21.7920168 0.821428571,20.8965863 0.821428571,19.7920168 L0.821428571,2 C0.821428571,0.8954305 1.71685907,-3.73339561e-13 2.82142857,-3.73542467e-13 Z" id="Rectangle" stroke="#FFCB00" fill="#FFCB00"></path>
        <polygon id="Rectangle" fill="#FFF1B8" points="0.341183469 4.28123349 42.6928598 4.18964032 42.6928598 8.97325376 0.341183469 9.06484693"></polygon>
        <rect id="Rectangle" fill="#FFFFFF" x="2.41596639" y="11.6932773" width="14.3508403" height="8.37132353" rx="1"></rect>
    </g>
                    
</svg>
