<?xml version="1.0" encoding="UTF-8"?>
<svg width="177px" height="140px" viewBox="0 0 177 140" version="1.1" xmlns="http://www.w3.org/2000/svg" xmlns:xlink="http://www.w3.org/1999/xlink">
    <title>2BF2703B-23CA-44CF-A08F-723C8BBB2D4F</title>
    <g id="💻-Web-Pages" stroke="none" stroke-width="1" fill="none" fill-rule="evenodd">
        <g id="Accueil---aide" transform="translate(-742.000000, -220.000000)">
            <g id="Group-4" transform="translate(742.218811, 220.488974)">
                <g id="visuel-3" transform="translate(78.808522, 71.723167) rotate(9.000000) translate(-78.808522, -71.723167) translate(8.308522, 15.223167)">
                    <path d="M126.909881,102.376873 L11.870818,95.5686999 C10.058342,95.4087755 8.72563901,93.809532 8.88556336,91.9704019 L16.2369733,13.7151926 C16.3968976,11.9027166 17.9961412,10.5700136 19.8352712,10.729938 L130.783448,17.0867796 C132.595924,17.246704 133.928627,18.8459475 133.768703,20.6850776 L130.508179,99.3916187 C130.348254,101.177441 128.749011,102.536798 126.909881,102.376873 Z" id="Path" fill="#DBE3E8" fill-rule="nonzero" transform="translate(71.327133, 56.553295) rotate(-10.000000) translate(-71.327133, -56.553295) "></path>
                    <path d="M131.419165,84.9563547 L13.572315,98.6528485 C11.8172579,98.9109452 10.2170587,97.6720813 9.98477177,95.9170242 L0.365318196,22.6997129 C0.133031224,20.9446558 1.34608541,19.3444566 3.10114254,19.1121697 L120.947993,5.41567579 C122.70305,5.18338882 124.303249,6.39644301 124.535536,8.15150014 L134.15499,81.3688114 C134.387276,83.1238685 133.174222,84.7498774 131.419165,84.9563547 Z" id="Path" stroke="#C1C9CC" stroke-width="0.25" fill="#FFFFFF" fill-rule="nonzero"></path>
                    <path d="M42.2815092,45.8088804 L116.556085,47.212284 C117.103416,47.2226257 117.540699,47.6711296 117.537173,48.2185468 L117.449971,61.7562145 C117.446414,62.3084878 116.995824,62.7533099 116.443551,62.7497525 C116.4394,62.7497258 116.43525,62.7496732 116.431101,62.7495948 L42.1565247,61.3461912 C41.6091939,61.3358495 41.1719108,60.8873455 41.1754369,60.3399284 L41.2626385,46.8022607 C41.2661959,46.2499874 41.7167857,45.8051653 42.269059,45.8087227 C42.2732094,45.8087494 42.2773595,45.808802 42.2815092,45.8088804 Z" id="Rectangle" fill="#DEE4EC" transform="translate(79.356305, 54.279238) rotate(-7.000000) translate(-79.356305, -54.279238) "></path>
                    <g id="icon/person" transform="translate(27.034439, 65.029214) rotate(-7.000000) translate(-27.034439, -65.029214) translate(19.034439, 57.029214)">
                        <circle id="Oval" fill="#893AE3" cx="8" cy="8" r="8"></circle>
                        <g id="Group-3" transform="translate(5.000000, 4.000000)" stroke="#FFFFFF" stroke-linecap="round" stroke-linejoin="round">
                            <circle id="Ellipse_736" cx="2.80359664" cy="1.79521346" r="1.79521346"></circle>
                            <path d="M-1.77635684e-14,6.3749418 C-0.00049811421,6.24295156 0.0290211055,6.11257501 0.0863309614,5.9936748 C0.266173884,5.63398896 0.773330925,5.44335546 1.19416336,5.35703086 C1.49766733,5.29226295 1.80536347,5.24899318 2.11495913,5.22754395 C2.68815394,5.17719365 3.26465951,5.17719365 3.83785432,5.22754395 C4.14742404,5.24924019 4.45510293,5.29250754 4.75865009,5.35703086 C5.17948252,5.44335546 5.68663957,5.61600467 5.86648249,5.9936748 C5.98173451,6.2360484 5.98173451,6.51743206 5.86648249,6.75980565 C5.68663957,7.13747579 5.17948252,7.310125 4.75865009,7.39285274 C4.45550094,7.46030289 4.14769584,7.50479034 3.83785432,7.5259365 C3.37132067,7.56548615 2.90260901,7.57269709 2.43507953,7.54751765 C2.32717377,7.54751765 2.22286488,7.54751765 2.11495913,7.5259365 C1.80627747,7.5050509 1.4996482,7.46055959 1.19776022,7.39285274 C0.773330925,7.310125 0.269770742,7.13747579 0.0863309614,6.75980565 C0.0293138916,6.63952656 -0.000176024193,6.50805068 -1.77635684e-14,6.3749418 Z" id="Path_33945"></path>
                        </g>
                    </g>
                </g>
                <path d="M110.536316,51.8947203 L53.119046,58.1118716 C52.355084,58.2017495 51.636061,57.6624822 51.5237136,56.8985202 C51.4338357,56.1120888 51.973103,55.4155352 52.737065,55.3031878 L110.154335,49.0860365 C110.918297,48.9961586 111.637321,49.5354259 111.749668,50.2993879 C111.862015,51.0633499 111.300278,51.782373 110.536316,51.8947203 Z" id="Path" fill="#DEE4EC" fill-rule="nonzero" transform="translate(81.638964, 53.598954) rotate(9.000000) translate(-81.638964, -53.598954) "></path>
                <path d="M103.689501,44.7079016 L52.7041103,50.1783566 C51.9401483,50.2682345 51.2211253,49.7289672 51.1087779,48.9650052 C51.0189,48.1785737 51.5581673,47.4820201 52.3221293,47.3696728 L103.30752,41.8992178 C104.071482,41.8093399 104.790505,42.3486072 104.902852,43.1125692 C105.0152,43.8765312 104.453463,44.5955542 103.689501,44.7079016 Z" id="Path-Copy-2" fill="#DEE4EC" fill-rule="nonzero" transform="translate(78.008088, 46.038787) rotate(9.000000) translate(-78.008088, -46.038787) "></path>
                <path d="M95.1760549,92.8995954 L50.1475595,99.1167467 C49.5484356,99.2066246 48.9845542,98.6673573 48.8964478,97.9033953 C48.8259626,97.1169639 49.2488736,96.4204103 49.8479975,96.3080629 L94.876493,90.0909116 C95.4756169,90.0010337 96.0394982,90.540301 96.1276046,91.304263 C96.2157111,92.068225 95.7751788,92.7872481 95.1760549,92.8995954 Z" id="Path" fill="#DEE4EC" fill-rule="nonzero" transform="translate(72.513809, 94.603829) rotate(11.000000) translate(-72.513809, -94.603829) "></path>
                <path d="M88.6269548,85.5906664 L49.9572911,91.0611214 C49.3778672,91.1509993 48.8325271,90.611732 48.7473177,89.84777 C48.6791502,89.0613385 49.0881553,88.364785 49.6675792,88.2524376 L88.3372429,82.7819826 C88.9166667,82.6921047 89.4620069,83.231372 89.5472163,83.995334 C89.6324257,84.759296 89.2063787,85.4783191 88.6269548,85.5906664 Z" id="Path-Copy-2" fill="#DEE4EC" fill-rule="nonzero" transform="translate(69.148991, 86.921552) rotate(11.000000) translate(-69.148991, -86.921552) "></path>
                <g id="circle" transform="translate(140.281189, 36.011026) rotate(26.000000) translate(-140.281189, -36.011026) translate(113.781189, 9.511026)">
                    <path d="M26.1986672,45.9216231 L45.8252455,27.0545475 C46.2233976,26.671803 46.2358878,26.0387612 45.8531433,25.6406091 C45.848586,25.6358683 45.843982,25.6311726 45.839332,25.6265226 L27.9240338,7.7112244 C27.5389462,7.32613679 26.916516,7.31999693 26.5239068,7.69741307 L6.8973285,26.5644887 C6.49917642,26.9472333 6.48668614,27.580275 6.86943066,27.9784271 C6.873988,27.9831679 6.878592,27.9878636 6.88324198,27.9925136 L24.7985402,45.9078118 C25.1836278,46.2928994 25.806058,46.2990393 26.1986672,45.9216231 Z" id="Oval" fill="#FF7C00" transform="translate(26.361287, 26.809518) rotate(22.000000) translate(-26.361287, -26.809518) "></path>
                    <path d="M33.6009537,21.1331153 L33.6009537,21.1331153 C33.338089,21.1436299 33.0962535,21.2487757 32.9175055,21.4380383 L24.5899521,29.7655917 L21.635353,27.2105469 C21.2357987,26.8320217 20.6049234,26.8530509 20.2263983,27.2526052 C19.8478731,27.6521596 19.8689023,28.2830348 20.2684566,28.66156 C20.2894858,28.6825892 20.310515,28.7036183 20.3420587,28.7246475 L23.980106,31.8895384 C24.3796604,32.2260052 24.9684773,32.204976 25.3364878,31.8369654 L34.3264602,22.8469931 C34.7154999,22.4579533 34.7260145,21.8270781 34.3369748,21.4380383 C34.1477122,21.2382612 33.8743329,21.1331153 33.6009537,21.1331153 Z" id="Path" stroke="#FFFFFF" fill="#FFFFFF" fill-rule="nonzero" transform="translate(27.289359, 26.630633) rotate(-28.000000) translate(-27.289359, -26.630633) "></path>
                </g>
                <circle id="Oval" fill="#FB4064" transform="translate(21.785454, 29.266729) rotate(2.000000) translate(-21.785454, -29.266729) " cx="21.7854536" cy="29.2667294" r="2"></circle>
                <circle id="Oval-Copy" fill="#FFCB00" transform="translate(28.781189, 29.511026) rotate(2.000000) translate(-28.781189, -29.511026) " cx="28.7811894" cy="29.5110259" r="2"></circle>
                <circle id="Oval-Copy-2" fill="#31E1A9" transform="translate(35.776925, 29.755322) rotate(2.000000) translate(-35.776925, -29.755322) " cx="35.7769252" cy="29.7553224" r="2"></circle>
            </g>
        </g>
    </g>
</svg>