<?xml version="1.0" encoding="UTF-8"?>
<svg width="166px" height="181px" viewBox="0 0 166 181" version="1.1" xmlns="http://www.w3.org/2000/svg" xmlns:xlink="http://www.w3.org/1999/xlink">
    <title>75C86CB1-FA8D-439E-A8DF-8C9E1692A4E1</title>
    <g id="💻-Web-Pages" stroke="none" stroke-width="1" fill="none" fill-rule="evenodd">
        <g id="Mon-espace---renvoi" transform="translate(-490.000000, -312.000000)">
            <g id="pop-up" transform="translate(397.426617, 108.000000)">
                <g id="contenus" transform="translate(95.573383, 126.000000)">
                    <g id="visuel-2" transform="translate(0.563885, 80.884670)">
                        <g id="card" transform="translate(82.525494, 74.315436) rotate(32.000000) translate(-82.525494, -74.315436) translate(23.025494, 24.000000)" fill-rule="nonzero">
                            <g id="bg" transform="translate(59.171852, 50.444327) rotate(-20.000000) translate(-59.171852, -50.444327) translate(8.856415, 15.702716)">
                                <path d="M95.1966468,48.7115274 L16.2311211,58.3601866 C15.6218975,58.4497783 15.066429,58.0197381 14.9857965,57.4105146 L11.0348026,28.1319474 C10.95417,27.5227239 11.375251,26.9672554 11.9844746,26.8866228 L90.9500003,17.2379637 C91.5592239,17.1573312 92.1146924,17.5784122 92.1953249,18.1876357 L96.1463188,47.4662028 C96.2269514,48.0754264 95.8058704,48.6398541 95.1966468,48.7115274 Z" id="Path-Copy" fill="#DBE3E8" transform="translate(53.590561, 37.800038) rotate(15.000000) translate(-53.590561, -37.800038) "></path>
                                <path d="M91.0548164,42.1542978 L9.39308193,52.2738687 C8.78385838,52.3634604 8.22838985,51.9334203 8.14775732,51.3241967 L4.19676344,22.0456296 C4.11613091,21.4364061 4.53721189,20.8809375 5.14643544,20.800305 L86.8081699,10.6807341 C87.4173934,10.6001016 87.9728619,11.0211825 88.0534945,11.6304061 L92.0044884,40.9089732 C92.0851209,41.5181968 91.6640399,42.0826245 91.0548164,42.1542978 Z" id="Path-Copy" stroke="#DCE1E3" stroke-width="0.5" fill="#FFFFFF" transform="translate(48.100626, 31.478264) rotate(15.000000) translate(-48.100626, -31.478264) "></path>
                                <path d="M59.4211988,33.4392696 L37.14234,36.1300781 C36.5321958,36.2018597 35.9579425,35.7711697 35.8682154,35.1610256 C35.7964338,34.532936 36.2271237,33.9766281 36.8372679,33.8869011 L59.1161267,31.1960926 C59.7262709,31.1243109 60.3005242,31.5550009 60.3902512,32.165145 C60.4799783,32.7752892 60.0313429,33.3495425 59.4211988,33.4392696 Z" id="Path" fill="#DEE4EC" transform="translate(48.131049, 33.663085) rotate(15.000000) translate(-48.131049, -33.663085) "></path>
                                <path d="M73.6344806,27.2663758 L38.3668313,31.8132799 C37.7566871,31.8850615 37.1824338,31.4543716 37.0927067,30.8442274 C37.0209251,30.2161379 37.4516151,29.65983 38.0617592,29.5701029 L73.3294086,25.0231988 C73.9395527,24.9514172 74.513806,25.3821071 74.6035331,25.9922513 C74.6932602,26.6023954 74.2446248,27.1766487 73.6344806,27.2663758 Z" id="Path-Copy-2" fill="#DEE4EC" transform="translate(55.849936, 28.418239) rotate(15.000000) translate(-55.849936, -28.418239) "></path>
                            </g>
                            <g id="picto" transform="translate(19.111579, 43.521977)" fill="#FFCB00">
                                <path d="M12.3351767,18.0899152 L17.6841342,12.7409577 C18.0717659,12.3533261 18.0750558,11.7258731 17.6915103,11.334198 L10.7244253,4.21943835 C10.3380177,3.82484037 9.70488752,3.81820081 9.31028954,4.20460847 C9.30779206,4.20705411 9.30530742,4.20951284 9.30283572,4.21198453 L3.95387822,9.56094204 C3.56624656,9.94857369 3.56295663,10.5760266 3.94650216,10.9677018 L10.9135871,18.0824614 C11.2999947,18.4770594 11.9331249,18.4836989 12.3277229,18.0972913 C12.3302204,18.0948456 12.332705,18.0923869 12.3351767,18.0899152 Z" id="Path" transform="translate(10.819006, 11.150950) rotate(33.000000) translate(-10.819006, -11.150950) "></path>
                            </g>
                        </g>
                        <g id="card" transform="translate(71.500000, 112.765904) rotate(16.000000) translate(-71.500000, -112.765904) translate(12.000000, 62.450468)" fill-rule="nonzero">
                            <g id="bg" transform="translate(59.171852, 50.444327) rotate(-20.000000) translate(-59.171852, -50.444327) translate(8.856415, 15.702716)">
                                <path d="M95.1966468,48.7115274 L16.2311211,58.3601866 C15.6218975,58.4497783 15.066429,58.0197381 14.9857965,57.4105146 L11.0348026,28.1319474 C10.95417,27.5227239 11.375251,26.9672554 11.9844746,26.8866228 L90.9500003,17.2379637 C91.5592239,17.1573312 92.1146924,17.5784122 92.1953249,18.1876357 L96.1463188,47.4662028 C96.2269514,48.0754264 95.8058704,48.6398541 95.1966468,48.7115274 Z" id="Path-Copy" fill="#DBE3E8" transform="translate(53.590561, 37.800038) rotate(15.000000) translate(-53.590561, -37.800038) "></path>
                                <path d="M91.0548164,42.1542978 L9.39308193,52.2738687 C8.78385838,52.3634604 8.22838985,51.9334203 8.14775732,51.3241967 L4.19676344,22.0456296 C4.11613091,21.4364061 4.53721189,20.8809375 5.14643544,20.800305 L86.8081699,10.6807341 C87.4173934,10.6001016 87.9728619,11.0211825 88.0534945,11.6304061 L92.0044884,40.9089732 C92.0851209,41.5181968 91.6640399,42.0826245 91.0548164,42.1542978 Z" id="Path-Copy" stroke="#DCE1E3" stroke-width="0.5" fill="#FFFFFF" transform="translate(48.100626, 31.478264) rotate(15.000000) translate(-48.100626, -31.478264) "></path>
                                <path d="M59.4211988,33.4392696 L37.14234,36.1300781 C36.5321958,36.2018597 35.9579425,35.7711697 35.8682154,35.1610256 C35.7964338,34.532936 36.2271237,33.9766281 36.8372679,33.8869011 L59.1161267,31.1960926 C59.7262709,31.1243109 60.3005242,31.5550009 60.3902512,32.165145 C60.4799783,32.7752892 60.0313429,33.3495425 59.4211988,33.4392696 Z" id="Path" fill="#DEE4EC" transform="translate(48.131049, 33.663085) rotate(15.000000) translate(-48.131049, -33.663085) "></path>
                                <path d="M73.6344806,27.2663758 L38.3668313,31.8132799 C37.7566871,31.8850615 37.1824338,31.4543716 37.0927067,30.8442274 C37.0209251,30.2161379 37.4516151,29.65983 38.0617592,29.5701029 L73.3294086,25.0231988 C73.9395527,24.9514172 74.513806,25.3821071 74.6035331,25.9922513 C74.6932602,26.6023954 74.2446248,27.1766487 73.6344806,27.2663758 Z" id="Path-Copy-2" fill="#DEE4EC" transform="translate(55.849936, 28.418239) rotate(15.000000) translate(-55.849936, -28.418239) "></path>
                            </g>
                            <g id="picto" transform="translate(19.111579, 43.521977)" fill="#FFCB00">
                                <path d="M12.3351767,18.0899152 L17.6841342,12.7409577 C18.0717659,12.3533261 18.0750558,11.7258731 17.6915103,11.334198 L10.7244253,4.21943835 C10.3380177,3.82484037 9.70488752,3.81820081 9.31028954,4.20460847 C9.30779206,4.20705411 9.30530742,4.20951284 9.30283572,4.21198453 L3.95387822,9.56094204 C3.56624656,9.94857369 3.56295663,10.5760266 3.94650216,10.9677018 L10.9135871,18.0824614 C11.2999947,18.4770594 11.9331249,18.4836989 12.3277229,18.0972913 C12.3302204,18.0948456 12.332705,18.0923869 12.3351767,18.0899152 Z" id="Path" transform="translate(10.819006, 11.150950) rotate(33.000000) translate(-10.819006, -11.150950) "></path>
                            </g>
                        </g>
                        <g id="circle" transform="translate(97.436115, 90.115330)">
                            <circle id="Oval" fill="#893AE3" cx="14.9093462" cy="15.3169138" r="14.8690669"></circle>
                            <path d="M12.1718162,20.5459858 C12.1856264,20.7945691 12.3513486,21.0017219 12.5723116,21.0845831 C12.6413625,21.1122034 12.7104135,21.1260136 12.7794644,21.1260136 C12.9451866,21.1260136 13.1109089,21.0569627 13.2352006,20.9188608 L14.450497,19.5792727 L16.7706084,21.1950646 C16.8810899,21.2641155 17.0053816,21.305546 17.1434835,21.305546 C17.4473076,21.305546 17.7097011,21.0845831 17.7787521,20.7945691 L19.9745718,10.4231187 C20.0021922,10.298827 19.9607616,10.1607252 19.8502801,10.077864 C19.7536088,9.99500292 19.6155069,9.98119273 19.4912153,10.0226233 L7.31063036,15.3533555 C7.06204699,15.463837 6.91013493,15.7124203 6.92394512,15.9886241 C6.93775531,16.2648278 7.11728774,16.4857908 7.37968129,16.5686519 L12.0337143,17.977291 L12.1718162,20.5459858 Z M12.8623255,20.3250228 L12.7656542,18.4054068 L13.8980895,19.1925874 L12.8623255,20.3250228 Z M17.1296733,20.5874163 L12.9037561,17.6734669 L19.0354791,11.555554 L17.1296733,20.5874163 Z M18.3035392,11.3069707 L12.2684875,17.3282122 L7.6835054,15.9471935 L18.3035392,11.3069707 Z" id="Shape" stroke="#FFFFFF" stroke-width="0.5" fill="#FFFFFF" fill-rule="nonzero"></path>
                        </g>
                    </g>
                </g>
            </g>
        </g>
    </g>
</svg>