<?xml version="1.0" encoding="UTF-8"?>
<svg width="98px" height="98px" viewBox="0 0 98 98" version="1.1" xmlns="http://www.w3.org/2000/svg" xmlns:xlink="http://www.w3.org/1999/xlink">
    <title>F0FE38C7-D639-4409-940F-E602A242A63B</title>
    <g id="💻-Web-Pages" stroke="none" stroke-width="1" fill="none" fill-rule="evenodd">
        <g id="Mon-espace---renvoi" transform="translate(-522.000000, -511.000000)">
            <g id="pop-up" transform="translate(397.426617, 108.000000)">
                <g id="contenus" transform="translate(95.573383, 126.000000)">
                    <g id="visuel-3" transform="translate(30.000000, 277.000000)">
                        <path d="M81.3681363,81.466517 L32.7574784,77.0813322 C31.420292,76.9633452 30.4370667,75.7834749 30.5550538,74.426624 L36.3757474,9.8483875 C36.4937345,8.51120112 37.6736048,7.52797584 39.0304557,7.64596287 L87.6411136,12.0311476 C88.9783,12.1491347 89.9615253,13.329005 89.8435382,14.6858559 L84.0228446,79.2640924 C83.9048575,80.5816142 82.7249872,81.584504 81.3681363,81.466517 Z" id="Path" fill="#DEE4EC" fill-rule="nonzero" opacity="0.449474516" transform="translate(60.199296, 44.556158) rotate(-10.000000) translate(-60.199296, -44.556158) "></path>
                        <path d="M84.4393872,69.4953979 L36.0647033,76.0240137 C34.7275169,76.2206588 33.5083176,75.2767625 33.331337,73.9395761 L24.6592901,9.67597174 C24.4823095,8.33878536 25.4065413,7.11958601 26.7437277,6.94260546 L75.1184115,0.413989592 C76.4555979,0.237009041 77.6747972,1.16124081 77.8517778,2.49842719 L86.5238248,66.7620316 C86.7008053,68.099218 85.7765735,69.3380818 84.4393872,69.4953979 Z" id="Path" stroke="#C1C9CC" stroke-width="0.25" fill="#FFFFFF" fill-rule="nonzero"></path>
                        <path d="M64.0716563,45.15051 L41.3265746,48.2083836 C40.1583982,48.3458161 39.058938,47.521221 38.8871474,46.3530446 C38.7497148,45.15051 39.57431,44.085408 40.7424864,43.9136174 L63.4875681,40.8557438 C64.6557445,40.7183113 65.7552047,41.5429064 65.9269953,42.7110828 C66.098786,43.8792592 65.2398327,44.9787194 64.0716563,45.15051 Z" id="Path" fill="#DEE4EC" fill-rule="nonzero"></path>
                        <path d="M69.7691991,36.2729647 L40.2356655,40.0948709 C39.0674891,40.2323034 37.9680289,39.4077083 37.7962383,38.2395319 C37.6588058,37.0369974 38.4834009,35.9718953 39.6515773,35.8001047 L69.1851109,31.9781985 C70.3532873,31.840766 71.4527475,32.6653611 71.6245381,33.8335375 C71.7963288,35.0017139 70.9373755,36.1011741 69.7691991,36.2729647 Z" id="Path-Copy-2" fill="#DEE4EC" fill-rule="nonzero"></path>
                        <path d="M58.246154,28.4115544 L38.2356655,31.1316308 C37.0674891,31.2690633 35.9680289,30.4444682 35.7962383,29.2762918 C35.6588058,28.0737573 36.4834009,27.0086552 37.6515773,26.8368646 L57.6620658,24.1167882 C58.8302422,23.9793557 59.9297024,24.8039508 60.101493,25.9721272 C60.2732837,27.1403036 59.4143304,28.2397637 58.246154,28.4115544 Z" id="Path-Copy-3" fill="#DEE4EC" fill-rule="nonzero"></path>
                        <path d="M66.7691991,18.3097246 L37.2356655,22.1316308 C36.0674891,22.2690633 34.9680289,21.4444682 34.7962383,20.2762918 C34.6588058,19.0737573 35.4834009,18.0086552 36.6515773,17.8368646 L66.1851109,14.0149584 C67.3532873,13.8775259 68.4527475,14.702121 68.6245381,15.8702974 C68.7963288,17.0384738 67.9373755,18.137934 66.7691991,18.3097246 Z" id="Path-Copy-4" fill="#DEE4EC" fill-rule="nonzero"></path>
                        <path d="M0.412954618,51.4630462 C0.471948135,51.4630462 0.530941652,51.4827107 0.570270663,51.5220397 C0.845573742,51.7383493 1.23886385,51.9546588 1.750141,52.1709684 C1.86812803,52.2299619 1.92712155,52.3676135 1.88779254,52.4856005 C1.82879902,52.6035875 1.69114748,52.662581 1.57316045,52.623252 C1.02255429,52.387278 0.589935169,52.1513039 0.275303079,51.9153298 C0.176980551,51.8366718 0.157316045,51.6793558 0.235974068,51.5810332 C0.294967584,51.4827107 0.353961101,51.4630462 0.412954618,51.4630462 Z" id="Path" fill="#110580" fill-rule="nonzero"></path>
                        <g id="circle" transform="translate(19.000000, 46.000000)">
                            <path d="M26.0892569,44.5346681 L44.0048303,26.6190947 C44.3953546,26.2285704 44.3953546,25.5954054 44.0048303,25.2048811 L26.0892569,7.28930768 C25.6987326,6.89878339 25.0655676,6.89878339 24.6750433,7.28930768 L6.75946989,25.2048811 C6.36894559,25.5954054 6.36894559,26.2285704 6.75946989,26.6190947 L24.6750433,44.5346681 C25.0655676,44.9251924 25.6987326,44.9251924 26.0892569,44.5346681 Z" id="Oval" fill="#FF7C00" transform="translate(25.382150, 25.911988) rotate(22.000000) translate(-25.382150, -25.911988) "></path>
                            <path d="M32.5053333,21.4473333 C32.2086667,21.1586667 31.8153333,21 31.4,21 L20.6,21 C20.1846667,21 19.7913333,21.1586667 19.4973333,21.4446667 C19.4966667,21.4453333 19.4966667,21.446 19.496,21.4466667 C19.4953333,21.4473333 19.4953333,21.4473333 19.4946667,21.4473333 C19.494,21.448 19.494,21.4486667 19.4933333,21.4493333 C19.18,21.748 19,22.1673333 19,22.6 L19,29.4 C19,30.282 19.718,31 20.6,31 L31.4,31 C32.282,31 33,30.282 33,29.4 L33,22.6 C33,22.1653333 32.8193333,21.744 32.5053333,21.4473333 Z M20.6,21.6666667 L31.4,21.6666667 C31.5133333,21.6666667 31.6233333,21.6906667 31.7266667,21.73 L26.6213333,26.3206667 C26.28,26.6333333 25.7226667,26.6353333 25.3766667,26.3186667 L20.2733333,21.73 C20.3766667,21.6906667 20.4866667,21.6666667 20.6,21.6666667 Z M32.3333333,29.4 C32.3333333,29.9146667 31.9146667,30.3333333 31.4,30.3333333 L20.6,30.3333333 C20.0853333,30.3333333 19.6666667,29.9146667 19.6666667,29.4 L19.6666667,22.6 C19.6666667,22.452 19.7066667,22.308 19.7746667,22.1773333 L24.9286667,26.8126667 C25.222,27.082 25.6033333,27.23 26,27.23 C26.3966667,27.23 26.778,27.082 27.0693333,26.8146667 L32.226,22.1773333 C32.2933333,22.3073333 32.3333333,22.4513333 32.3333333,22.6 L32.3333333,29.4 Z" id="Shape" stroke="#FFFFFF" stroke-width="0.25" fill="#FFFFFF" fill-rule="nonzero" transform="translate(26.000000, 26.000000) rotate(-9.000000) translate(-26.000000, -26.000000) "></path>
                        </g>
                    </g>
                </g>
            </g>
        </g>
    </g>
</svg>