<?xml version="1.0" encoding="UTF-8"?>
<svg width="103px" height="78px" viewBox="0 0 103 78" version="1.1" xmlns="http://www.w3.org/2000/svg" xmlns:xlink="http://www.w3.org/1999/xlink">
    <title>93D2E6F2-3ACC-40CA-A102-FADFAC8E489F</title>
    <g id="💻-Web-Pages" stroke="none" stroke-width="1" fill="none" fill-rule="evenodd">
        <g id="Mon-espace---renvoi" transform="translate(-527.000000, -234.000000)">
            <g id="pop-up" transform="translate(397.426617, 108.000000)">
                <g id="contenus" transform="translate(95.573383, 126.000000)">
                    <g id="visuel-1" transform="translate(85.500000, 39.000000) rotate(-6.000000) translate(-85.500000, -39.000000) translate(39.000000, 5.000000)">
                        <path d="M86.4481798,3.70459427 L12.5273563,3.70459427 C10.3118022,3.70459427 8.55178262,5.46461388 8.55178262,7.68016797 L8.55178262,52.1776049 C8.55178262,54.3931589 10.3118022,56.1531786 12.5273563,56.1531786 L39.0104749,56.1531786 L59.9857674,56.1531786 L86.4688859,56.1531786 C88.68444,56.1531786 90.4444596,54.3931589 90.4444596,52.1776049 L90.4444596,7.68016797 C90.4237535,5.46461388 88.6637339,3.70459427 86.4481798,3.70459427 Z" id="Path" fill="#F0F2F6" fill-rule="nonzero" transform="translate(49.498121, 29.928886) rotate(4.000000) translate(-49.498121, -29.928886) "></path>
                        <path d="M80.75,2 L4.12121212,2 C1.82449495,2 -1.45519152e-11,3.82449495 -1.45519152e-11,6.12121212 L-1.45519152e-11,52.2487374 C-1.45519152e-11,54.5454545 1.82449495,56.3699495 4.12121212,56.3699495 L31.5744949,56.3699495 L28.9343434,64.7411616 L21.3143939,64.7411616 C20.7348485,64.7411616 20.1982323,65.2133838 20.1982323,65.8573232 L20.1982323,66.5012626 C20.1982323,67.0808081 20.6704545,67.6174242 21.3143939,67.6174242 L27.9684343,67.6174242 L56.8383838,67.6174242 L63.4924242,67.6174242 C64.0719697,67.6174242 64.6085859,67.145202 64.6085859,66.5012626 L64.6085859,65.8573232 C64.6085859,65.2777778 64.1363636,64.7411616 63.4924242,64.7411616 L55.9583333,64.7411616 L53.3181818,56.3699495 L80.7714646,56.3699495 C83.0681818,56.3699495 84.8926768,54.5454545 84.8926768,52.2487374 L84.8926768,6.12121212 C84.8712121,3.82449495 83.0467172,2 80.75,2 Z" id="Path" fill="#CAD2D9" fill-rule="nonzero"></path>
                        <path d="M4.42171717,4.42550505 L80.4709596,4.42550505 C81.415404,4.42550505 82.1881313,5.19823232 82.1881313,6.14267677 L82.1881313,46.2171717 C82.1881313,47.1616162 81.415404,47.9343434 80.4709596,47.9343434 L4.42171717,47.9343434 C3.47727273,47.9343434 2.70454545,47.1616162 2.70454545,46.2171717 L2.70454545,6.05681818 C2.76893939,5.11237374 3.54166667,4.42550505 4.42171717,4.42550505 Z" id="Path" fill="#FFFFFF" fill-rule="nonzero"></path>
                        <rect id="Rectangle" fill="#FFCB00" x="22.8278153" y="12.8861606" width="38" height="28" rx="1"></rect>
                        <rect id="Rectangle" fill="#DEE4EC" x="67.9397053" y="7.08889907" width="11" height="2.5" rx="1"></rect>
                        <rect id="Rectangle" fill="#DEE4EC" x="6.64669893" y="6.67979418" width="8" height="2.5" rx="1"></rect>
                        <rect id="Rectangle" fill="#893AE3" x="35.0129084" y="34.9355121" width="14" height="2.5" rx="1"></rect>
                        <path d="M42.0492424,54.3737374 C43.2941919,54.3737374 44.2815657,53.364899 44.2815657,52.1414141 C44.2815657,50.9179293 43.2727273,49.9090909 42.0492424,49.9090909 C40.8042929,49.9090909 39.8169192,50.9179293 39.8169192,52.1414141 C39.8169192,53.364899 40.8257576,54.3737374 42.0492424,54.3737374 Z" id="Path" fill="#E8EAF7" fill-rule="nonzero"></path>
                    </g>
                </g>
            </g>
        </g>
    </g>
</svg>