<?xml version="1.0" encoding="UTF-8"?>
<svg width="1442px" height="1219px" viewBox="0 0 1442 1219" version="1.1" xmlns="http://www.w3.org/2000/svg" xmlns:xlink="http://www.w3.org/1999/xlink">
    <title>65982A7A-8589-4C7C-8715-BB75B1DE1B93@2x</title>
    <g id="💻-Web-Pages" stroke="none" stroke-width="1" fill="none" fill-rule="evenodd">
        <g id="Je-participe---infos-perso" transform="translate(0.000000, -70.000000)">
            <g id="BG" transform="translate(0.000000, 70.000000)">
                <polygon id="Rectangle" fill="#491683" points="0 -4.63896499e-14 1442 -3.38340467e-14 1442 1219 0 1219"></polygon>
                <circle id="Oval" fill="#EBF1F4" opacity="0.310128348" cx="1330.5" cy="129.5" r="2.5"></circle>
                <circle id="Oval-Copy" fill="#FFCB00" opacity="0.593470982" cx="1264.5" cy="190.5" r="7.5"></circle>
                <circle id="Oval-Copy-2" fill="#EBF1F4" opacity="0.188523065" cx="1398.5" cy="339.5" r="7.5"></circle>
                <g id="bg-" transform="translate(38.000000, 109.000000)">
                    <path d="M113.8,4.8 L112.2,4.8 L112.2,3.2 C112.2,2.5 111.7,2 111,2 C110.3,2 109.8,2.5 109.8,3.2 L109.8,4.8 L108.2,4.8 C107.5,4.8 107,5.3 107,6 C107,6.7 107.5,7.2 108.2,7.2 L109.8,7.2 L109.8,8.8 C109.8,9.5 110.3,10 111,10 C111.7,10 112.2,9.5 112.2,8.8 L112.2,7.2 L113.8,7.2 C114.5,7.2 115,6.7 115,6 C115.1,5.3 114.5,4.8 113.8,4.8 Z" id="Path" fill="#FFFFFF" fill-rule="nonzero" opacity="0.551757812"></path>
                    <g id="Group">
                        <polygon id="Rectangle" stroke="#FFCB00" stroke-width="1.00003076" stroke-linecap="round" transform="translate(68.345141, 322.781434) rotate(-79.473261) translate(-68.345141, -322.781434) " points="61.4121754 315.632169 75.1948459 315.71543 75.2781072 329.930699 61.4954366 329.847438"></polygon>
                        <g fill-rule="nonzero">
                            <path d="M335.202694,180.688925 C335.202694,183.557003 332.830976,186.042671 329.668687,186.042671 C326.70404,186.042671 324.13468,183.748208 324.13468,180.688925 C324.13468,177.820847 326.506397,175.335179 329.668687,175.335179 C332.633333,175.335179 335.202694,177.820847 335.202694,180.688925 Z" id="Path" fill="#FFCB00" opacity="0.320661272"></path>
                            <path d="M213.652189,208.987296 C213.652189,211.855375 211.280471,214.149837 208.315825,214.149837 C205.351178,214.149837 202.979461,211.855375 202.979461,208.987296 C202.979461,206.119218 205.351178,203.824756 208.315825,203.824756 C211.280471,203.824756 213.652189,206.119218 213.652189,208.987296 Z" id="Path" fill="#FFB100"></path>
                            <path d="M9.09158249,130.019544 C9.09158249,132.314007 7.31279461,134.034853 4.94107744,134.034853 C2.56936027,134.034853 0.790572391,132.314007 0.790572391,130.019544 C0.790572391,127.725081 2.56936027,126.004235 4.94107744,126.004235 C7.31279461,126.004235 9.09158249,127.916287 9.09158249,130.019544 Z" id="Path" fill="#FFB100"></path>
                            <path d="M105.30101,121.852443 C105.30101,126.910982 101.379365,130.704886 96.150505,130.704886 C90.921645,130.704886 87,126.910982 87,121.852443 C87,116.793904 90.921645,113 96.150505,113 C101.379365,113 105.30101,117.215449 105.30101,121.852443 Z" id="Path" fill="#FFFFFF" opacity="0.255905878"></path>
                            <path d="M203.30101,338.852443 C203.30101,343.910982 199.379365,347.704886 194.150505,347.704886 C188.921645,347.704886 185,343.910982 185,338.852443 C185,333.793904 188.921645,330 194.150505,330 C199.379365,330 203.30101,334.215449 203.30101,338.852443 Z" id="Path" fill="#FFFFFF" opacity="0.255905878"></path>
                            <path d="M289.942424,5.35374593 C289.942424,8.2218241 287.570707,10.7074919 284.408418,10.7074919 C281.246128,10.7074919 278.874411,8.41302932 278.874411,5.35374593 C278.874411,2.48566775 281.246128,0 284.408418,0 C287.570707,0 289.942424,2.29446254 289.942424,5.35374593 Z" id="Path" fill="#FFDA1A"></path>
                            <path d="M164.043771,21.6061889 C164.043771,22.9446254 162.857912,24.0918567 161.474411,24.0918567 C160.090909,24.0918567 158.905051,22.9446254 158.905051,21.6061889 C158.905051,20.2677524 160.090909,19.1205212 161.474411,19.1205212 C162.857912,19.1205212 164.043771,20.2677524 164.043771,21.6061889 Z" id="Path" fill="#893AE3" opacity="0.276390439"></path>
                            <ellipse id="Oval" fill="#893AE3" opacity="0.276390439" cx="250.216162" cy="131.166775" rx="4.94107744" ry="4.78013029"></ellipse>
                            <path d="M516.8367,78.585342 C516.8367,81.262215 514.662626,83.1742671 512.093266,83.1742671 C509.326263,83.1742671 507.349832,81.0710098 507.349832,78.585342 C507.349832,75.9084691 509.523906,73.9964169 512.093266,73.9964169 C514.662626,73.9964169 516.8367,76.0996743 516.8367,78.585342 Z" id="Path" fill="#893AE3" opacity="0.276390439"></path>
                            <path d="M585.616498,142.830293 C585.616498,146.845603 582.256566,150.096091 578.106061,150.096091 C573.955556,150.096091 570.595623,146.845603 570.595623,142.830293 C570.595623,138.814984 573.955556,135.564495 578.106061,135.564495 C582.256566,135.564495 585.616498,138.814984 585.616498,142.830293 Z" id="Path" fill="#893AE3" opacity="0.276390439"></path>
                        </g>
                    </g>
                    <g id="Group-2" transform="translate(115.000000, 106.000000)" stroke-linecap="round">
                        <path d="M0.0341673317,140.6 C-0.365832668,137.5 2.83416733,136.4 5.03416733,137.7 C7.23416733,139.1 9.53416733,137.6 9.23416733,134.9 C8.83416733,132.1 12.1341673,131 14.2341673,132.1 C17.0341673,133.5 19.9341673,132.4 19.6341673,129" id="Path" stroke="#FFB100"></path>
                        <path d="M1151.03417,134.6 C1150.63417,131.5 1153.83417,130.4 1156.03417,131.7 C1158.23417,133.1 1160.53417,131.6 1160.23417,128.9 C1159.83417,126.1 1163.13417,125 1165.23417,126.1 C1168.03417,127.5 1170.93417,126.4 1170.63417,123" id="Path" stroke="#FFB100" transform="translate(1160.827807, 128.800000) rotate(60.000000) translate(-1160.827807, -128.800000) "></path>
                        <rect id="Rectangle" stroke="#CED7DB" stroke-width="1.0000057" transform="translate(1172.200013, 31.200013) rotate(96.834354) translate(-1172.200013, -31.200013) " x="1170" y="29" width="4.4000251" height="4.4000251"></rect>
                        <rect id="Rectangle" stroke="#CED7DB" stroke-width="1.0000057" transform="translate(1221.200012, 18.200013) rotate(-135.000000) translate(-1221.200012, -18.200013) " x="1209" y="6" width="24.400025" height="24.400025"></rect>
                    </g>
                </g>
            </g>
        </g>
    </g>
</svg>