<?xml version="1.0" encoding="UTF-8"?>
<svg width="552px" height="409px" viewBox="0 0 552 409" version="1.1" xmlns="http://www.w3.org/2000/svg" xmlns:xlink="http://www.w3.org/1999/xlink">
    <title>715F0086-5F8D-4C4B-BE0C-4F4D615D34F7</title>
    <g id="💻-Web-Pages" stroke="none" stroke-width="1" fill="none" fill-rule="evenodd">
        <g id="Accueil" transform="translate(-707.000000, -112.000000)">
            <g id="visuel" transform="translate(707.000000, 112.000000)">
                <g id="confettis" transform="translate(81.000000, 0.000000)">
                    <g id="Group" transform="translate(52.000000, 36.000000)">
                        <rect id="Rectangle" stroke="#CED7DB" stroke-width="1.00003076" stroke-linecap="round" transform="translate(34.580080, 168.814140) rotate(-79.473261) translate(-34.580080, -168.814140) " x="30.9799692" y="165.214029" width="7.2002215" height="7.2002215"></rect>
                        <g fill-rule="nonzero">
                            <path d="M169.6,94.5 C169.6,96 168.4,97.3 166.8,97.3 C165.3,97.3 164,96.1 164,94.5 C164,93 165.2,91.7 166.8,91.7 C168.3,91.7 169.6,93 169.6,94.5 Z" id="Path" fill="#FFCB00" opacity="0.320661272"></path>
                            <path d="M108.1,109.3 C108.1,110.8 106.9,112 105.4,112 C103.9,112 102.7,110.8 102.7,109.3 C102.7,107.8 103.9,106.6 105.4,106.6 C106.9,106.6 108.1,107.8 108.1,109.3 Z" id="Path" fill="#FFB100"></path>
                            <path d="M4.6,68 C4.6,69.2 3.7,70.1 2.5,70.1 C1.3,70.1 0.4,69.2 0.4,68 C0.4,66.8 1.3,65.9 2.5,65.9 C3.7,65.9 4.6,66.9 4.6,68 Z" id="Path" fill="#FFB100"></path>
                            <path d="M146.7,2.8 C146.7,4.3 145.5,5.6 143.9,5.6 C142.3,5.6 141.1,4.4 141.1,2.8 C141.1,1.3 142.3,0 143.9,0 C145.5,0 146.7,1.2 146.7,2.8 Z" id="Path" fill="#FFDA1A"></path>
                            <path d="M83,11.3 C83,12 82.4,12.6 81.7,12.6 C81,12.6 80.4,12 80.4,11.3 C80.4,10.6 81,10 81.7,10 C82.4,10 83,10.6 83,11.3 Z" id="Path" fill="#893AE3" opacity="0.276390439"></path>
                            <circle id="Oval" fill="#893AE3" opacity="0.276390439" cx="126.6" cy="68.6" r="2.5"></circle>
                            <path d="M261.5,41.1 C261.5,42.5 260.4,43.5 259.1,43.5 C257.7,43.5 256.7,42.4 256.7,41.1 C256.7,39.7 257.8,38.7 259.1,38.7 C260.4,38.7 261.5,39.8 261.5,41.1 Z" id="Path" fill="#893AE3" opacity="0.276390439"></path>
                            <path d="M296.3,74.7 C296.3,76.8 294.6,78.5 292.5,78.5 C290.4,78.5 288.7,76.8 288.7,74.7 C288.7,72.6 290.4,70.9 292.5,70.9 C294.6,70.9 296.3,72.6 296.3,74.7 Z" id="Path" fill="#893AE3" opacity="0.276390439"></path>
                        </g>
                    </g>
                    <g id="Group" transform="translate(52.530183, 102.495145) rotate(55.000000) translate(-52.530183, -102.495145) translate(6.030183, 71.495145)" stroke="#CED7DB" stroke-linecap="round">
                        <path d="M20.0563445,0.734430447 C20.4563445,3.83443045 17.2563445,4.93443045 15.0563445,3.63443045 C12.8563445,2.23443045 10.5563445,3.73443045 10.8563445,6.43443045 C11.2563445,9.13443045 7.95634449,10.2344304 5.85634449,9.23443045 C3.15634449,7.83443045 0.156344494,8.93443045 0.456344494,12.2344304" id="Path"></path>
                        <path d="M75.4830884,61.4557587 C74.3830884,57.9557587 77.6830884,55.3557587 80.2830884,55.9557587 C82.8830884,56.5557587 84.8830884,53.9557587 84.1830884,51.3557587 C83.5830884,48.7557587 86.3830884,45.9557587 88.8830884,46.5557587 C91.3830884,47.0557587 92.6830884,44.4557587 92.3830884,42.9557587" id="Path"></path>
                    </g>
                    <g id="Group" transform="translate(218.000000, 0.000000)">
                        <path d="M170.034167,82.6 C169.634167,79.5 172.834167,78.4 175.034167,79.7 C177.234167,81.1 179.534167,79.6 179.234167,76.9 C178.834167,74.1 182.134167,73 184.234167,74.1 C187.034167,75.5 189.934167,74.4 189.634167,71" id="Path" stroke="#CED7DB" stroke-linecap="round"></path>
                        <rect id="Rectangle" stroke="#CED7DB" stroke-width="0.999973165" stroke-linecap="round" transform="translate(34.142820, 19.214400) rotate(61.130718) translate(-34.142820, -19.214400) " x="32.242871" y="17.314451" width="3.79989803" height="3.79989803"></rect>
                        <rect id="Rectangle" stroke="#CED7DB" stroke-width="1.00000084" stroke-linecap="round" transform="translate(3.200002, 216.200002) rotate(48.417373) translate(-3.200002, -216.200002) " x="1" y="214" width="4.40000372" height="4.40000372"></rect>
                        <rect id="Rectangle" stroke="#CED7DB" stroke-width="1.00003076" stroke-linecap="round" transform="translate(121.556120, 78.783360) rotate(100.526739) translate(-121.556120, -78.783360) " x="119.656062" y="76.8833015" width="3.80011691" height="3.80011691"></rect>
                        <rect id="Rectangle" stroke="#CED7DB" stroke-width="1.0000057" stroke-linecap="round" transform="translate(55.733640, 129.365830) rotate(96.834354) translate(-55.733640, -129.365830) " x="53.5336274" y="127.165817" width="4.4000251" height="4.4000251"></rect>
                        <path d="M92,2.8 L90.4,2.8 L90.4,1.2 C90.4,0.5 89.9,0 89.2,0 C88.5,0 88,0.5 88,1.2 L88,2.8 L86.4,2.8 C85.7,2.8 85.2,3.3 85.2,4 C85.2,4.7 85.7,5.2 86.4,5.2 L88,5.2 L88,6.8 C88,7.5 88.5,8 89.2,8 C89.9,8 90.4,7.5 90.4,6.8 L90.4,5.2 L92,5.2 C92.7,5.2 93.2,4.7 93.2,4 C93.2,3.3 92.7,2.8 92,2.8 Z" id="Path" fill="#FFB100" fill-rule="nonzero" opacity="0.326148624"></path>
                        <path d="M23.8,71.8 L22.2,71.8 L22.2,70.2 C22.2,69.5 21.7,69 21,69 C20.3,69 19.8,69.5 19.8,70.2 L19.8,71.8 L18.2,71.8 C17.5,71.8 17,72.3 17,73 C17,73.7 17.5,74.2 18.2,74.2 L19.8,74.2 L19.8,75.8 C19.8,76.5 20.3,77 21,77 C21.7,77 22.2,76.5 22.2,75.8 L22.2,74.2 L23.8,74.2 C24.5,74.2 25,73.7 25,73 C25.1,72.3 24.5,71.8 23.8,71.8 Z" id="Path" fill="#893AE3" fill-rule="nonzero" opacity="0.551757812"></path>
                    </g>
                </g>
                <g id="perso" transform="translate(0.000000, 144.000000)" fill-rule="nonzero">
                    <g id="visuel" transform="translate(304.000000, 3.000000)">
                        <path d="M151,44.175206 C151,44.175206 128.441012,41.1752462 123.908494,60.0025802 C119.375976,78.8299142 118.728474,104.924392 100.598403,110.14846 C82.4683317,115.372528 72.4320424,79.1143932 72.4320424,79.1143932 C72.4320424,79.1143932 68.223276,68.9507362 63.6907582,67.567134 C59.1582405,66.1835319 55.9207278,76.2049494 63.6907582,82.3471085 C63.6907582,82.3471085 70.2305338,128.574938 105.00142,126.95858 C139.772306,125.342222 151,77.7178601 151,44.175206 Z" id="Path" fill="#F4A28C"></path>
                        <path d="M151,44.175206 C151,44.175206 128.441012,41.1752462 123.908494,60.0025802 C119.375976,78.8299142 118.728474,104.924392 100.598403,110.14846 C82.4683317,115.372528 72.4320424,79.1143932 72.4320424,79.1143932 C72.4320424,79.1143932 68.223276,68.9507362 63.6907582,67.567134 C59.1582405,66.1835319 55.9207278,76.2049494 63.6907582,82.3471085 C63.6907582,82.3471085 70.2305338,128.574938 105.00142,126.95858 C139.772306,125.342222 151,77.7178601 151,44.175206 Z" id="Path" fill="#000000" opacity="0.08"></path>
                        <ellipse id="Oval" fill="#EBF1F4" opacity="0.45" cx="124" cy="240.5" rx="124" ry="21.5"></ellipse>
                        <path d="M150.542816,11 C150.542816,11 135.769923,28.8477732 147.572809,35.2851075 C164.891423,44.7300488 167,12.0816832 167,12.0816832 L150.542816,11 Z" id="Path" fill="#491683"></path>
                        <path d="M151.739988,12.4635418 C151.739988,12.4635418 148.564147,19.0040665 148.021607,23.9126725 C147.914519,24.8733664 148.208443,25.8356569 148.83763,26.5842889 C149.466817,27.3329208 150.378762,27.8054212 151.369473,27.8960961 C154.571195,28.4008879 157.780706,27.0386159 159.573729,24.4138129 L163.914045,19.2739113 C165.462488,16.9694092 165.345818,13.9671325 163.622926,11.7825048 C160.738204,7.5934851 153.460235,8.39016984 151.739988,12.4635418 Z" id="Path" fill="#F4A28C"></path>
                        <polygon id="Path" fill="#F4A28C" points="162.314342 20 164 44 151 44 154.894892 26.9858542"></polygon>
                        <path d="M150,17 L147.475285,18.7995169 C147.179326,18.9988804 147,19.3451966 147,19.7173913 C147,20.089586 147.179326,20.4359022 147.475285,20.6352657 L149.601959,22 L150,17 Z" id="Path" fill="#F4A28C"></path>
                        <path d="M155.042603,28.0921053 C156.496332,27.8021957 157.851818,27.079069 158.96421,26 C158.96421,26 159.746162,31.2631579 154,33 L155.042603,28.0921053 Z" id="Path" fill="#CE8172" opacity="0.31"></path>
                        <path d="M158,20.7279442 C158,20.7279442 159.080705,18.3423012 161.091638,19.1772763 C163.102571,20.0122513 161.556752,23.5191464 158.588232,22.9346639 L158,20.7279442 Z" id="Path" fill="#F4A28C"></path>
                        <polygon id="Path" fill="#F4A28C" points="127.079044 180 116 231 122.433824 231 144 180"></polygon>
                        <polygon id="Path" fill="#F4A28C" points="163 173.399864 174.628431 230 181 230 180.037298 173"></polygon>
                        <path d="M115.517804,230 C115.517804,230 111.963737,234.560886 107.412486,234.340616 C102.861234,234.120346 102.209229,240.624791 109.50913,239.951024 C111.782952,239.752387 114.036523,239.362329 116.246516,238.784888 C118.287516,238.30053 120.419039,238.376566 122.421388,239.005158 C123.220728,239.184525 124.047032,238.850567 124.505248,238.162949 C126.576323,235.68815 121.475341,230 121.475341,230 L115.517804,230 Z" id="Path" fill="#24285B"></path>
                        <path d="M181.480172,230 C181.480172,230 185.03348,234.560886 189.58376,234.340616 C194.13404,234.120346 194.798688,240.624791 187.487564,239.951024 C185.214227,239.752387 182.961137,239.362329 180.751615,238.784888 C178.711052,238.30053 176.579983,238.376566 174.578061,239.005158 C173.778893,239.184525 172.952765,238.850567 172.494647,238.162949 C170.424014,235.68815 175.523906,230 175.523906,230 L181.480172,230 Z" id="Path" fill="#24285B"></path>
                        <path d="M152.460038,2.10668893 C150.299225,2.92646376 148.68659,4.7538327 148.152352,6.98797491 C147.711204,8.98427921 148.074503,11.4056031 151.318242,13.0412847 C157.805719,16.3126479 160.621285,14.1489116 160.076336,18.3218315 C159.531388,22.4947515 152.498962,36.9196599 166.991988,35.9537062 C181.485013,34.9877526 176.723204,26.3456869 174.128213,21.2196926 C171.533222,16.0936984 171.429423,11.7018289 170.456301,8.34031008 C169.561029,5.31365518 162.165304,-1.7056083 152.460038,2.10668893 Z" id="Path" fill="#24285B"></path>
                        <path d="M150.439105,44 L163.572317,44 C163.572317,44 164.478949,44 166.033176,44 C194.786363,44.9196891 211.494296,76.8626943 196.224022,101.253886 C187.727585,114.816062 177.586258,133.093264 176.91276,144 L125.662147,141.409326 C125.662147,141.409326 129.547713,108.158031 120.05398,89.1554404 C120.105788,89.1813472 102.698453,59.2720207 150.439105,44 Z" id="Path" fill="#893AE3"></path>
                        <path d="M153.154361,135 C153.076081,134.405286 151.393062,120.132159 161.321573,114 L162,115.123348 C152.789055,120.819383 154.432935,134.696035 154.445981,134.84141 L153.154361,135 Z" id="Path" fill="#FFFFFF"></path>
                        <path d="M178.157423,55 C178.157423,55 156.819127,63.1961156 166.723899,97.7285647 C171.862561,115.713406 126,113.75825 126,113.75825 C126,113.75825 126.835033,127.560872 126.359706,133.840676 L149.714927,135.135481 L178.157423,137 L179.544861,132.960208 L188.190661,116.555029 L189,95.1907469 L182.255506,83.291489 L178.157423,55 Z" id="Path" fill="#000000" opacity="0.08"></path>
                        <path d="M170.180127,135 C170.10196,134.43038 168.252002,120.329114 178.400718,115 L179,115.962025 C169.815347,121.417722 171.443831,134.708861 171.469887,134.848101 L170.180127,135 Z" id="Path" fill="#FFFFFF"></path>
                        <polygon id="Path" fill="#24285B" points="126.38127 133 178.960623 135.770088 193 189 117 186.294937"></polygon>
                        <path d="M174.402991,64.6234499 C174.209741,59.8256525 177.076848,55.4401296 181.523728,53.7315818 C185.970608,52.023034 191.001965,53.3738664 194.019588,57.086504 C201.379412,66.0250843 205.275557,77.3547746 204.984829,88.9725851 C204.560617,120.106269 200.40848,153.678758 134,116.928039 L137.573666,107.082011 C137.573666,107.082011 167.049981,121.351616 179.364988,116.733453 C188.414846,113.32172 175.3414,85.9629957 174.402991,64.6234499 Z" id="Path" fill="#F4A28C"></path>
                        <path d="M137,106.321969 C137,106.321969 126.068582,101.097538 121.427167,106.321969 C116.785753,111.546401 124.166363,116.197419 133.474554,115.993538 L137,106.321969 Z" id="Path" fill="#F4A28C"></path>
                        <polygon id="Path" fill="#FFD200" points="148.501162 133 186.488763 136.656331 188 183 138 180.105943"></polygon>
                        <polygon id="Path" fill="#FF7C00" opacity="0.08" points="148.501162 133 186.488763 136.656331 188 183 138 180.105943"></polygon>
                        <polygon id="Path" fill="#FFB100" points="157.328165 133 192.095607 136.446034 198 183 148 180.10013"></polygon>
                        <polygon id="Rectangle" fill="#FFB100" transform="translate(69.543855, 64.405011) rotate(-17.990000) translate(-69.543855, -64.405011) " points="61.4828873 50.1654523 77.6082174 50.1635299 77.6048232 78.6445706 61.4794931 78.6464929"></polygon>
                        <path d="M166.428119,138 L165.350195,137.292162 C165.350195,137.174188 172.664682,125.494854 168.340152,116.424036 L168.340152,116.424036 C167.656833,115.369162 166.606229,114.619345 165.401524,114.326737 C164.228286,114.196888 163.057669,114.593883 162.193416,115.414711 L161,114.746197 C162.198363,113.485275 163.895099,112.852831 165.606843,113.029033 C167.197332,113.395413 168.581305,114.389719 169.456573,115.794846 C174.127579,125.586611 166.736098,137.501891 166.428119,138 Z" id="Path" fill="#FFFFFF"></path>
                        <path d="M181.422072,139 L180.342797,138.292193 C180.419888,138.174225 187.666448,126.495413 183.349349,117.425 L183.349349,117.425 C182.658366,116.371189 181.603001,115.622221 180.394191,115.327794 C179.055006,115.189505 177.725516,115.67046 176.770911,116.638548 L176,115.734128 C177.197211,114.478523 178.891772,113.850774 180.599767,114.030149 C182.196352,114.387033 183.585313,115.38363 184.454321,116.795838 C189.144027,126.560951 181.691891,138.488806 181.422072,139 Z" id="Path" fill="#FFFFFF"></path>
                        <polygon id="Path" fill="#893AE3" points="47 0 47 25.751073 63.5562149 25.751073 67.1670831 36 71.4437851 25.751073 88 25.751073 88 0"></polygon>
                        <path d="M65.5032128,19 L65.5032128,19 C65.1343088,18.9865301 64.7897757,18.8049879 64.5611416,18.5036013 L60.2652967,12.8080799 C59.8386576,12.2381294 59.9370729,11.4164069 60.4851134,10.9727112 C61.0331538,10.5290156 61.8232877,10.6313654 62.2499268,11.2013158 L65.5911395,15.6689037 L73.8185617,6.42021295 C74.0459313,6.16407765 74.3623082,6.01307684 74.6972949,6.00080997 C75.0322815,5.9885431 75.3580873,6.11602784 75.6022166,6.35489734 C76.107033,6.84624624 76.135104,7.66949574 75.6650214,8.19679763 L66.4327231,18.568917 C66.1952469,18.8425625 65.8576555,18.9991287 65.5032128,19 Z" id="Path" fill="#FFFFFF"></path>
                    </g>
                    <g id="visuel">
                        <g id="Group" transform="translate(187.000000, 93.500000) rotate(-9.000000) translate(-187.000000, -93.500000) translate(148.000000, 60.000000)">
                            <g transform="translate(0.000000, 0.687151)" id="Rectangle">
                                <polygon fill="#FF7C00" transform="translate(36.722062, 33.250169) rotate(9.102497) translate(-36.722062, -33.250169) " points="3.96447037 5.62354674 69.4796542 5.62354674 69.4796542 60.8767912 3.96447037 60.8767912"></polygon>
                                <polygon fill="#FFB100" transform="translate(39.980447, 12.855729) rotate(9.102497) translate(-39.980447, -12.855729) " points="2.74551204 5.88371082 77.2153818 5.88371082 77.2153818 19.8277473 2.74551204 19.8277473"></polygon>
                            </g>
                            <polygon id="Path" fill="#000000" opacity="0.1" points="71.2240223 25.6122905 41.5927374 20.8625698 38.4553073 20.2743017 38.4335196 20.3614525 9.28156425 15.6988827 38.0631285 22.6709497 43.4664804 24.0653631 70.4178771 30.5363128"></polygon>
                        </g>
                        <g id="Group-Copy" transform="translate(161.000000, 44.500000) rotate(-4.000000) translate(-161.000000, -44.500000) translate(137.000000, 19.000000)">
                            <g id="Group" transform="translate(11.932961, 0.000000)" fill="#FFB100">
                                <g transform="translate(12.335196, 2.681564)" id="Path">
                                    <path d="M15.4458101,6.77094972 C15.3385475,7.44134078 14.8156425,7.96424581 14.3061453,8.40670391 C10.9139665,11.2625698 4.15642458,13.5418994 0.844692737,10.203352 C1.31396648,10.2301676 2.46703911,10.5385475 3.43240223,10.5787709 C5.72513966,10.6726257 7.70949721,8.80893855 9.38547486,7.11955307 C10.4178771,6.08715084 11.4636872,2.64134078 12.9921788,2.52067039 C14.4402235,2.4 15.6603352,5.41675978 15.4458101,6.77094972 Z"></path>
                                    <path d="M2.6547486,5.61787709 C4.14301676,3.80782123 5.47039106,2.74860335 7.15977654,1.60893855 C8.83575419,0.469273743 10.9005587,-0.201117318 12.8178771,0.268156425 C13.0458101,0.321787709 13.273743,0.402234637 13.4614525,0.563128492 C13.6625698,0.737430168 13.7832402,1.01899441 13.8905028,1.27374302 C14.4804469,2.70837989 15.7810056,4.75977654 15.4994413,6.48938547 C12.2547486,5.36312849 8.47374302,5.63128492 5.25586592,6.97206704 C2.85586592,7.97765363 0.951955307,10.4446927 0.737430168,10.3910615 C-1.31396648,9.84134078 1.94413408,6.47597765 2.6547486,5.61787709 Z"></path>
                                </g>
                                <g id="Path">
                                    <path d="M0.0938547486,5.4972067 C-0.0134078212,6.18100559 0.308379888,6.82458101 0.65698324,7.40111732 C2.98994413,11.1821229 8.68826816,15.4592179 12.8849162,13.3139665 C12.4290503,13.1932961 11.2357542,13.126257 10.3106145,12.8581006 C8.11173184,12.227933 6.79776536,9.84134078 5.73854749,7.70949721 C5.08156425,6.39553073 5.16201117,2.80223464 3.75418994,2.2122905 C2.41340782,1.64916201 0.308379888,4.14301676 0.0938547486,5.4972067 Z"></path>
                                    <path d="M12.603352,8.39329609 C11.7586592,6.20782123 10.8201117,4.78659218 9.58659218,3.17765363 C8.35307263,1.56871508 6.59664804,0.294972067 4.62569832,0.134078212 C4.39776536,0.120670391 4.14301676,0.120670391 3.92849162,0.21452514 C3.67374302,0.321787709 3.48603352,0.536312849 3.31173184,0.750837989 C2.30614525,1.93072626 0.429050279,3.4726257 0.147486034,5.20223464 C3.57988827,5.13519553 7.09273743,6.58324022 9.72067039,8.86256983 C11.6916201,10.5653631 12.7240223,13.501676 12.9519553,13.5150838 C15.0569832,13.649162 13.0055866,9.42569832 12.603352,8.39329609 Z"></path>
                                </g>
                            </g>
                            <g id="Group" transform="translate(0.000000, 9.653631)">
                                <polygon id="Rectangle" fill="#FF7C00" transform="translate(22.598192, 20.461642) rotate(9.102497) translate(-22.598192, -20.461642) " points="2.43967407 3.46064415 42.7567103 3.46064415 42.7567103 37.4626408 2.43967407 37.4626408"></polygon>
                                <polygon id="Rectangle" fill="#FFB100" transform="translate(24.603352, 7.911218) rotate(9.102497) translate(-24.603352, -7.911218) " points="1.68954587 3.62074512 47.517158 3.62074512 47.517158 12.2016906 1.68954587 12.2016906"></polygon>
                            </g>
                            <polygon id="Path" fill="#000000" opacity="0.1" points="43.8301676 24.9921788 25.5955307 22.0692737 23.6648045 21.7072626 23.6513966 21.7608939 5.71173184 18.8916201 23.4234637 23.1821229 19.6826816 46.8335196 23.1284916 47.396648 26.7486034 24.0402235 43.3340782 28.0223464"></polygon>
                            <path d="M22.0290503,47.2357542 L17.1083799,46.4446927 L22.5519553,12.4558659 C22.6055866,12.1072626 22.9273743,11.8793296 23.249162,11.9329609 L26.9765363,12.522905 C27.3117318,12.5765363 27.5396648,12.898324 27.4726257,13.2469274 L22.0290503,47.2357542 Z" id="Path" fill="#FFB100"></path>
                        </g>
                        <g id="Group">
                            <path d="M181,126.8 L190.8,125.1 C190.8,125.1 193,130.6 183.1,132.4 L181,126.8 Z" id="Path" fill="#24285B"></path>
                            <path d="M84.8,110 C81,101.7 84.6,91.9 92.8,87.9 C96.7,86.1 100.8,84.9 104.5,85.8 C111.3,87.4 124.2,108.7 132,122.8 C136.1,130.1 144.4,134 152.6,132.3 L181.4,126.6 L184.4,134.5 L137.1,150.4 C132.6,151.9 127.7,151.6 123.5,149.5 C106.4,141.1 92.8,127.2 84.8,110 Z" id="Path" fill="#491683" opacity="0.794666109"></path>
                            <path d="M84.8,110 C81,101.7 84.6,91.9 92.8,87.9 C96.7,86.1 100.8,84.9 104.5,85.8 C111.3,87.4 124.2,108.7 132,122.8 C136.1,130.1 144.4,134 152.6,132.3 L181.4,126.6 L184.4,134.5 L137.1,150.4 C132.6,151.9 127.7,151.6 123.5,149.5 C106.4,141.1 92.8,127.2 84.8,110 Z" id="Path" fill="#000000" opacity="0.08"></path>
                            <ellipse id="Oval" fill="#EBF1F4" opacity="0.45" cx="123.1" cy="245.8" rx="123.1" ry="19.1"></ellipse>
                            <path d="M177.8,198.9 C177.8,198.9 179.1,202.3 182.2,202.5 C185.3,202.7 186.1,205.7 183.4,206.6 C180.7,207.5 173.4,203.9 173.4,203.9 L173.6,199.5 L177.8,198.9 Z" id="Path" fill="#F4A28C"></path>
                            <path d="M104.6,239.6 C104.6,239.6 103.6,243.1 106,245.1 C108.4,247.1 107.3,250 104.6,249.1 C101.9,248.2 98.1,241.1 98.1,241.1 L100.9,237.6 L104.6,239.6 Z" id="Path" fill="#F4A28C"></path>
                            <polygon id="Path" fill="#F4A28C" points="65.5 83.6 72.5 92.9 65.9 100.9 56.9 83.7"></polygon>
                            <path d="M50.8,74.5 C51.2,70.7 54.5,67.9 58.3,68.3 C59.3,68.4 60.2,68.7 61,69.1 C65.8,71.7 72,76.3 68.2,81.2 C62.5,88.6 52.6,81.5 52.6,81.5 C51.3,79.4 50.7,77 50.8,74.5 Z" id="Path" fill="#F4A28C"></path>
                            <path d="M58.3,79.2 C58.3,79.2 55.9,78.2 55.8,80.8 C55.7,83.4 59.4,83.3 60,81.9 C60.6,80.5 58.3,79.2 58.3,79.2 Z" id="Path" fill="#F4A28C"></path>
                            <path d="M51,67.7 C47.6,74 44,75.3 49,79.1 C54,82.9 51.9,89 58.9,87.5 C63.3,86.5 61.4,81.8 59.3,78.3 C58,76.1 57.9,73.4 59.2,71.2 C60.1,69.5 60.8,67.5 59.8,66.2 C58.8,64.9 52.5,64.8 51,67.7 Z" id="Path" fill="#24285B"></path>
                            <path d="M54.9,114.4 C55.7,107.1 59.6,100.6 65.6,96.4 C77,88.4 98.6,72.5 109.6,82.1 C124.7,95.2 130.6,164 130.6,164 L89,181.3 C89,181.3 51.6,146.6 54.9,114.4 Z" id="Path" fill="#893AE3"></path>
                            <path d="M68.9,94.1 C68.9,94.1 70,165 129.1,150.3 L130.6,163.9 L89,181.3 C89,181.3 66.2,162.7 56,129.2 C56,129.2 51,112.7 60.2,101.6 C62.5,98.5 65.5,96 68.9,94.1 Z" id="Path" fill="#491683" opacity="0.472632999"></path>
                            <path d="M49,79.2 L67.2,60.6 C67.4,60.4 67.4,60.1 67.2,59.9 C67,59.8 66.8,59.7 66.6,59.8 L61.2,62.6 C59.4,63.6 57.1,63.7 55.2,62.9 C53.7,62.1 51.9,61.9 50.2,62.4 C47,63.7 37.6,71.4 49,79.2 Z" id="Path" fill="#FFD200"></path>
                            <path d="M60,76.8 C60,76.8 56.4,73.6 55.2,76.9 C54,80.2 59,82.1 61.3,80.3 C63.6,78.5 60,76.8 60,76.8 Z" id="Path" fill="#F4A28C"></path>
                            <path d="M89,181.3 C89,181.3 99.8,192.6 112.8,188.2 C125.8,183.8 162.7,160.6 172.7,201 L180.1,199.7 C180.1,199.7 180.5,173.7 165.4,164.4 C150.3,155.1 130.6,163.9 130.6,163.9 L89,181.3 Z" id="Path" fill="#24285B"></path>
                            <path d="M92.6,183.3 C92.6,183.3 122.8,202.8 98.7,237.4 L105.3,240.1 C105.3,240.1 135.7,216.9 117,173.9 L92.6,183.3 Z" id="Path" fill="#24285B"></path>
                            <path d="M86.9,104.5 C83.1,96.2 86.7,86.4 94.9,82.4 C98.8,80.6 102.9,79.4 106.6,80.3 C113.4,81.9 126.2,103.2 134.1,117.3 C138.2,124.6 146.5,128.5 154.7,126.9 L183.5,121.2 L186.5,129.1 L139.2,145 C134.7,146.5 129.8,146.2 125.6,144.1 C108.4,135.7 94.8,121.7 86.9,104.5 Z" id="Path" fill="#AE71F4"></path>
                            <path d="M183.8,122.3 L193.6,120.6 C193.6,120.6 195.8,126.1 185.9,127.9 L183.8,122.3 Z" id="Path" fill="#24285B"></path>
                            <rect id="Rectangle" fill="#FFFFFF" opacity="0.22" transform="translate(154.776795, 9.056095) rotate(-17.068606) translate(-154.776795, -9.056095) " x="150.577032" y="1.60651571" width="8.39952564" height="14.8991586"></rect>
                        </g>
                    </g>
                </g>
            </g>
        </g>
    </g>
</svg>