<?xml version="1.0" encoding="UTF-8"?>
<svg width="357px" height="221px" viewBox="0 0 357 221" version="1.1" xmlns="http://www.w3.org/2000/svg" xmlns:xlink="http://www.w3.org/1999/xlink">
    <title>F54BBC63-5F23-414F-B164-1546BD6BEB5B</title>
    <g id="💻-Web-Pages" stroke="none" stroke-width="1" fill="none" fill-rule="evenodd">
        <g id="Je-participe---infos-perso" transform="translate(-756.000000, -867.000000)">
            <g id="image" transform="translate(756.000000, 867.000000)">
                <g id="confettis">
                    <g id="Group" transform="translate(0.000000, 46.000000)">
                        <rect id="Rectangle" stroke="#CED7DB" stroke-width="1.00003076" stroke-linecap="round" transform="translate(34.580080, 158.814140) rotate(-79.473261) translate(-34.580080, -158.814140) " x="30.9799692" y="155.214029" width="7.2002215" height="7.2002215"></rect>
                        <g fill-rule="nonzero">
                            <path d="M169.6,84.5 C169.6,86 168.4,87.3 166.8,87.3 C165.3,87.3 164,86.1 164,84.5 C164,83 165.2,81.7 166.8,81.7 C168.3,81.7 169.6,83 169.6,84.5 Z" id="Path" fill="#FFCB00" opacity="0.320661272"></path>
                            <path d="M108.1,99.3 C108.1,100.8 106.9,102 105.4,102 C103.9,102 102.7,100.8 102.7,99.3 C102.7,97.8 103.9,96.6 105.4,96.6 C106.9,96.6 108.1,97.8 108.1,99.3 Z" id="Path" fill="#FFB100"></path>
                            <path d="M4.6,58 C4.6,59.2 3.7,60.1 2.5,60.1 C1.3,60.1 0.4,59.2 0.4,58 C0.4,56.8 1.3,55.9 2.5,55.9 C3.7,55.9 4.6,56.9 4.6,58 Z" id="Path" fill="#FFB100"></path>
                            <path d="M83,1.3 C83,2 82.4,2.6 81.7,2.6 C81,2.6 80.4,2 80.4,1.3 C80.4,0.6 81,0 81.7,0 C82.4,0 83,0.6 83,1.3 Z" id="Path" fill="#893AE3" opacity="0.276390439"></path>
                            <circle id="Oval" fill="#893AE3" opacity="0.276390439" cx="126.6" cy="58.6" r="2.5"></circle>
                            <path d="M261.5,31.1 C261.5,32.5 260.4,33.5 259.1,33.5 C257.7,33.5 256.7,32.4 256.7,31.1 C256.7,29.7 257.8,28.7 259.1,28.7 C260.4,28.7 261.5,29.8 261.5,31.1 Z" id="Path" fill="#893AE3" opacity="0.276390439"></path>
                            <path d="M296.3,64.7 C296.3,66.8 294.6,68.5 292.5,68.5 C290.4,68.5 288.7,66.8 288.7,64.7 C288.7,62.6 290.4,60.9 292.5,60.9 C294.6,60.9 296.3,62.6 296.3,64.7 Z" id="Path" fill="#893AE3" opacity="0.276390439"></path>
                        </g>
                    </g>
                    <g id="Group" transform="translate(50.954346, 105.642165) rotate(55.000000) translate(-50.954346, -105.642165) translate(15.954346, 71.142165)" stroke="#CED7DB" stroke-linecap="round">
                        <path d="M19.6624511,0.321072153 C20.0624511,3.42107215 16.8624511,4.52107215 14.6624511,3.22107215 C12.4624511,1.82107215 10.1624511,3.32107215 10.4624511,6.02107215 C10.8624511,8.72107215 7.56245112,9.82107215 5.46245112,8.82107215 C2.76245112,7.42107215 -0.237548882,8.52107215 0.0624511178,11.8210722" id="Path"></path>
                        <path d="M49.2009303,64.8891849 C48.1009303,61.3891849 51.4009303,58.7891849 54.0009303,59.3891849 C56.6009303,59.9891849 58.6009303,57.3891849 57.9009303,54.7891849 C57.3009303,52.1891849 60.1009303,49.3891849 62.6009303,49.9891849 C65.1009303,50.4891849 66.4009303,47.8891849 66.1009303,46.3891849" id="Path" transform="translate(57.563450, 55.639185) rotate(-33.000000) translate(-57.563450, -55.639185) "></path>
                    </g>
                    <g id="Group" transform="translate(166.000000, 0.000000)">
                        <path d="M170.034167,82.6 C169.634167,79.5 172.834167,78.4 175.034167,79.7 C177.234167,81.1 179.534167,79.6 179.234167,76.9 C178.834167,74.1 182.134167,73 184.234167,74.1 C187.034167,75.5 189.934167,74.4 189.634167,71" id="Path" stroke="#CED7DB" stroke-linecap="round"></path>
                        <rect id="Rectangle" stroke="#CED7DB" stroke-width="0.999973165" stroke-linecap="round" transform="translate(34.142820, 19.214400) rotate(61.130718) translate(-34.142820, -19.214400) " x="32.242871" y="17.314451" width="3.79989803" height="3.79989803"></rect>
                        <rect id="Rectangle" stroke="#CED7DB" stroke-width="1.00000084" stroke-linecap="round" transform="translate(3.200002, 216.200002) rotate(48.417373) translate(-3.200002, -216.200002) " x="1" y="214" width="4.40000372" height="4.40000372"></rect>
                        <rect id="Rectangle" stroke="#CED7DB" stroke-width="1.00003076" stroke-linecap="round" transform="translate(141.556120, 38.783360) rotate(100.526739) translate(-141.556120, -38.783360) " x="139.656062" y="36.8833015" width="3.80011691" height="3.80011691"></rect>
                        <rect id="Rectangle" stroke="#CED7DB" stroke-width="1.0000057" stroke-linecap="round" transform="translate(55.733640, 129.365830) rotate(96.834354) translate(-55.733640, -129.365830) " x="53.5336274" y="127.165817" width="4.4000251" height="4.4000251"></rect>
                        <path d="M92,2.8 L90.4,2.8 L90.4,1.2 C90.4,0.5 89.9,0 89.2,0 C88.5,0 88,0.5 88,1.2 L88,2.8 L86.4,2.8 C85.7,2.8 85.2,3.3 85.2,4 C85.2,4.7 85.7,5.2 86.4,5.2 L88,5.2 L88,6.8 C88,7.5 88.5,8 89.2,8 C89.9,8 90.4,7.5 90.4,6.8 L90.4,5.2 L92,5.2 C92.7,5.2 93.2,4.7 93.2,4 C93.2,3.3 92.7,2.8 92,2.8 Z" id="Path" fill="#FFB100" fill-rule="nonzero" opacity="0.326148624"></path>
                        <path d="M23.8,71.8 L22.2,71.8 L22.2,70.2 C22.2,69.5 21.7,69 21,69 C20.3,69 19.8,69.5 19.8,70.2 L19.8,71.8 L18.2,71.8 C17.5,71.8 17,72.3 17,73 C17,73.7 17.5,74.2 18.2,74.2 L19.8,74.2 L19.8,75.8 C19.8,76.5 20.3,77 21,77 C21.7,77 22.2,76.5 22.2,75.8 L22.2,74.2 L23.8,74.2 C24.5,74.2 25,73.7 25,73 C25.1,72.3 24.5,71.8 23.8,71.8 Z" id="Path" fill="#893AE3" fill-rule="nonzero" opacity="0.551757812"></path>
                    </g>
                </g>
                <g id="Group-4" transform="translate(75.000000, 37.000000)">
                    <g id="visuel-3" transform="translate(109.457441, 83.355738) rotate(9.000000) translate(-109.457441, -83.355738) translate(9.457441, 21.355738)">
                        <path d="M196.092394,105.468761 L25.6590899,123.782121 C23.2751803,124.09782 21.1016156,122.582467 20.7860981,120.435717 L7.71990923,30.8777917 C7.40439178,28.7310415 9.05209402,26.7737105 11.4360036,26.4895818 L181.869308,8.17622211 C184.253217,7.89209341 186.426782,9.37587661 186.742299,11.5226268 L199.808488,101.080552 C200.124006,103.227302 198.476303,105.216203 196.092394,105.468761 Z" id="Path" fill="#DEE4EC" fill-rule="nonzero"></path>
                        <path d="M188.844553,97.8200821 L18.4112489,116.133442 C16.0273393,116.44914 13.8537746,114.933787 13.5382572,112.787037 L0.47206827,23.2291123 C0.156550819,21.0823621 1.80425306,19.1250311 4.18816269,18.8409024 L174.621467,0.527542712 C177.005376,0.243414015 179.178941,1.72719721 179.494458,3.87394736 L192.560647,93.4318722 C192.876165,95.5786224 191.228463,97.5675232 188.844553,97.8200821 Z" id="Path" stroke="#C1C9CC" stroke-width="0.25" fill="#FFFFFF" fill-rule="nonzero"></path>
                        <g id="icon/person" transform="translate(40.482075, 52.933838) rotate(-7.000000) translate(-40.482075, -52.933838) translate(25.391535, 37.843297)">
                            <circle id="Oval" fill="#893AE3" cx="15.0905408" cy="15.0905408" r="15.0905408"></circle>
                            <g id="Group-3" transform="translate(9.431588, 7.545270)" stroke="#FFFFFF" stroke-linecap="round" stroke-linejoin="round">
                                <circle id="Ellipse_736" cx="5.28847368" cy="3.38634276" r="3.38634276"></circle>
                                <path d="M-3.35077317e-14,12.0251649 C-0.000939601603,11.7761894 0.0547430221,11.5302578 0.162847612,11.3059743 C0.502088482,10.6274925 1.45874774,10.2678972 2.25257137,10.1050616 C2.82507625,9.98288876 3.40548889,9.90126823 3.98948463,9.86080818 C5.07071209,9.76583152 6.1581847,9.76583152 7.23941217,9.86080818 C7.82335897,9.90173417 8.40373908,9.98335013 8.97632542,10.1050616 C9.77014906,10.2678972 10.7268083,10.5935685 11.0660492,11.3059743 C11.2834511,11.7631679 11.2834511,12.2939468 11.0660492,12.7511404 C10.7268083,13.4635462 9.77014906,13.7892175 8.97632542,13.9452683 C8.40448985,14.0725007 7.82387167,14.1564181 7.23941217,14.1963065 C6.35938153,14.2709097 5.47524247,14.2845118 4.59333338,14.2370154 C4.38978886,14.2370154 4.19302915,14.2370154 3.98948463,14.1963065 C3.40721299,14.1569096 2.82881281,14.0729849 2.25935619,13.9452683 C1.45874774,13.7892175 0.5088733,13.4635462 0.162847612,12.7511404 C0.0552953098,12.5242558 -0.000332037534,12.2762506 -3.35077317e-14,12.0251649 Z" id="Path_33945"></path>
                            </g>
                        </g>
                    </g>
                    <g id="circle" transform="translate(195.000000, 40.573529) rotate(35.000000) translate(-195.000000, -40.573529) translate(166.000000, 12.000000)">
                        <path d="M28.6818843,49.608201 L50.3608119,28.7681972 C50.7589639,28.3854527 50.7714542,27.7524109 50.3887097,27.3542588 C50.3841524,27.349518 50.3795484,27.3448223 50.3748984,27.3401723 L30.5766419,7.54191582 C30.1915543,7.15682821 29.5691241,7.15068835 29.1765149,7.5281045 L7.49758734,28.3681083 C7.09943526,28.7508528 7.08694497,29.3838946 7.4696895,29.7820467 C7.47424684,29.7867875 7.47885084,29.7914832 7.48350082,29.7961332 L27.2817573,49.5943897 C27.6668449,49.9794773 28.2892751,49.9856171 28.6818843,49.608201 Z" id="Oval" fill="#FF7C00" transform="translate(28.929200, 28.568153) rotate(22.000000) translate(-28.929200, -28.568153) "></path>
                        <path d="M36.8740986,22.3387987 L36.8740986,22.3387987 C36.5856276,22.3503375 36.3202344,22.4657259 36.1240742,22.673425 L26.985315,31.8121841 L23.7429017,29.0082467 C23.3044259,28.5928485 22.6120956,28.6159262 22.1966975,29.054402 C21.7812993,29.4928778 21.804377,30.1852081 22.2428528,30.6006062 C22.2659305,30.6236839 22.2890082,30.6467616 22.3236247,30.6698392 L26.3160624,34.1430293 C26.7545382,34.5122721 27.4007131,34.4891944 27.8045724,34.0853351 L37.6702784,24.2196292 C38.0972153,23.7926922 38.1087542,23.1003619 37.6818172,22.673425 C37.4741181,22.4541871 37.1741083,22.3387987 36.8740986,22.3387987 Z" id="Path" stroke="#FFFFFF" fill="#FFFFFF" fill-rule="nonzero" transform="translate(29.947678, 28.371843) rotate(-28.000000) translate(-29.947678, -28.371843) "></path>
                    </g>
                </g>
                <rect id="Rectangle" fill="#DEE4EC" transform="translate(205.582188, 107.354500) rotate(3.000000) translate(-205.582188, -107.354500) " x="170.082188" y="104.8545" width="71" height="5" rx="2.5"></rect>
                <rect id="Rectangle-Copy" fill="#DEE4EC" transform="translate(205.582188, 122.354500) rotate(3.000000) translate(-205.582188, -122.354500) " x="170.082188" y="119.8545" width="71" height="5" rx="2.5"></rect>
                <rect id="Rectangle-Copy-2" fill="#DEE4EC" transform="translate(205.582188, 137.354500) rotate(3.000000) translate(-205.582188, -137.354500) " x="170.082188" y="134.8545" width="71" height="5" rx="2.5"></rect>
                <rect id="Rectangle-Copy-2" fill="#DEE4EC" transform="translate(126.000000, 126.500000) rotate(3.000000) translate(-126.000000, -126.500000) " x="111" y="124" width="30" height="5" rx="2.5"></rect>
            </g>
        </g>
    </g>
</svg>