<?xml version="1.0" encoding="UTF-8"?>
<svg width="1440px" height="569px" viewBox="0 0 1440 569" version="1.1" xmlns="http://www.w3.org/2000/svg" xmlns:xlink="http://www.w3.org/1999/xlink">
    <title>EFF5F51C-0113-4DF1-9F16-F6A88E1B1531@2x</title>
    <g id="💻-Web-Pages" stroke="none" stroke-width="1" fill="none" fill-rule="evenodd">
        <g id="Mon-espace---mes-infos" transform="translate(0.000000, -70.000000)">
            <g id="BG" transform="translate(0.000000, 70.000000)">
                <polygon id="Rectangle" fill="#E1E8EF" opacity="0.420735677" points="0 0 1440 0 1440 569 0 569"></polygon>
                <circle id="Oval" fill="#EBF1F4" opacity="0.310128348" cx="1330.5" cy="93.5" r="2.5"></circle>
                <circle id="Oval-Copy" fill="#FFCB00" opacity="0.593470982" cx="1264.5" cy="154.5" r="7.5"></circle>
                <circle id="Oval-Copy-2" fill="#EBF1F4" opacity="0.188523065" cx="1398.5" cy="303.5" r="7.5"></circle>
                <g id="bg-" transform="translate(38.000000, 49.000000)">
                    <path d="M113.8,28.8 L112.2,28.8 L112.2,27.2 C112.2,26.5 111.7,26 111,26 C110.3,26 109.8,26.5 109.8,27.2 L109.8,28.8 L108.2,28.8 C107.5,28.8 107,29.3 107,30 C107,30.7 107.5,31.2 108.2,31.2 L109.8,31.2 L109.8,32.8 C109.8,33.5 110.3,34 111,34 C111.7,34 112.2,33.5 112.2,32.8 L112.2,31.2 L113.8,31.2 C114.5,31.2 115,30.7 115,30 C115.1,29.3 114.5,28.8 113.8,28.8 Z" id="Path" fill="#FFFFFF" fill-rule="nonzero" opacity="0.551757812"></path>
                    <g id="Group" transform="translate(0.000000, 24.000000)">
                        <polygon id="Rectangle" stroke="#FFCB00" stroke-width="1.00003076" stroke-linecap="round" transform="translate(68.345141, 322.781434) rotate(-79.473261) translate(-68.345141, -322.781434) " points="61.4121754 315.632169 75.1948459 315.71543 75.2781072 329.930699 61.4954366 329.847438"></polygon>
                        <g fill-rule="nonzero">
                            <path d="M213.652189,208.987296 C213.652189,211.855375 211.280471,214.149837 208.315825,214.149837 C205.351178,214.149837 202.979461,211.855375 202.979461,208.987296 C202.979461,206.119218 205.351178,203.824756 208.315825,203.824756 C211.280471,203.824756 213.652189,206.119218 213.652189,208.987296 Z" id="Path" fill="#FFB100" opacity="0.4"></path>
                            <path d="M9.09158249,130.019544 C9.09158249,132.314007 7.31279461,134.034853 4.94107744,134.034853 C2.56936027,134.034853 0.790572391,132.314007 0.790572391,130.019544 C0.790572391,127.725081 2.56936027,126.004235 4.94107744,126.004235 C7.31279461,126.004235 9.09158249,127.916287 9.09158249,130.019544 Z" id="Path" fill="#FFB100"></path>
                            <path d="M105.30101,121.852443 C105.30101,126.910982 101.379365,130.704886 96.150505,130.704886 C90.921645,130.704886 87,126.910982 87,121.852443 C87,116.793904 90.921645,113 96.150505,113 C101.379365,113 105.30101,117.215449 105.30101,121.852443 Z" id="Path" fill="#FFFFFF" opacity="0.255905878"></path>
                            <path d="M203.30101,338.852443 C203.30101,343.910982 199.379365,347.704886 194.150505,347.704886 C188.921645,347.704886 185,343.910982 185,338.852443 C185,333.793904 188.921645,330 194.150505,330 C199.379365,330 203.30101,334.215449 203.30101,338.852443 Z" id="Path" fill="#FFFFFF" opacity="0.255905878"></path>
                            <path d="M289.942424,5.35374593 C289.942424,8.2218241 287.570707,10.7074919 284.408418,10.7074919 C281.246128,10.7074919 278.874411,8.41302932 278.874411,5.35374593 C278.874411,2.48566775 281.246128,0 284.408418,0 C287.570707,0 289.942424,2.29446254 289.942424,5.35374593 Z" id="Path" fill="#FFDA1A"></path>
                            <path d="M164.043771,21.6061889 C164.043771,22.9446254 162.857912,24.0918567 161.474411,24.0918567 C160.090909,24.0918567 158.905051,22.9446254 158.905051,21.6061889 C158.905051,20.2677524 160.090909,19.1205212 161.474411,19.1205212 C162.857912,19.1205212 164.043771,20.2677524 164.043771,21.6061889 Z" id="Path" fill="#893AE3" opacity="0.276390439"></path>
                            <ellipse id="Oval" fill="#893AE3" opacity="0.276390439" cx="250.216162" cy="131.166775" rx="4.94107744" ry="4.78013029"></ellipse>
                        </g>
                    </g>
                    <g id="Group-2" transform="translate(115.000000, 0.000000)" stroke-linecap="round">
                        <path d="M0.0341673317,270.6 C-0.365832668,267.5 2.83416733,266.4 5.03416733,267.7 C7.23416733,269.1 9.53416733,267.6 9.23416733,264.9 C8.83416733,262.1 12.1341673,261 14.2341673,262.1 C17.0341673,263.5 19.9341673,262.4 19.6341673,259" id="Path" stroke="#FFB100"></path>
                        <path d="M1151.03417,264.6 C1150.63417,261.5 1153.83417,260.4 1156.03417,261.7 C1158.23417,263.1 1160.53417,261.6 1160.23417,258.9 C1159.83417,256.1 1163.13417,255 1165.23417,256.1 C1168.03417,257.5 1170.93417,256.4 1170.63417,253" id="Path" stroke="#893AE3" opacity="0.680896577" transform="translate(1160.827807, 258.800000) rotate(60.000000) translate(-1160.827807, -258.800000) "></path>
                        <path d="M969.034167,58.6 C968.634167,55.5 971.834167,54.4 974.034167,55.7 C976.234167,57.1 978.534167,55.6 978.234167,52.9 C977.834167,50.1 981.134167,49 983.234167,50.1 C986.034167,51.5 988.934167,50.4 988.634167,47" id="Path" stroke="#FFB100" transform="translate(978.827807, 52.800000) rotate(-38.000000) translate(-978.827807, -52.800000) "></path>
                        <rect id="Rectangle" stroke="#CED7DB" stroke-width="1.0000057" transform="translate(1172.200013, 161.200013) rotate(96.834354) translate(-1172.200013, -161.200013) " x="1170" y="159" width="4.4000251" height="4.4000251"></rect>
                        <rect id="Rectangle" stroke="#CED7DB" stroke-width="1.0000057" transform="translate(1172.200013, 161.200013) rotate(96.834354) translate(-1172.200013, -161.200013) " x="1170" y="159" width="4.4000251" height="4.4000251"></rect>
                        <rect id="Rectangle" stroke="#CED7DB" stroke-width="1.0000057" transform="translate(1181.200012, 18.200013) rotate(-135.000000) translate(-1181.200012, -18.200013) " x="1169" y="6" width="24.400025" height="24.400025"></rect>
                    </g>
                </g>
            </g>
        </g>
    </g>
</svg>