<?xml version="1.0" encoding="UTF-8"?>
<svg width="128px" height="120px" viewBox="0 0 128 120" version="1.1" xmlns="http://www.w3.org/2000/svg" xmlns:xlink="http://www.w3.org/1999/xlink">
    <title>000CA536-6E0B-473A-B1AE-6AB5CCB28424</title>
    <g id="💻-Web-Pages" stroke="none" stroke-width="1" fill="none" fill-rule="evenodd">
        <g id="Mon-espace---mes-infos" transform="translate(-616.000000, -287.000000)">
            <g id="bloc" transform="translate(336.000000, 225.000000)">
                <g id="visuel" transform="translate(280.000000, 62.000000)">
                    <path d="M108.490848,108.622023 L43.6766379,102.77511 C41.8937227,102.617794 40.5827557,101.044633 40.7400717,99.2354986 L48.5009966,13.1311833 C48.6583126,11.3482682 50.2314731,10.0373011 52.0406076,10.1946172 L116.854818,16.0415302 C118.637733,16.1988462 119.9487,17.7720067 119.791384,19.5811412 L112.030459,105.685456 C111.873143,107.442152 110.299983,108.779339 108.490848,108.622023 Z" id="Path" fill="#DEE4EC" fill-rule="nonzero" opacity="0.449474516" transform="translate(80.265728, 59.408211) rotate(-10.000000) translate(-80.265728, -59.408211) "></path>
                    <path d="M112.58585,92.6605305 L48.0862711,101.365352 C46.3033559,101.627545 44.6777568,100.369017 44.4417827,98.5861015 L32.8790534,12.9012957 C32.6430793,11.1183805 33.8753884,9.49278135 35.6583035,9.25680728 L100.157882,0.551986123 C101.940797,0.316012055 103.566396,1.54832107 103.80237,3.33123625 L115.3651,89.0160421 C115.601074,90.7989573 114.368765,92.4507757 112.58585,92.6605305 Z" id="Path" stroke="#C1C9CC" stroke-width="0.25" fill="#FFFFFF" fill-rule="nonzero"></path>
                    <path d="M70.6148853,37.9570434 C75.8721202,37.9570434 80.1388616,33.6903021 80.1388616,28.4330672 C80.1388616,23.1758323 75.8721202,18.9090909 70.6148853,18.9090909 C65.3576505,18.9090909 61.0909091,23.1758323 61.0909091,28.4330672 C61.129005,33.6903021 65.3576505,37.9570434 70.6148853,37.9570434 Z" id="Path" fill="#FFCB00" fill-rule="nonzero"></path>
                    <path d="M85.4288751,60.20068 L55.1020994,64.2778447 C53.5445309,64.4610881 52.078584,63.361628 51.8495298,61.8040594 C51.6662865,60.20068 52.7657466,58.780544 54.3233151,58.5514898 L84.6500908,54.4743251 C86.2076594,54.2910818 87.6736062,55.3905419 87.9026604,56.9481104 C88.1317146,58.505679 86.9864436,59.9716258 85.4288751,60.20068 Z" id="Path" fill="#DEE4EC" fill-rule="nonzero"></path>
                    <path d="M93.0255988,48.363953 L53.647554,53.4598278 C52.0899854,53.6430712 50.6240386,52.5436111 50.3949844,50.9860425 C50.211741,49.3826631 51.3112011,47.9625271 52.8687697,47.7334729 L92.2468146,42.637598 C93.8043831,42.4543547 95.27033,43.5538148 95.4993842,45.1113834 C95.7284383,46.6689519 94.5831674,48.1348988 93.0255988,48.363953 Z" id="Path-Copy-2" fill="#DEE4EC" fill-rule="nonzero"></path>
                    <path d="M0.550606158,68.6173949 C0.62926418,68.6173949 0.707922203,68.6436143 0.760360884,68.696053 C1.12743166,68.9844657 1.65181847,69.2728784 2.33352133,69.5612912 C2.49083738,69.6399492 2.5694954,69.8234846 2.51705672,69.9808007 C2.4383987,70.1381167 2.25486331,70.2167747 2.09754727,70.164336 C1.36340572,69.8497039 0.786580225,69.5350719 0.367070772,69.2204398 C0.235974068,69.1155624 0.209754727,68.9058077 0.31463209,68.774711 C0.393290113,68.6436143 0.471948135,68.6173949 0.550606158,68.6173949 Z" id="Path" fill="#110580" fill-rule="nonzero"></path>
                    <g id="icon/person" transform="translate(70.579962, 28.247260) rotate(-7.000000) translate(-70.579962, -28.247260) translate(66.943598, 23.156351)" stroke="#FFFFFF" stroke-linecap="round" stroke-linejoin="round">
                        <circle id="Ellipse_736" cx="3.4735613" cy="2.01901585" r="2.01901585"></circle>
                        <path d="M5.35232464e-12,8.60563727 C-0.000560212195,8.45719231 0.0326390555,8.31056222 0.0970935115,8.17683918 C0.299356762,7.77231268 0.869739128,7.55791363 1.34303513,7.46082727 C1.68437578,7.387985 2.03043122,7.33932095 2.37862298,7.31519773 C3.02327579,7.25857045 3.6716521,7.25857045 4.31630492,7.31519773 C4.6644675,7.33959876 5.01050354,7.38826008 5.35189276,7.46082727 C5.82518876,7.55791363 6.39557113,7.75208635 6.59783438,8.17683918 C6.72745443,8.44942856 6.72745443,8.76589125 6.59783438,9.03848063 C6.39557113,9.46323345 5.82518876,9.65740617 5.35189276,9.75044727 C5.01095117,9.82630617 4.66477319,9.8763397 4.31630492,9.90012207 C3.7916103,9.94460222 3.26446615,9.95271213 2.73865156,9.92439366 C2.61729361,9.92439366 2.49998093,9.92439366 2.37862298,9.90012207 C2.03145916,9.87663274 1.6866036,9.82659487 1.3470804,9.75044727 C0.869739128,9.65740617 0.303402027,9.46323345 0.0970935115,9.03848063 C0.0329683422,8.90320679 -0.000197968449,8.75534033 5.35232464e-12,8.60563727 Z" id="Path_33945"></path>
                    </g>
                    <g id="card" transform="translate(48.353476, 98.470189) rotate(23.000000) translate(-48.353476, -98.470189) translate(25.853476, 84.970189)">
                        <path d="M6.38171383,4.72686117 L42.9384365,4.72686117 C44.043006,4.72686117 44.9384365,5.62229167 44.9384365,6.72686117 L44.9384365,24.0451385 C44.9384365,25.149708 44.043006,26.0451385 42.9384365,26.0451385 L6.38171383,26.0451385 C5.27714433,26.0451385 4.38171383,25.149708 4.38171383,24.0451385 L4.38171383,6.72686117 C4.38171383,5.62229167 5.27714433,4.72686117 6.38171383,4.72686117 Z" id="Rectangle" fill="#F0F2F6"></path>
                        <path d="M2.80357143,-3.65421978e-13 L39.3602941,-3.65421978e-13 C40.4648636,-3.61700665e-13 41.3602941,0.8954305 41.3602941,2 L41.3602941,19.3182773 C41.3602941,20.4228468 40.4648636,21.3182773 39.3602941,21.3182773 L2.80357143,21.3182773 C1.69900193,21.3182773 0.803571429,20.4228468 0.803571429,19.3182773 L0.803571429,2 C0.803571429,0.8954305 1.69900193,-3.65219072e-13 2.80357143,-3.65421978e-13 Z" id="Rectangle" stroke="#893AE3" fill="#893AE3"></path>
                        <polygon id="Rectangle" fill="#AB67F8" points="0.333766438 4.1881632 41.7647541 4.09856118 41.7647541 8.77818303 0.333766438 8.86778505"></polygon>
                        <rect id="Rectangle" fill="#FFFFFF" x="2.36344538" y="11.4390756" width="14.0388655" height="8.18933824" rx="1"></rect>
                    </g>
                </g>
            </g>
        </g>
    </g>
</svg>