<?xml version="1.0" encoding="UTF-8"?>
<svg width="357px" height="236px" viewBox="0 0 357 236" version="1.1" xmlns="http://www.w3.org/2000/svg" xmlns:xlink="http://www.w3.org/1999/xlink">
    <title>C5F59CA6-BF93-44B2-A221-7D59AC411AA4@2x</title>
    <g id="💻-Web-Pages" stroke="none" stroke-width="1" fill="none" fill-rule="evenodd">
        <g id="Je-participe---document-téléchargement" transform="translate(-750.000000, -1122.000000)">
            <g id="visuel" transform="translate(750.000000, 1122.000000)">
                <g id="confettis">
                    <g id="Group" transform="translate(0.000000, 46.000000)">
                        <rect id="Rectangle" stroke="#CED7DB" stroke-width="1.00003076" stroke-linecap="round" transform="translate(34.580080, 158.814140) rotate(-79.473261) translate(-34.580080, -158.814140) " x="30.9799692" y="155.214029" width="7.2002215" height="7.2002215"></rect>
                        <g fill-rule="nonzero">
                            <path d="M169.6,84.5 C169.6,86 168.4,87.3 166.8,87.3 C165.3,87.3 164,86.1 164,84.5 C164,83 165.2,81.7 166.8,81.7 C168.3,81.7 169.6,83 169.6,84.5 Z" id="Path" fill="#FFCB00" opacity="0.320661272"></path>
                            <path d="M108.1,99.3 C108.1,100.8 106.9,102 105.4,102 C103.9,102 102.7,100.8 102.7,99.3 C102.7,97.8 103.9,96.6 105.4,96.6 C106.9,96.6 108.1,97.8 108.1,99.3 Z" id="Path" fill="#FFB100"></path>
                            <path d="M4.6,58 C4.6,59.2 3.7,60.1 2.5,60.1 C1.3,60.1 0.4,59.2 0.4,58 C0.4,56.8 1.3,55.9 2.5,55.9 C3.7,55.9 4.6,56.9 4.6,58 Z" id="Path" fill="#FFB100"></path>
                            <path d="M83,1.3 C83,2 82.4,2.6 81.7,2.6 C81,2.6 80.4,2 80.4,1.3 C80.4,0.6 81,0 81.7,0 C82.4,0 83,0.6 83,1.3 Z" id="Path" fill="#893AE3" opacity="0.276390439"></path>
                            <circle id="Oval" fill="#893AE3" opacity="0.276390439" cx="126.6" cy="58.6" r="2.5"></circle>
                            <path d="M261.5,31.1 C261.5,32.5 260.4,33.5 259.1,33.5 C257.7,33.5 256.7,32.4 256.7,31.1 C256.7,29.7 257.8,28.7 259.1,28.7 C260.4,28.7 261.5,29.8 261.5,31.1 Z" id="Path" fill="#893AE3" opacity="0.276390439"></path>
                            <path d="M296.3,64.7 C296.3,66.8 294.6,68.5 292.5,68.5 C290.4,68.5 288.7,66.8 288.7,64.7 C288.7,62.6 290.4,60.9 292.5,60.9 C294.6,60.9 296.3,62.6 296.3,64.7 Z" id="Path" fill="#893AE3" opacity="0.276390439"></path>
                        </g>
                    </g>
                    <g id="Group" transform="translate(50.954346, 105.642165) rotate(55.000000) translate(-50.954346, -105.642165) translate(15.954346, 71.142165)" stroke="#CED7DB" stroke-linecap="round">
                        <path d="M19.6624511,0.321072153 C20.0624511,3.42107215 16.8624511,4.52107215 14.6624511,3.22107215 C12.4624511,1.82107215 10.1624511,3.32107215 10.4624511,6.02107215 C10.8624511,8.72107215 7.56245112,9.82107215 5.46245112,8.82107215 C2.76245112,7.42107215 -0.237548882,8.52107215 0.0624511178,11.8210722" id="Path"></path>
                        <path d="M49.2009303,64.8891849 C48.1009303,61.3891849 51.4009303,58.7891849 54.0009303,59.3891849 C56.6009303,59.9891849 58.6009303,57.3891849 57.9009303,54.7891849 C57.3009303,52.1891849 60.1009303,49.3891849 62.6009303,49.9891849 C65.1009303,50.4891849 66.4009303,47.8891849 66.1009303,46.3891849" id="Path" transform="translate(57.563450, 55.639185) rotate(-33.000000) translate(-57.563450, -55.639185) "></path>
                    </g>
                    <g id="Group" transform="translate(166.000000, 0.000000)">
                        <path d="M170.034167,82.6 C169.634167,79.5 172.834167,78.4 175.034167,79.7 C177.234167,81.1 179.534167,79.6 179.234167,76.9 C178.834167,74.1 182.134167,73 184.234167,74.1 C187.034167,75.5 189.934167,74.4 189.634167,71" id="Path" stroke="#CED7DB" stroke-linecap="round"></path>
                        <rect id="Rectangle" stroke="#CED7DB" stroke-width="0.999973165" stroke-linecap="round" transform="translate(34.142820, 19.214400) rotate(61.130718) translate(-34.142820, -19.214400) " x="32.242871" y="17.314451" width="3.79989803" height="3.79989803"></rect>
                        <rect id="Rectangle" stroke="#CED7DB" stroke-width="1.00000084" stroke-linecap="round" transform="translate(3.200002, 216.200002) rotate(48.417373) translate(-3.200002, -216.200002) " x="1" y="214" width="4.40000372" height="4.40000372"></rect>
                        <rect id="Rectangle" stroke="#CED7DB" stroke-width="1.00003076" stroke-linecap="round" transform="translate(121.556120, 78.783360) rotate(100.526739) translate(-121.556120, -78.783360) " x="119.656062" y="76.8833015" width="3.80011691" height="3.80011691"></rect>
                        <rect id="Rectangle" stroke="#CED7DB" stroke-width="1.0000057" stroke-linecap="round" transform="translate(55.733640, 129.365830) rotate(96.834354) translate(-55.733640, -129.365830) " x="53.5336274" y="127.165817" width="4.4000251" height="4.4000251"></rect>
                        <path d="M92,2.8 L90.4,2.8 L90.4,1.2 C90.4,0.5 89.9,0 89.2,0 C88.5,0 88,0.5 88,1.2 L88,2.8 L86.4,2.8 C85.7,2.8 85.2,3.3 85.2,4 C85.2,4.7 85.7,5.2 86.4,5.2 L88,5.2 L88,6.8 C88,7.5 88.5,8 89.2,8 C89.9,8 90.4,7.5 90.4,6.8 L90.4,5.2 L92,5.2 C92.7,5.2 93.2,4.7 93.2,4 C93.2,3.3 92.7,2.8 92,2.8 Z" id="Path" fill="#FFB100" fill-rule="nonzero" opacity="0.326148624"></path>
                        <path d="M23.8,71.8 L22.2,71.8 L22.2,70.2 C22.2,69.5 21.7,69 21,69 C20.3,69 19.8,69.5 19.8,70.2 L19.8,71.8 L18.2,71.8 C17.5,71.8 17,72.3 17,73 C17,73.7 17.5,74.2 18.2,74.2 L19.8,74.2 L19.8,75.8 C19.8,76.5 20.3,77 21,77 C21.7,77 22.2,76.5 22.2,75.8 L22.2,74.2 L23.8,74.2 C24.5,74.2 25,73.7 25,73 C25.1,72.3 24.5,71.8 23.8,71.8 Z" id="Path" fill="#893AE3" fill-rule="nonzero" opacity="0.551757812"></path>
                    </g>
                </g>
                <g id="img" transform="translate(70.000000, 19.000000)">
                    <g id="Group" transform="translate(108.500000, 108.500000) rotate(-45.000000) translate(-108.500000, -108.500000) translate(35.428571, 29.523810)" fill-rule="nonzero">
                        <polygon id="Path" fill="#FFB100" points="134.544218 67.6938776 130.748299 57.7823129 0 84.1428571 8.85714286 102.068027 73.3877551 157.952381"></polygon>
                        <polygon id="Path" fill="#FFCB00" points="130.748299 57.7823129 99.1156463 39.8571429 72.9659864 13.707483 0 84.1428571 66.4285714 141.92517"></polygon>
                        <path d="M114.721088,57.5714286 L112.823129,56.5170068 C113.034014,56.0952381 134.333333,20.6666667 130.326531,7.59183673 C129.904762,5.9047619 128.85034,4.63945578 127.37415,4.00680272 C114.29932,-2.31972789 105.231293,6.11564626 82.877551,36.0612245 L81.1904762,34.7959184 C102.278912,6.53741497 113.244898,-5.06122449 128.428571,2.10884354 C130.326531,2.95238095 131.802721,4.63945578 132.435374,6.95918367 C136.653061,20.877551 115.564626,56.0952381 114.721088,57.5714286 Z" id="Path" fill="#FFCB00"></path>
                        <path d="M125.687075,58.414966 L124.210884,56.9387755 C124.421769,56.7278912 144.244898,34.585034 143.401361,24.2517007 C143.401361,22.7755102 142.768707,21.7210884 141.92517,20.877551 C131.170068,11.8095238 119.571429,17.292517 90.047619,38.8027211 L88.7823129,37.1156463 C117.040816,16.6598639 130.748299,8.6462585 143.190476,19.1904762 C144.666667,20.4557823 145.29932,21.9319728 145.510204,24.0408163 C146.142857,35.4285714 126.530612,57.3605442 125.687075,58.414966 Z" id="Path" fill="#FFCB00"></path>
                    </g>
                    <g id="fact" transform="translate(89.497175, 33.101695)">
                        <path d="M84.8763673,92.2808597 L30.1181996,99.6709864 C28.6045592,99.8935806 27.2244753,98.8251285 27.0241406,97.3114881 L17.2077374,24.5677105 C17.0074026,23.0540701 18.0535952,21.6739862 19.5672356,21.4736514 L74.3254033,14.0835247 C75.8390437,13.8831899 77.2191276,14.9293826 77.4194623,16.443023 L87.2358655,89.1868006 C87.4362003,90.700441 86.3900077,92.1027843 84.8763673,92.2808597 Z" id="Path-Copy" fill="#DEE4EC" fill-rule="nonzero" transform="translate(52.221801, 56.879647) rotate(15.000000) translate(-52.221801, -56.879647) "></path>
                        <path d="M77.6028097,86.7158559 L22.8446421,94.1059826 C21.3310017,94.3285768 19.9509178,93.2601248 19.750583,91.7464843 L9.93417978,19.0027067 C9.73384502,17.4890663 10.7800377,16.1089824 12.2936781,15.9086477 L67.0518457,8.51852093 C68.5654861,8.31818616 69.94557,9.3643788 70.1459047,10.8780192 L79.962308,83.6217968 C80.1626427,85.1354372 79.1164501,86.5377806 77.6028097,86.7158559 Z" id="Path-Copy" stroke="#C1C9CC" stroke-width="0.25" fill="#FFFFFF" fill-rule="nonzero" transform="translate(44.948244, 51.314643) rotate(15.000000) translate(-44.948244, -51.314643) "></path>
                        <path d="M54.5770528,53.4122067 L25.0610494,57.3803703 C23.5451217,57.5587147 22.1183663,56.4886481 21.8954357,54.9727205 C21.7170913,53.4122067 22.7871579,52.0300374 24.3030856,51.8071068 L53.819089,47.8389432 C55.3350166,47.6605988 56.7617721,48.7306654 56.9847026,50.246593 C57.2076332,51.7625207 56.0929805,53.1892762 54.5770528,53.4122067 Z" id="Path" fill="#DEE4EC" fill-rule="nonzero" transform="translate(39.444580, 52.609657) rotate(15.000000) translate(-39.444580, -52.609657) "></path>
                        <path d="M65.3210496,43.0299141 L26.9957585,47.9895532 C25.4798308,48.1678976 24.0530754,47.097831 23.8301448,45.5819033 C23.6518004,44.0213896 24.721867,42.6392202 26.2377947,42.4162897 L64.5630858,37.4566507 C66.0790134,37.2783062 67.5057689,38.3483728 67.7286994,39.8643005 C67.95163,41.3802281 66.8369773,42.8069836 65.3210496,43.0299141 Z" id="Path-Copy-2" fill="#DEE4EC" fill-rule="nonzero" transform="translate(45.783933, 42.723102) rotate(15.000000) translate(-45.783933, -42.723102) "></path>
                        <polygon id="Rectangle" fill="#893AE3" transform="translate(53.142857, 78.730159) rotate(7.000000) translate(-53.142857, -78.730159) " points="41.3333333 70.8571429 64.952381 70.8571429 64.952381 86.6031746 41.3333333 86.6031746"></polygon>
                        <text id="€" font-family="Montserrat-SemiBold, Montserrat" font-size="8" font-weight="500" letter-spacing="-0.133333333" fill="#FFFFFF">
                            <tspan x="48.4917015" y="80.700513">€</tspan>
                        </text>
                    </g>
                    <g id="ticke" transform="translate(85.819209, 90.723164)">
                        <polygon id="Rectangle" stroke="#C1C9CC" stroke-width="0.25" fill="#FFFFFF" transform="translate(16.713479, 25.332930) rotate(-12.000000) translate(-16.713479, -25.332930) " points="4.9039548 2.4519774 28.5230024 2.4519774 28.5230024 48.2138822 4.9039548 48.2138822"></polygon>
                        <polygon id="Rectangle" fill="#893AE3" transform="translate(20.142665, 39.498832) rotate(-11.000000) translate(-20.142665, -39.498832) " points="10.855319 35.2547902 29.3222646 34.9250439 29.430011 43.7428736 10.9630654 44.07262"></polygon>
                        <polygon id="Rectangle" fill="#FFFFFF" transform="translate(12.950225, 41.228123) rotate(-12.000000) translate(-12.950225, -41.228123) " points="12.3372304 35.8736297 13.5632191 35.8736297 13.5163574 46.5826159 12.6099259 46.3899479"></polygon>
                        <polygon id="Rectangle-Copy" fill="#FFFFFF" transform="translate(15.324859, 40.908165) rotate(-12.000000) translate(-15.324859, -40.908165) " points="14.7118644 35.5536723 15.9378531 35.5536723 15.8909915 46.2626585 14.98456 46.0699906"></polygon>
                        <polygon id="Rectangle-Copy-2" fill="#FFFFFF" transform="translate(17.776836, 40.908165) rotate(-12.000000) translate(-17.776836, -40.908165) " points="17.1638418 35.5536723 18.3898305 35.5536723 18.3429689 46.2626585 17.4365374 46.0699906"></polygon>
                        <polygon id="Rectangle-Copy-3" fill="#FFFFFF" transform="translate(23.906780, 39.682177) rotate(-12.000000) translate(-23.906780, -39.682177) " points="23.2937853 34.3276836 24.519774 34.3276836 24.4729124 45.0366698 23.5664809 44.8440019"></polygon>
                        <polygon id="Rectangle-Copy-4" fill="#FFFFFF" transform="translate(25.132768, 38.456188) rotate(-12.000000) translate(-25.132768, -38.456188) " points="24.519774 33.1016949 25.7457627 33.1016949 25.6989011 43.8106811 24.7924696 43.6180132"></polygon>
                        <polygon id="Rectangle-Copy-5" fill="#FFFFFF" transform="translate(26.358757, 38.456188) rotate(-12.000000) translate(-26.358757, -38.456188) " points="25.7457627 33.1016949 26.9717514 33.1016949 26.9248898 43.8106811 26.0184583 43.6180132"></polygon>
                    </g>
                    <path d="M132.544266,41.3042416 C131.953232,40.7409981 131.24041,40.4576271 130.420128,40.4576271 C129.607009,40.4576271 128.879859,40.7514933 128.260169,41.3287304 L121.665669,47.5209104 C121.665669,47.5209104 121.662087,47.5244088 121.662087,47.5244088 C120.65554,48.5074612 120.146893,49.5499864 120.146893,50.6239973 C120.146893,51.7155002 120.540915,52.6530732 121.325377,53.4157259 C122.124168,54.1853754 123.094896,54.5736985 124.205322,54.5736985 C125.043515,54.5736985 125.799321,54.3498005 126.454831,53.9055028 C126.454831,53.9055028 126.458413,53.9020044 126.458413,53.9020044 C126.601694,53.8005506 127.042282,53.3877386 127.389738,53.0588884 C127.41123,53.037898 127.42914,53.0169075 127.443469,52.9924187 L131.885174,48.5354484 C132.024873,48.3955121 132.021291,48.1751125 131.87801,48.0421731 C131.734729,47.9057352 131.509062,47.9092336 131.372945,48.0491699 L126.877509,52.5551178 C126.859599,52.5726099 126.845271,52.5901019 126.834525,52.6075939 C126.193343,53.2163167 126.053645,53.3212689 126.039316,53.3317641 C125.509177,53.6921 124.889488,53.8740172 124.20174,53.8740172 C123.273997,53.8740172 122.496698,53.5591606 121.82686,52.9189521 C121.185679,52.2927373 120.859715,51.5195894 120.859715,50.6239973 C120.859715,49.7423988 121.300303,48.8677971 122.16357,48.0211826 L128.75807,41.832501 C129.245225,41.3777081 129.789692,41.1573085 130.420128,41.1573085 C131.054145,41.1573085 131.584284,41.3707113 132.042783,41.8045137 C132.494118,42.245313 132.716203,42.7630772 132.716203,43.3822952 C132.705457,43.9700275 132.504864,44.4598045 132.110841,44.8796133 L125.129483,51.8274492 C124.832176,52.1073218 124.481138,52.2507564 124.054877,52.2612517 C123.625035,52.2507564 123.281161,52.1073218 122.994599,51.8274492 C122.697291,51.5370814 122.550428,51.1942376 122.550428,50.7779272 C122.550428,50.4315849 122.647143,50.1447155 122.847736,49.9033255 C122.858482,49.8893318 122.869228,49.8788366 122.876392,49.864843 C122.897884,49.8263605 122.919377,49.8018717 122.944451,49.7773828 L128.167037,44.6417216 C128.306736,44.5052838 128.306736,44.2848842 128.167037,44.1484463 C128.027338,44.0120084 127.801671,44.0120084 127.661972,44.1484463 L122.439386,49.2841075 C122.378491,49.3435804 122.328343,49.4065517 122.278195,49.4835167 C121.984469,49.847351 121.837606,50.2811534 121.837606,50.7779272 C121.837606,51.3796531 122.05611,51.8974173 122.489534,52.3207246 C122.908631,52.7300382 123.431606,52.943441 124.047713,52.9574346 C124.054877,52.9574346 124.058459,52.9574346 124.065623,52.9574346 C124.674567,52.943441 125.201124,52.7300382 125.630966,52.324223 C125.634548,52.3207246 125.634548,52.3207246 125.63813,52.3172262 L132.62307,45.3623934 C132.626652,45.358895 132.626652,45.358895 132.630234,45.3553966 C133.149627,44.8096452 133.418279,44.1484463 133.432607,43.389292 C133.432607,43.3857936 133.432607,43.3857936 133.432607,43.3822952 C133.432607,42.58116 133.135299,41.8814787 132.544266,41.3042416 C132.547848,41.30774 132.547848,41.3042416 132.544266,41.3042416 Z" id="Path" fill="#728393" fill-rule="nonzero" transform="translate(126.789750, 47.515663) rotate(-17.000000) translate(-126.789750, -47.515663) "></path>
                </g>
            </g>
        </g>
    </g>
</svg>