<?xml version="1.0" encoding="UTF-8"?>
<svg width="188px" height="206px" viewBox="0 0 188 206" version="1.1" xmlns="http://www.w3.org/2000/svg" xmlns:xlink="http://www.w3.org/1999/xlink">
    <title>6EC8D508-D2F6-47B9-882B-39C89B517EDB</title>
    <g id="💻-Web-Pages" stroke="none" stroke-width="1" fill="none" fill-rule="evenodd">
        <g id="Confirmation" transform="translate(-627.000000, -108.000000)">
            <g id="visuel" transform="translate(628.000000, 109.000000)">
                <g id="card" transform="translate(93.680851, 85.021277) rotate(20.000000) translate(-93.680851, -85.021277) translate(19.680851, 22.042553)">
                    <g id="bg" transform="translate(74.000000, 62.978723) rotate(-20.000000) translate(-74.000000, -62.978723) translate(11.021277, 19.680851)" fill-rule="nonzero">
                        <path d="M119.195802,60.9917444 L20.3230003,73.0728387 C19.560191,73.1850165 18.8646884,72.6465629 18.7637283,71.8837535 L13.8166856,35.224035 C13.7157255,34.4612257 14.2429614,33.7657231 15.0057707,33.664763 L113.878572,21.5836688 C114.641381,21.4827088 115.336884,22.0099446 115.437844,22.7727539 L120.384887,59.4324725 C120.485847,60.1952818 119.958611,60.9020022 119.195802,60.9917444 Z" id="Path-Copy" fill="#DBE3E8" transform="translate(67.100786, 47.329459) rotate(15.000000) translate(-67.100786, -47.329459) "></path>
                        <path d="M114.009812,52.7814318 L11.7610858,65.452155 C10.9982765,65.5643328 10.3027738,65.0258792 10.2018138,64.2630699 L5.25477102,27.6033514 C5.15381097,26.840542 5.68104682,26.1450394 6.44385613,26.0440794 L108.692582,13.3733561 C109.455392,13.2723961 110.150894,13.7996319 110.251854,14.5624413 L115.198897,51.2221598 C115.299857,51.9849691 114.772621,52.6916895 114.009812,52.7814318 Z" id="Path-Copy" stroke="#DBE3E8" stroke-width="0.5" fill="#FFFFFF" transform="translate(60.226834, 39.413961) rotate(15.000000) translate(-60.226834, -39.413961) "></path>
                        <path d="M74.4013329,41.8693375 L46.5059551,45.2385011 C45.7419931,45.328379 45.02297,44.7891117 44.9106227,44.0251497 C44.8207448,43.2387182 45.3600121,42.5421647 46.1239741,42.4298173 L74.0193519,39.0606537 C74.7833139,38.9707758 75.502337,39.5100431 75.6146843,40.2740051 C75.7270317,41.0379671 75.1652949,41.7569902 74.4013329,41.8693375 Z" id="Path" fill="#DEE4EC" transform="translate(60.264927, 42.149577) rotate(15.000000) translate(-60.264927, -42.149577) "></path>
                        <path d="M92.1977951,34.1402521 L48.0391417,39.8334345 C47.2751797,39.9233124 46.5561566,39.3840451 46.4438093,38.6200831 C46.3539314,37.8336516 46.8931987,37.137098 47.6571607,37.0247507 L91.8158141,31.3315683 C92.5797761,31.2416904 93.2987991,31.7809577 93.4111465,32.5449197 C93.5234938,33.3088817 92.9617571,34.0279047 92.1977951,34.1402521 Z" id="Path-Copy-2" fill="#DEE4EC" transform="translate(69.929751, 35.582501) rotate(15.000000) translate(-69.929751, -35.582501) "></path>
                    </g>
                    <g id="picto" transform="translate(28.929624, 59.493904)">
                        <path d="M8.46826954,16.9365391 C13.1427543,16.9365391 16.9365391,13.1427543 16.9365391,8.46826954 C16.9365391,3.79378475 13.1427543,-6.89215655e-15 8.46826954,-6.89215655e-15 C3.79378475,-6.89215655e-15 -5.11168278e-13,3.79378475 -5.11168278e-13,8.46826954 C0.0338730782,13.1427543 3.79378475,16.9365391 8.46826954,16.9365391 Z" id="Path" fill="#893AE3" fill-rule="nonzero"></path>
                        <g id="icon/person" transform="translate(8.437217, 8.303059) rotate(-7.000000) translate(-8.437217, -8.303059) translate(5.203935, 3.776463)" stroke="#FFFFFF" stroke-linecap="round" stroke-linejoin="round">
                            <circle id="Ellipse_736" cx="3.08852653" cy="1.79521346" r="1.79521346"></circle>
                            <path d="M4.7590341e-12,7.65172592 C-0.000498114205,7.51973568 0.0290211055,7.38935913 0.0863309614,7.27045893 C0.266173884,6.91077308 0.773330925,6.72013958 1.19416336,6.63381498 C1.49766733,6.56904707 1.80536347,6.5257773 2.11495913,6.50432808 C2.68815394,6.45397777 3.26465951,6.45397777 3.83785432,6.50432808 C4.14742404,6.52602431 4.45510293,6.56929166 4.75865009,6.63381498 C5.17948252,6.72013958 5.68663957,6.89278879 5.86648249,7.27045893 C5.98173451,7.51283252 5.98173451,7.79421618 5.86648249,8.03658977 C5.68663957,8.41425991 5.17948252,8.58690912 4.75865009,8.66963686 C4.45550094,8.73708701 4.14769584,8.78157446 3.83785432,8.80272062 C3.37132067,8.84227027 2.90260901,8.84948122 2.43507953,8.82430177 C2.32717377,8.82430177 2.22286488,8.82430177 2.11495913,8.80272062 C1.80627747,8.78183502 1.4996482,8.73734371 1.19776022,8.66963686 C0.773330925,8.58690912 0.269770742,8.41425991 0.0863309614,8.03658977 C0.0293138917,7.91631068 -0.000176024188,7.7848348 4.7590341e-12,7.65172592 Z" id="Path_33945"></path>
                        </g>
                    </g>
                </g>
                <g id="card" transform="translate(83.937324, 130.780083) rotate(9.000000) translate(-83.937324, -130.780083) translate(9.437324, 67.780083)" fill-rule="nonzero">
                    <g id="bg" transform="translate(74.089125, 63.161384) rotate(-20.000000) translate(-74.089125, -63.161384) translate(11.089125, 19.661384)">
                        <path d="M119.195802,60.9917444 L20.3230003,73.0728387 C19.560191,73.1850165 18.8646884,72.6465629 18.7637283,71.8837535 L13.8166856,35.224035 C13.7157255,34.4612257 14.2429614,33.7657231 15.0057707,33.664763 L113.878572,21.5836688 C114.641381,21.4827088 115.336884,22.0099446 115.437844,22.7727539 L120.384887,59.4324725 C120.485847,60.1952818 119.958611,60.9020022 119.195802,60.9917444 Z" id="Path-Copy" fill="#DBE3E8" transform="translate(67.100786, 47.329459) rotate(15.000000) translate(-67.100786, -47.329459) "></path>
                        <path d="M114.009812,52.7814318 L11.7610858,65.452155 C10.9982765,65.5643328 10.3027738,65.0258792 10.2018138,64.2630699 L5.25477102,27.6033514 C5.15381097,26.840542 5.68104682,26.1450394 6.44385613,26.0440794 L108.692582,13.3733561 C109.455392,13.2723961 110.150894,13.7996319 110.251854,14.5624413 L115.198897,51.2221598 C115.299857,51.9849691 114.772621,52.6916895 114.009812,52.7814318 Z" id="Path-Copy" stroke="#DEE4EC" stroke-width="0.5" fill="#FFFFFF" transform="translate(60.226834, 39.413961) rotate(15.000000) translate(-60.226834, -39.413961) "></path>
                        <path d="M74.4013329,41.8693375 L46.5059551,45.2385011 C45.7419931,45.328379 45.02297,44.7891117 44.9106227,44.0251497 C44.8207448,43.2387182 45.3600121,42.5421647 46.1239741,42.4298173 L74.0193519,39.0606537 C74.7833139,38.9707758 75.502337,39.5100431 75.6146843,40.2740051 C75.7270317,41.0379671 75.1652949,41.7569902 74.4013329,41.8693375 Z" id="Path" fill="#DEE4EC" transform="translate(60.264927, 42.149577) rotate(15.000000) translate(-60.264927, -42.149577) "></path>
                        <path d="M92.1977951,34.1402521 L48.0391417,39.8334345 C47.2751797,39.9233124 46.5561566,39.3840451 46.4438093,38.6200831 C46.3539314,37.8336516 46.8931987,37.137098 47.6571607,37.0247507 L91.8158141,31.3315683 C92.5797761,31.2416904 93.2987991,31.7809577 93.4111465,32.5449197 C93.5234938,33.3088817 92.9617571,34.0279047 92.1977951,34.1402521 Z" id="Path-Copy-2" fill="#DEE4EC" transform="translate(69.929751, 35.582501) rotate(15.000000) translate(-69.929751, -35.582501) "></path>
                    </g>
                    <g id="picto" transform="translate(23.929624, 54.493904)" fill="#FFCB00">
                        <path d="M15.2647437,22.8305395 L22.3187219,15.7765613 C22.7063536,15.3889296 22.7096435,14.7614767 22.326098,14.3698015 L13.2498195,5.10114176 C12.8634118,4.70654378 12.2302816,4.69990422 11.8356837,5.08631188 C11.8331862,5.08875752 11.8307016,5.09121624 11.8282299,5.09368794 L4.77425164,12.1476662 C4.38661998,12.5352978 4.38333006,13.1627507 4.76687558,13.5544259 L13.8431541,22.8230857 C14.2295617,23.2176836 14.8626919,23.2243232 15.2572899,22.8379155 C15.2597874,22.8354699 15.262272,22.8330112 15.2647437,22.8305395 Z" id="Path" transform="translate(13.546487, 13.962114) rotate(33.000000) translate(-13.546487, -13.962114) "></path>
                    </g>
                </g>
                <g id="circle" transform="translate(120.446809, 91.319149)">
                    <circle id="Oval" fill="#FF7C00" cx="22.8297872" cy="22.8297872" r="22.8297872"></circle>
                    <path d="M19.4191057,28.6672283 C19.4370589,28.9903867 19.6524979,29.2596853 19.9397498,29.3674048 C20.029516,29.4033113 20.1192822,29.4212645 20.2090484,29.4212645 C20.4244873,29.4212645 20.6399262,29.3314983 20.8015054,29.1519659 L22.3813908,27.4105013 L25.3975356,29.5110307 C25.5411616,29.6007969 25.7027408,29.6546567 25.8822732,29.6546567 C26.2772446,29.6546567 26.6183562,29.3674048 26.7081224,28.9903867 L29.562688,15.5075011 C29.5985945,15.345922 29.5447348,15.1663895 29.4011088,15.0586701 C29.2754361,14.9509506 29.0959037,14.9329974 28.9343245,14.9868571 L13.0995641,21.9168089 C12.7764058,22.0604349 12.5789201,22.3835932 12.5968733,22.7426581 C12.6148266,23.101723 12.8482187,23.3889748 13.1893304,23.4966943 L19.2395733,25.3279251 L19.4191057,28.6672283 Z M20.3167679,28.3799764 L20.1910952,25.8844756 L21.6632611,26.9078105 L20.3167679,28.3799764 Z M25.86432,28.721088 L20.3706276,24.9329537 L28.3418675,16.9796671 L25.86432,28.721088 Z M27.3903456,16.6565087 L19.5447784,24.4841227 L13.5843017,22.6887984 L27.3903456,16.6565087 Z" id="Shape" stroke="#FFFFFF" stroke-width="0.5" fill="#FFFFFF" fill-rule="nonzero"></path>
                </g>
            </g>
        </g>
    </g>
</svg>