<?xml version="1.0" encoding="UTF-8"?>
<svg width="177px" height="177px" viewBox="0 0 177 177" version="1.1" xmlns="http://www.w3.org/2000/svg" xmlns:xlink="http://www.w3.org/1999/xlink">
    <title>8DF79D17-63CE-4076-B8E7-BEF7FFF46EAC</title>
    <g id="💻-Web-Pages" stroke="none" stroke-width="1" fill="none" fill-rule="evenodd">
        <g id="Accueil---aide" transform="translate(-510.000000, -210.000000)">
            <g id="Group-6" transform="translate(291.000000, 207.000000)">
                <g id="Cards/step-Copy" transform="translate(219.000000, 3.000000)">
                    <g id="img">
                        <g id="Group" transform="translate(88.500000, 88.500000) rotate(-45.000000) translate(-88.500000, -88.500000) translate(28.897959, 24.081633)" fill-rule="nonzero">
                            <polygon id="Path" fill="#FFB100" points="109.74344 55.2157434 106.64723 47.1311953 0 68.6326531 7.2244898 83.2536443 59.8600583 128.836735"></polygon>
                            <polygon id="Path" fill="#FFCB00" points="106.64723 47.1311953 80.845481 32.5102041 59.516035 11.180758 0 68.6326531 54.1836735 115.763848"></polygon>
                            <path d="M93.574344,46.9591837 L92.0262391,46.0991254 C92.1982507,45.755102 109.571429,16.8571429 106.303207,6.19241983 C105.959184,4.81632653 105.099125,3.78425656 103.895044,3.26822157 C93.2303207,-1.89212828 85.8338192,4.98833819 67.6005831,29.4139942 L66.2244898,28.3819242 C83.425656,5.33236152 92.3702624,-4.12827988 104.755102,1.72011662 C106.303207,2.40816327 107.507289,3.78425656 108.023324,5.67638484 C111.463557,17.0291545 94.2623907,45.755102 93.574344,46.9591837 Z" id="Path" fill="#FFCB00"></path>
                            <path d="M102.51895,47.6472303 L101.314869,46.4431487 C101.48688,46.271137 117.655977,28.2099125 116.96793,19.7813411 C116.96793,18.5772595 116.451895,17.7172012 115.763848,17.0291545 C106.991254,9.63265306 97.5306122,14.1049563 73.4489796,31.6501458 L72.4169096,30.2740525 C95.4664723,13.5889213 106.64723,7.05247813 116.795918,15.6530612 C118,16.6851312 118.516035,17.8892128 118.688047,19.6093294 C119.204082,28.8979592 103.206997,46.787172 102.51895,47.6472303 Z" id="Path" fill="#FFCB00"></path>
                        </g>
                        <g id="fact" transform="translate(73.000000, 27.000000)">
                            <path d="M69.2309539,75.270563 L24.5664578,81.2984544 C23.3318294,81.4800174 22.2061389,80.608515 22.0427322,79.3738866 L14.0358042,20.0391003 C13.8723975,18.8044719 14.7257436,17.6787814 15.9603719,17.5153747 L60.6248681,11.4874833 C61.8594964,11.3240766 62.985187,12.1774227 63.1485937,13.412051 L71.1555217,72.7468374 C71.3189284,73.9814657 70.4655823,75.1253126 69.2309539,75.270563 Z" id="Path-Copy" fill="#DEE4EC" fill-rule="nonzero" transform="translate(42.595663, 46.394919) rotate(15.000000) translate(-42.595663, -46.394919) "></path>
                            <path d="M63.2981443,70.7313663 L18.6336481,76.7592577 C17.3990198,76.9408207 16.2733292,76.0693184 16.1099225,74.83469 L8.10299457,15.4999037 C7.93958787,14.2652753 8.79293394,13.1395847 10.0275623,12.976178 L54.6920585,6.94828665 C55.9266868,6.78487996 57.0523774,7.63822603 57.2157841,8.87285439 L65.222712,68.2076407 C65.3861187,69.4422691 64.5327727,70.5861159 63.2981443,70.7313663 Z" id="Path-Copy" stroke="#C1C9CC" stroke-width="0.25" fill="#FFFFFF" fill-rule="nonzero" transform="translate(36.662853, 41.855723) rotate(15.000000) translate(-36.662853, -41.855723) "></path>
                            <path d="M44.5167666,43.5666386 L20.4415011,46.8033435 C19.2050071,46.9488134 18.0412481,46.0759941 17.8594107,44.8395001 C17.7139408,43.5666386 18.5867601,42.4392471 19.8232541,42.2574097 L43.8985196,39.0207048 C45.1350136,38.875235 46.2987726,39.7480542 46.48061,40.9845482 C46.6624473,42.2210422 45.7532606,43.3848013 44.5167666,43.5666386 Z" id="Path" fill="#DEE4EC" fill-rule="nonzero" transform="translate(32.173690, 42.912024) rotate(15.000000) translate(-32.173690, -42.912024) "></path>
                            <path d="M53.2803031,35.0981327 L22.0195818,39.1435526 C20.7830878,39.2890225 19.6193288,38.4162032 19.4374914,37.1797092 C19.2920215,35.9068477 20.1648408,34.7794561 21.4013348,34.5976188 L52.6620561,30.5521989 C53.8985501,30.406729 55.0623092,31.2795483 55.2441465,32.5160423 C55.4259839,33.7525363 54.5167971,34.9162954 53.2803031,35.0981327 Z" id="Path-Copy-2" fill="#DEE4EC" fill-rule="nonzero" transform="translate(37.344498, 34.847876) rotate(15.000000) translate(-37.344498, -34.847876) "></path>
                            <polygon id="Rectangle" fill="#893AE3" transform="translate(43.346939, 64.217687) rotate(7.000000) translate(-43.346939, -64.217687) " points="33.7142857 57.7959184 52.9795918 57.7959184 52.9795918 70.6394558 33.7142857 70.6394558"></polygon>
                            <text id="€" font-family="Montserrat-SemiBold, Montserrat" font-size="8" font-weight="500" letter-spacing="-0.133333333" fill="#FFFFFF">
                                <tspan x="38.9659808" y="66.3778378">€</tspan>
                            </text>
                        </g>
                        <g id="ticke" transform="translate(70.000000, 74.000000)">
                            <polygon id="Rectangle" stroke="#C1C9CC" stroke-width="0.25" fill="#FFFFFF" transform="translate(13.632653, 20.663265) rotate(-12.000000) translate(-13.632653, -20.663265) " points="4 2 23.2653061 2 23.2653061 39.3265306 4 39.3265306"></polygon>
                            <polygon id="Rectangle" fill="#DEE4EC" transform="translate(16.429731, 32.217941) rotate(-11.000000) translate(-16.429731, -32.217941) " points="8.85433853 28.7562114 23.9172389 28.4872478 24.0051241 35.6796711 8.94222382 35.9486347"></polygon>
                            <polygon id="Rectangle" fill="#FFFFFF" transform="translate(10.563087, 33.628469) rotate(-12.000000) translate(-10.563087, -33.628469) " points="10.0630865 29.2609791 11.0630865 29.2609791 11.024863 37.9959586 10.2855156 37.8388055"></polygon>
                            <polygon id="Rectangle-Copy" fill="#FFFFFF" transform="translate(12.500000, 33.367490) rotate(-12.000000) translate(-12.500000, -33.367490) " points="12 29 13 29 12.9617765 37.7349795 12.2224291 37.5778264"></polygon>
                            <polygon id="Rectangle-Copy-2" fill="#FFFFFF" transform="translate(14.500000, 33.367490) rotate(-12.000000) translate(-14.500000, -33.367490) " points="14 29 15 29 14.9617765 37.7349795 14.2224291 37.5778264"></polygon>
                            <polygon id="Rectangle-Copy-3" fill="#FFFFFF" transform="translate(19.500000, 32.367490) rotate(-12.000000) translate(-19.500000, -32.367490) " points="19 28 20 28 19.9617765 36.7349795 19.2224291 36.5778264"></polygon>
                            <polygon id="Rectangle-Copy-4" fill="#FFFFFF" transform="translate(20.500000, 31.367490) rotate(-12.000000) translate(-20.500000, -31.367490) " points="20 27 21 27 20.9617765 35.7349795 20.2224291 35.5778264"></polygon>
                            <polygon id="Rectangle-Copy-5" fill="#FFFFFF" transform="translate(21.500000, 31.367490) rotate(-12.000000) translate(-21.500000, -31.367490) " points="21 27 22 27 21.9617765 35.7349795 21.2224291 35.5778264"></polygon>
                        </g>
                        <path d="M108.112143,33.6905565 C107.630056,33.2311367 107.04863,33 106.379551,33 C105.716316,33 105.123203,33.2396973 104.617742,33.7105313 L99.2388179,38.7612956 C99.2388179,38.7612956 99.2358961,38.7641492 99.2358961,38.7641492 C98.4148871,39.5659937 98,40.4163483 98,41.2923849 C98,42.1826891 98.3213914,42.9474376 98.9612526,43.5695091 C99.6128006,44.1972878 100.404592,44.5140306 101.310332,44.5140306 C101.994019,44.5140306 102.610506,44.3314041 103.145185,43.9690046 C103.145185,43.9690046 103.148106,43.9661511 103.148106,43.9661511 C103.264976,43.8833985 103.62435,43.5466808 103.907759,43.2784481 C103.925289,43.2613269 103.939898,43.2442057 103.951585,43.2242309 L107.574543,39.588822 C107.688491,39.4746804 107.685569,39.2949074 107.568699,39.186473 C107.45183,39.0751849 107.26776,39.0780385 107.156734,39.19218 L103.48995,42.8675385 C103.475341,42.8818062 103.463654,42.8960739 103.454889,42.9103416 C102.931898,43.4068574 102.81795,43.4924636 102.806263,43.5010242 C102.373845,43.7949387 101.868384,43.9433228 101.30741,43.9433228 C100.550679,43.9433228 99.9166616,43.6865042 99.3702962,43.1643066 C98.8473047,42.6535231 98.5814263,42.0228909 98.5814263,41.2923849 C98.5814263,40.573293 98.9408004,39.8599082 99.6449398,39.1693517 L105.023864,34.1214409 C105.42122,33.7504808 105.865325,33.5707078 106.379551,33.5707078 C106.896699,33.5707078 107.329117,33.7447737 107.703099,34.0986126 C108.071239,34.4581585 108.252387,34.8804823 108.252387,35.3855588 C108.243621,35.8649533 108.080004,36.2644488 107.758613,36.6068735 L102.064141,42.2740024 C101.821636,42.5022855 101.535306,42.6192806 101.187619,42.6278412 C100.83701,42.6192806 100.556523,42.5022855 100.322784,42.2740024 C100.080279,42.0371586 99.9604877,41.7575118 99.9604877,41.4179406 C99.9604877,41.1354402 100.039375,40.90145 100.202992,40.7045558 C100.211757,40.6931416 100.220523,40.684581 100.226366,40.6731669 C100.243897,40.6417779 100.261427,40.6218032 100.281879,40.6018284 L104.541776,36.4128329 C104.655724,36.3015448 104.655724,36.1217719 104.541776,36.0104838 C104.427829,35.8991958 104.243759,35.8991958 104.129811,36.0104838 L99.8699138,40.1994794 C99.8202442,40.2479895 99.7793398,40.2993532 99.7384355,40.3621311 C99.4988528,40.6588992 99.3790614,41.012738 99.3790614,41.4179406 C99.3790614,41.9087493 99.5572876,42.3310731 99.9108181,42.6763514 C100.252662,43.0102155 100.679236,43.1842814 101.181775,43.1956955 C101.187619,43.1956955 101.19054,43.1956955 101.196384,43.1956955 C101.69308,43.1842814 102.122576,43.0102155 102.473184,42.6792049 C102.476106,42.6763514 102.476106,42.6763514 102.479028,42.6734978 L108.176421,37.0006619 C108.179343,36.9978084 108.179343,36.9978084 108.182265,36.9949549 C108.605917,36.5498027 108.825048,36.0104838 108.836735,35.3912658 C108.836735,35.3884123 108.836735,35.3884123 108.836735,35.3855588 C108.836735,34.7320983 108.59423,34.1613904 108.112143,33.6905565 C108.115065,33.69341 108.115065,33.6905565 108.112143,33.6905565 Z" id="Path" fill="#728393" fill-rule="nonzero" transform="translate(103.418367, 38.757015) rotate(-17.000000) translate(-103.418367, -38.757015) "></path>
                    </g>
                </g>
            </g>
        </g>
    </g>
</svg>