<?xml version="1.0" encoding="UTF-8"?>
<svg width="217px" height="123px" viewBox="0 0 217 123" version="1.1" xmlns="http://www.w3.org/2000/svg" xmlns:xlink="http://www.w3.org/1999/xlink">
    <title>BA87D9A8-4862-4680-A1FA-0B50E57BA8A7</title>
    <g id="💻-Web-Pages" stroke="none" stroke-width="1" fill="none" fill-rule="evenodd">
        <g id="Accueil---aide" transform="translate(-918.000000, -213.000000)">
            <g id="Group-6" transform="translate(291.000000, 207.000000)">
                <g id="Cards/step-Copy-3" transform="translate(628.000000, 6.000000)">
                    <g id="visuel">
                        <g id="confettis" transform="translate(0.000000, 10.000000)">
                            <g id="Group" transform="translate(46.000000, 15.842697)">
                                <polygon id="Rectangle" stroke="#E2C9FE" stroke-width="1.00003076" stroke-linecap="round" transform="translate(3.184337, 84.341640) rotate(-79.473261) translate(-3.184337, -84.341640) " points="1 82.1573034 5.36867372 82.1573034 5.36867372 86.5259771 1 86.5259771"></polygon>
                                <g transform="translate(1.000000, 0.000000)" fill-rule="nonzero">
                                    <path d="M54.9033708,63.3370787 C54.9033708,64.247191 54.1752809,65.0359551 53.2044944,65.0359551 C52.294382,65.0359551 51.505618,64.3078652 51.505618,63.3370787 C51.505618,62.4269663 52.2337079,61.6382022 53.2044944,61.6382022 C54.1146067,61.6382022 54.9033708,62.4269663 54.9033708,63.3370787 Z" id="Path" fill="#FFCB00" opacity="0.320661272"></path>
                                    <path d="M17.588764,2.31685393 C17.588764,3.22696629 16.8606742,3.95505618 15.9505618,3.95505618 C15.0404494,3.95505618 14.3123596,3.22696629 14.3123596,2.31685393 C14.3123596,1.40674157 15.0404494,0.678651685 15.9505618,0.678651685 C16.8606742,0.678651685 17.588764,1.40674157 17.588764,2.31685393 Z" id="Path" fill="#FFE6AC"></path>
                                    <path d="M2.35955056,12.8561798 C2.35955056,13.2808989 1.99550562,13.6449438 1.57078652,13.6449438 C1.14606742,13.6449438 0.782022472,13.2808989 0.782022472,12.8561798 C0.782022472,12.4314607 1.14606742,12.0674157 1.57078652,12.0674157 C1.99550562,12.0674157 2.35955056,12.4314607 2.35955056,12.8561798 Z" id="Path" fill="#893AE3" opacity="0.276390439"></path>
                                    <circle id="Oval" fill="#893AE3" opacity="0.276390439" cx="8.81348315" cy="47.6224719" r="1.51685393"></circle>
                                    <path d="M110.662921,30.9370787 C110.662921,31.7865169 109.995506,32.3932584 109.206742,32.3932584 C108.357303,32.3932584 107.750562,31.7258427 107.750562,30.9370787 C107.750562,30.0876404 108.417978,29.4808989 109.206742,29.4808989 C109.995506,29.4808989 110.662921,30.1483146 110.662921,30.9370787 Z" id="Path" fill="#893AE3" opacity="0.276390439"></path>
                                    <path d="M131.777528,51.3235955 C131.777528,52.5977528 130.746067,53.6292135 129.47191,53.6292135 C128.197753,53.6292135 127.166292,52.5977528 127.166292,51.3235955 C127.166292,50.0494382 128.197753,49.0179775 129.47191,49.0179775 C130.746067,49.0179775 131.777528,50.0494382 131.777528,51.3235955 Z" id="Path" fill="#893AE3" opacity="0.276390439"></path>
                                </g>
                            </g>
                            <g id="Group" transform="translate(29.916120, 64.097493) rotate(55.000000) translate(-29.916120, -64.097493) translate(8.680165, 43.164909)" stroke="#CED7DB" stroke-linecap="round">
                                <path d="M11.9300265,0.194807823 C12.1727232,2.0757067 10.2311501,2.74312243 8.89631866,1.95435839 C7.5614872,1.10492018 6.16598158,2.01503254 6.34800405,3.65323479 C6.59070068,5.29143704 4.58845349,5.95885277 3.31429618,5.35211119 C1.67609394,4.50267299 -0.144130782,5.17008872 0.0378916895,7.17233591" id="Path"></path>
                                <path d="M29.8522498,39.3709661 C29.1848341,37.2473706 31.1870813,35.6698425 32.7646094,36.0338875 C34.3421375,36.3979324 35.5556206,34.8204043 35.1309015,33.2428762 C34.7668566,31.6653482 36.465733,29.9664718 37.9825869,30.3305167 C39.4994408,30.6338875 40.2882049,29.0563594 40.1061824,28.146247" id="Path" transform="translate(34.926138, 33.758607) rotate(-33.000000) translate(-34.926138, -33.758607) "></path>
                            </g>
                            <g id="Group" transform="translate(109.719101, 0.000000)">
                                <path d="M93.1667982,50.1168539 C92.9241015,48.2359551 94.8656746,47.5685393 96.200506,48.3573034 C97.5353375,49.2067416 98.9308431,48.2966292 98.7488206,46.658427 C98.506124,44.9595506 100.508371,44.2921348 101.782528,44.9595506 C103.481405,45.8089888 105.240955,45.141573 105.058933,43.0786517" id="Path" stroke="#CED7DB" stroke-linecap="round"></path>
                                <polygon id="Rectangle" stroke="#CED7DB" stroke-width="0.999973165" stroke-linecap="round" transform="translate(10.715868, 11.658175) rotate(61.130718) translate(-10.715868, -11.658175) " points="9.56309026 10.5053972 11.8686464 10.5053972 11.8686464 12.8109533 9.56309026 12.8109533"></polygon>
                                <polygon id="Rectangle" stroke="#CED7DB" stroke-width="1.00003076" stroke-linecap="round" transform="translate(63.753151, 47.801140) rotate(100.526739) translate(-63.753151, -47.801140) " points="62.600307 46.6482953 64.9059959 46.6482953 64.9059959 48.9539842 62.600307 48.9539842"></polygon>
                                <polygon id="Rectangle" stroke="#CED7DB" stroke-width="1.0000057" stroke-linecap="round" transform="translate(23.815916, 78.491627) rotate(96.834354) translate(-23.815916, -78.491627) " points="22.4810773 77.1567881 25.1507555 77.1567881 25.1507555 79.8264663 22.4810773 79.8264663"></polygon>
                                <path d="M45.8202247,1.6988764 L44.8494382,1.6988764 L44.8494382,0.728089888 C44.8494382,0.303370787 44.5460674,0 44.1213483,0 C43.6966292,0 43.3932584,0.303370787 43.3932584,0.728089888 L43.3932584,1.6988764 L42.4224719,1.6988764 C41.9977528,1.6988764 41.694382,2.00224719 41.694382,2.42696629 C41.694382,2.85168539 41.9977528,3.15505618 42.4224719,3.15505618 L43.3932584,3.15505618 L43.3932584,4.1258427 C43.3932584,4.5505618 43.6966292,4.85393258 44.1213483,4.85393258 C44.5460674,4.85393258 44.8494382,4.5505618 44.8494382,4.1258427 L44.8494382,3.15505618 L45.8202247,3.15505618 C46.2449438,3.15505618 46.5483146,2.85168539 46.5483146,2.42696629 C46.5483146,2.00224719 46.2449438,1.6988764 45.8202247,1.6988764 Z" id="Path" fill="#FFB100" fill-rule="nonzero" opacity="0.326148624"></path>
                                <path d="M4.44044944,33.5640449 L3.46966292,33.5640449 L3.46966292,32.5932584 C3.46966292,32.1685393 3.16629213,31.8651685 2.74157303,31.8651685 C2.31685393,31.8651685 2.01348315,32.1685393 2.01348315,32.5932584 L2.01348315,33.5640449 L1.04269663,33.5640449 C0.617977528,33.5640449 0.314606742,33.8674157 0.314606742,34.2921348 C0.314606742,34.7168539 0.617977528,35.0202247 1.04269663,35.0202247 L2.01348315,35.0202247 L2.01348315,35.9910112 C2.01348315,36.4157303 2.31685393,36.7191011 2.74157303,36.7191011 C3.16629213,36.7191011 3.46966292,36.4157303 3.46966292,35.9910112 L3.46966292,35.0202247 L4.44044944,35.0202247 C4.86516854,35.0202247 5.16853933,34.7168539 5.16853933,34.2921348 C5.22921348,33.8674157 4.86516854,33.5640449 4.44044944,33.5640449 Z" id="Path" fill="#893AE3" fill-rule="nonzero" opacity="0.551757812"></path>
                            </g>
                        </g>
                        <g id="Group-5" transform="translate(71.000000, 52.000000)" fill="#B7C4D0" fill-rule="nonzero">
                            <g id="back-port" transform="translate(0.000000, 0.000000)">
                                <path d="M3.46067416,17.5011236 C1.28539326,17.9955056 -0.247191011,19.2808989 0.0494382022,20.3685393 C0.296629213,21.4561798 2.1752809,21.9505618 4.4,21.4067416 L13.9910112,61.6 C14.4853933,63.7752809 16.6606742,65.0606742 18.8359551,64.5662921 L86.1213483,48.5483146 C87.1595506,48.3011236 87.8022472,47.2629213 87.5550562,46.2247191 L76.9752809,1.97752809 C76.7280899,0.939325843 75.6898876,0.296629213 74.6516854,0.543820225 L3.46067416,17.5011236 Z" id="Path"></path>
                            </g>
                        </g>
                        <g id="ps" transform="translate(82.000000, 0.000000)" fill-rule="nonzero">
                            <g id="Group" transform="translate(10.000000, 0.000000)">
                                <g transform="translate(0.636364, 0.636364)">
                                    <g fill="#FF981A" id="Path">
                                        <path d="M10.7545455,10.5636364 C8.08181818,13.3636364 4.13636364,13.9363636 1.97272727,11.8363636 C-0.254545455,9.73636364 0.0636363636,5.79090909 2.73636364,2.99090909 C5.40909091,0.190909091 9.35454545,-0.381818182 11.5181818,1.71818182 C13.7454545,3.81818182 13.4272727,7.76363636 10.7545455,10.5636364 Z"></path>
                                        <path d="M9.8,9.60909091 C7.82727273,11.7090909 4.83636364,12.1545455 3.18181818,10.5636364 C1.52727273,8.97272727 1.78181818,5.98181818 3.75454545,3.88181818 C5.72727273,1.78181818 8.71818182,1.33636364 10.3727273,2.92727273 C12.0272727,4.51818182 11.7727273,7.50909091 9.8,9.60909091 Z"></path>
                                        <path d="M12.9818182,4.77272727 L0.7,6.49090909 C0.445454545,7.38181818 0.445454545,8.27272727 0.572727273,9.1 L12.6636364,7.38181818 C12.9818182,6.55454545 13.0454545,5.6 12.9818182,4.77272727 Z"></path>
                                        <path d="M9.8,9.60909091 C7.82727273,11.7090909 4.83636364,12.1545455 3.18181818,10.5636364 C1.52727273,8.97272727 1.78181818,5.98181818 3.75454545,3.88181818 C5.72727273,1.78181818 8.71818182,1.33636364 10.3727273,2.92727273 C12.0272727,4.51818182 11.7727273,7.50909091 9.8,9.60909091 Z"></path>
                                    </g>
                                    <g>
                                        <path d="M8.65454545,8.59090909 C6.68181818,10.6909091 3.69090909,11.1363636 2.03636364,9.54545455 C0.318181818,7.95454545 0.572727273,4.96363636 2.60909091,2.86363636 C4.64545455,0.763636364 7.57272727,0.318181818 9.22727273,1.90909091 C10.8818182,3.5 10.6272727,6.42727273 8.65454545,8.59090909 Z" id="Path" fill="#FFC21A"></path>
                                        <path d="M1.65454545,9.86363636 C-0.254545455,8.08181818 -1.66533454e-16,4.77272727 2.22727273,2.48181818 C4.39090909,0.190909091 7.7,-0.254545455 9.60909091,1.52727273 C11.5181818,3.30909091 11.2636364,6.61818182 9.03636364,8.90909091 C6.80909091,11.2 3.56363636,11.6454545 1.65454545,9.86363636 Z M9.1,2.03636364 C7.50909091,0.572727273 4.70909091,1.01818182 2.73636364,3.05454545 C0.827272727,5.09090909 0.509090909,7.95454545 2.1,9.41818182 C3.69090909,10.8818182 6.49090909,10.4363636 8.46363636,8.4 C10.3727273,6.36363636 10.6909091,3.5 9.1,2.03636364 Z" id="Shape" fill="#FF981A"></path>
                                    </g>
                                </g>
                                <path d="M10.3090909,10.1181818 C7.63636364,12.9181818 3.69090909,13.4909091 1.52727273,11.3909091 C-0.7,9.29090909 -0.381818182,5.34545455 2.29090909,2.54545455 C4.96363636,-0.254545455 8.90909091,-0.827272727 11.0727273,1.27272727 C13.2363636,3.37272727 12.9181818,7.31818182 10.3090909,10.1181818 Z" id="Path" fill="#FFC21A"></path>
                            </g>
                            <g id="Group" transform="translate(0.000000, 26.000000)">
                                <g transform="translate(0.000000, 1.000000)">
                                    <g fill="#FF981A" id="Path">
                                        <path d="M5.1,13.5 C1.2,11.2 -0.4,6.8 1.5,3.7 C3.4,0.6 8,0.1 11.9,2.4 C15.8,4.7 17.4,9.1 15.5,12.2 C13.6,15.3 9,15.9 5.1,13.5 Z"></path>
                                        <path d="M5.9,12.2 C3,10.4 1.8,7.1 3.2,4.8 C4.6,2.5 8.1,2.1 11,3.8 C13.9,5.6 15.1,8.9 13.7,11.2 C12.3,13.5 8.8,13.9 5.9,12.2 Z"></path>
                                        <path d="M12.3,14.6 L7.3,1 C6.2,1 5.2,1.1 4.3,1.5 L9.2,14.9 C10.3,15 11.3,14.9 12.3,14.6 Z"></path>
                                        <path d="M5.9,12.2 C3,10.4 1.8,7.1 3.2,4.8 C4.6,2.5 8.1,2.1 11,3.8 C13.9,5.6 15.1,8.9 13.7,11.2 C12.3,13.5 8.8,13.9 5.9,12.2 Z"></path>
                                    </g>
                                    <g transform="translate(3.000000, 0.000000)">
                                        <path d="M3.9,10.6 C1,8.8 -0.2,5.5 1.2,3.2 C2.6,0.9 6.1,0.5 9,2.2 C11.9,4 13.1,7.3 11.7,9.6 C10.3,11.9 6.8,12.4 3.9,10.6 Z" id="Path" fill="#FFC21A"></path>
                                        <path d="M0.7,2.9 C2.3,0.3 6.1,-0.2 9.3,1.7 C12.5,3.6 13.8,7.3 12.2,9.9 C10.6,12.5 6.8,13 3.6,11.1 C0.4,9.2 -0.9,5.5 0.7,2.9 Z M11.5,9.5 C12.8,7.3 11.6,4.2 8.8,2.5 C6,0.8 2.6,1.2 1.3,3.3 C1.14491749e-16,5.5 1.2,8.6 4,10.3 C6.8,12.1 10.2,11.7 11.5,9.5 Z" id="Shape" fill="#FF981A"></path>
                                    </g>
                                </g>
                                <path d="M6.1,13 C2.2,10.7 0.6,6.3 2.5,3.2 C4.4,0.1 9,-0.4 12.9,1.9 C16.8,4.2 18.4,8.6 16.5,11.7 C14.5,14.7 9.9,15.3 6.1,13 Z" id="Path" fill="#FFC21A"></path>
                            </g>
                            <g id="Group" transform="translate(32.000000, 28.000000)">
                                <g transform="translate(0.000000, 1.000000)">
                                    <g fill="#FF981A" id="Path">
                                        <path d="M7.7,8.8 C5.1,10.1 2.1,9.5 1.1,7.5 C2.22044605e-16,5.4 1.3,2.7 3.9,1.3 C6.5,0 9.5,0.6 10.5,2.6 C11.6,4.7 10.3,7.5 7.7,8.8 Z"></path>
                                        <path d="M7.2,7.9 C5.2,8.9 3,8.5 2.2,6.9 C1.4,5.3 2.3,3.3 4.3,2.3 C6.3,1.3 8.5,1.7 9.3,3.3 C10.1,4.8 9.2,6.9 7.2,7.9 Z"></path>
                                        <path d="M10.8,5.2 L1.6,3.3 C1.2,3.9 0.9,4.5 0.8,5.1 L9.9,6.9 C10.3,6.5 10.6,5.8 10.8,5.2 Z"></path>
                                        <path d="M7.2,7.9 C5.2,8.9 3,8.5 2.2,6.9 C1.4,5.3 2.3,3.3 4.3,2.3 C6.3,1.3 8.5,1.7 9.3,3.3 C10.1,4.8 9.2,6.9 7.2,7.9 Z"></path>
                                    </g>
                                    <g>
                                        <path d="M6.7,6.8 C4.7,7.8 2.5,7.4 1.7,5.8 C0.9,4.2 1.8,2.2 3.8,1.2 C5.8,0.2 8,0.6 8.8,2.2 C9.6,3.8 8.7,5.8 6.7,6.8 Z" id="Path" fill="#FFC21A"></path>
                                        <path d="M1.3,6 C0.4,4.2 1.4,1.9 3.6,0.8 C5.8,-0.3 8.2,0.2 9.1,2 C10,3.8 9,6.1 6.8,7.2 C4.7,8.3 2.2,7.8 1.3,6 Z M8.7,2.2 C8,0.7 5.8,0.3 3.9,1.3 C2,2.3 1.1,4.3 1.8,5.7 C2.5,7.2 4.7,7.6 6.6,6.6 C8.5,5.7 9.4,3.7 8.7,2.2 Z" id="Shape" fill="#FF981A"></path>
                                    </g>
                                </g>
                                <path d="M7.2,8.8 C4.6,10.1 1.6,9.5 0.6,7.5 C-0.5,5.4 0.8,2.7 3.4,1.3 C6,0 9,0.6 10,2.6 C11,4.7 9.8,7.4 7.2,8.8 Z" id="Path" fill="#FFC21A"></path>
                            </g>
                        </g>
                        <g id="p" transform="translate(84.000000, 54.000000)" fill-rule="nonzero">
                            <g id="Group" transform="translate(0.000000, 2.268293)">
                                <g fill="#FF981A">
                                    <ellipse id="Oval" transform="translate(15.179090, 13.733446) rotate(-64.539365) translate(-15.179090, -13.733446) " cx="15.1790895" cy="13.7334461" rx="9.37580861" ry="11.7953721"></ellipse>
                                    <path d="M12.097561,20.1121951 C7.63658537,17.995122 5.44390244,13.4585366 7.10731707,9.90487805 C8.84634146,6.42682927 13.7609756,5.29268293 18.2219512,7.4097561 C22.6829268,9.52682927 24.8756098,14.0634146 23.2121951,17.6170732 C21.4731707,21.095122 16.5585366,22.2292683 12.097561,20.1121951 Z" id="Path"></path>
                                    <path d="M21.6243902,22.7585366 L12.4,3.93170732 C10.8121951,4.00731707 9.37560976,4.38536585 8.0902439,5.06585366 L17.1634146,23.5902439 C18.8268293,23.5902439 20.3390244,23.2878049 21.6243902,22.7585366 Z" id="Path"></path>
                                    <path d="M12.097561,20.1121951 C7.63658537,17.995122 5.44390244,13.4585366 7.10731707,9.90487805 C8.84634146,6.42682927 13.7609756,5.29268293 18.2219512,7.4097561 C22.6829268,9.52682927 24.8756098,14.0634146 23.2121951,17.6170732 C21.4731707,21.095122 16.5585366,22.2292683 12.097561,20.1121951 Z" id="Path"></path>
                                </g>
                                <g transform="translate(6.804878, 3.024390)">
                                    <path d="M6.50243902,14.7439024 C2.04146341,12.6268293 -0.226829268,8.0902439 1.51219512,4.53658537 C3.17560976,0.982926829 8.16585366,-0.151219512 12.5512195,1.96585366 C16.9365854,4.08292683 19.204878,8.6195122 17.5414634,12.1731707 C15.802439,15.6512195 10.8878049,16.8609756 6.50243902,14.7439024 Z" id="Path" fill="#FFC21A"></path>
                                    <path d="M0.680487805,4.15853659 C2.57073171,0.226829268 8.01463415,-1.13414634 12.9292683,1.2097561 C17.7682927,3.55365854 20.1878049,8.6195122 18.297561,12.5512195 C16.4073171,16.4829268 10.9634146,17.8439024 6.04878049,15.5 C1.2097561,13.2317073 -1.2097561,8.0902439 0.680487805,4.15853659 Z M17.2390244,12.0219512 C18.8268293,8.69512195 16.6341463,4.38536585 12.3243902,2.34390244 C8.01463415,0.302439024 3.32682927,1.36097561 1.73902439,4.61219512 C0.151219512,7.93902439 2.34390244,12.3243902 6.65365854,14.3658537 C10.9634146,16.4073171 15.6512195,15.3487805 17.2390244,12.0219512 Z" id="Shape" fill="#FF981A"></path>
                                </g>
                            </g>
                            <ellipse id="Oval" fill="#FFC21A" transform="translate(16.284451, 13.604206) rotate(-64.534192) translate(-16.284451, -13.604206) " cx="16.2844512" cy="13.6042063" rx="9.3762117" ry="11.7958792"></ellipse>
                        </g>
                        <g id="billet" transform="translate(114.177251, 76.076300) rotate(-25.000000) translate(-114.177251, -76.076300) translate(84.677251, 43.076300)" fill="#FF7C00" fill-rule="nonzero">
                            <polygon id="Rectangle" transform="translate(34.690514, 36.534430) rotate(-63.619168) translate(-34.690514, -36.534430) " points="9.31534499 22.4484549 60.0656835 22.4484549 60.0656835 50.6204047 9.31534499 50.6204047"></polygon>
                        </g>
                        <g id="front-port" transform="translate(71.049438, 57.286420)" fill-rule="nonzero">
                            <path d="M4.3505618,16.1203216 C0.296629213,16.960771 -1.73688224e-13,15.0821193 -1.73688224e-13,15.0821193 L0.44494382,17.0102092 C0.44494382,17.0102092 8.65168539,51.5180744 11.4202247,63.0371755 C11.6179775,63.8776249 13.2,64.6686362 15.7707865,64.0753777 L83.0561798,48.0574002 C84.094382,47.8102092 84.7370787,46.7720069 84.4898876,45.7338047 L73.9595506,1.48661369 C73.7123596,0.448411443 72.6741573,-0.194285186 71.6359551,0.0529058253 L4.3505618,16.1203216 Z" id="Path" stroke="#728393" stroke-width="0.25" fill="#E9EDF2"></path>
                            <path d="M80.6831461,16.5652654 C81.6719101,16.3180744 81.5235955,15.8731305 81.5235955,15.8731305 L81.6224719,16.3675126 C81.6224719,16.3675126 83.6494382,24.9203216 84.341573,27.7382991 C84.3910112,27.9360519 84.1438202,28.2821193 83.5011236,28.4304339 L60.0179775,34.0169508 C56.7550562,34.807962 53.4426966,32.7809957 52.6516854,29.5180744 L52.6516854,29.5180744 C51.8606742,26.255153 53.8876404,22.9427935 57.2,22.1517822 L80.6831461,16.5652654 Z" id="Path" fill="#893AE3"></path>
                            <circle id="Oval" fill="#E2C9FE" transform="translate(58.089113, 28.232230) rotate(-1.385462) translate(-58.089113, -28.232230) " cx="58.089113" cy="28.2322298" r="4.00446371"></circle>
                        </g>
                    </g>
                </g>
            </g>
        </g>
    </g>
</svg>