<?xml version="1.0" encoding="UTF-8"?>
<svg width="22px" height="23px" viewBox="0 0 22 23" version="1.1" xmlns="http://www.w3.org/2000/svg" xmlns:xlink="http://www.w3.org/1999/xlink">
    <title>C1D797CD-56DF-4742-8EAB-4C587C940EAC</title>
    <defs>
        <path d="M10,0.859017857 C4.48571429,0.859017857 0,5.34473214 0,10.8590179 C0,13.686875 1.185,16.2383036 3.07785714,18.0590179 C3.08357143,18.0647321 3.08571429,18.0733036 3.09142857,18.0783036 C3.14928571,18.1333036 3.21214286,18.1804464 3.27071429,18.2347321 C3.43071429,18.3811607 3.59142857,18.5254464 3.76142857,18.6611607 C3.85214286,18.7340179 3.94642857,18.7997321 4.03928571,18.8690179 C4.19928571,18.9883036 4.35928571,19.1075893 4.52642857,19.2175893 C4.64,19.291875 4.75714286,19.3583036 4.87285714,19.4283036 C5.02714286,19.5211607 5.18071429,19.6154464 5.34071429,19.6997321 C5.475,19.7711607 5.61357143,19.8325893 5.75071429,19.8975893 C5.9,19.9683036 6.04857143,20.0411607 6.20214286,20.1047321 C6.35428571,20.1675893 6.51071429,20.2197321 6.66571429,20.2747321 C6.81214286,20.326875 6.95642857,20.3825893 7.10571429,20.4275893 C7.27428571,20.4790179 7.44714286,20.5175893 7.61857143,20.5597321 C7.76071429,20.5947321 7.9,20.6347321 8.04428571,20.6633036 C8.24142857,20.7025893 8.44142857,20.7275893 8.64142857,20.7547321 C8.765,20.771875 8.88571429,20.7954464 9.01,20.8083036 C9.33714286,20.8411607 9.66714286,20.8590179 10,20.8590179 C10.3328571,20.8590179 10.6628571,20.8411607 10.99,20.8090179 C11.1142857,20.796875 11.2357143,20.7725893 11.3585714,20.7554464 C11.5585714,20.7283036 11.7585714,20.7033036 11.9557143,20.6640179 C12.1,20.6354464 12.2392857,20.5954464 12.3814286,20.5604464 C12.5528571,20.5183036 12.7257143,20.4797321 12.8942857,20.4283036 C13.0435714,20.3833036 13.1878571,20.3275893 13.3342857,20.2754464 C13.4892857,20.2204464 13.6457143,20.1683036 13.7978571,20.1054464 C13.9514286,20.041875 14.0992857,19.9690179 14.2492857,19.8983036 C14.3864286,19.8333036 14.525,19.771875 14.6592857,19.7004464 C14.8192857,19.6161607 14.9721429,19.521875 15.1271429,19.4290179 C15.2428571,19.3590179 15.3607143,19.2925893 15.4735714,19.2183036 C15.6407143,19.1083036 15.8007143,18.9890179 15.9607143,18.8697321 C16.0535714,18.8004464 16.1478571,18.7347321 16.2385714,18.661875 C16.4078571,18.5261607 16.5685714,18.3811607 16.7292857,18.2354464 C16.7878571,18.181875 16.8514286,18.1347321 16.9085714,18.0790179 C16.9142857,18.0733036 16.9164286,18.0654464 16.9221429,18.0597321 C18.815,16.2383036 20,13.686875 20,10.8590179 C20,5.34473214 15.5142857,0.859017857 10,0.859017857 Z M11.4,10.476875 C11.3964286,10.4790179 11.3914286,10.4790179 11.3878571,10.4811607 C11.1928571,10.5911607 10.9928571,10.6725893 10.7907143,10.7340179 C10.7535714,10.7447321 10.7178571,10.7590179 10.68,10.7683036 C10.6071429,10.7875893 10.5335714,10.7997321 10.46,10.8125893 C10.3221429,10.8347321 10.1835714,10.8533036 10.04,10.8547321 C10.0128571,10.8554464 9.98571429,10.8554464 9.95928571,10.8547321 C9.81571429,10.8525893 9.67714286,10.8347321 9.53928571,10.8125893 C9.46571429,10.7997321 9.39214286,10.7875893 9.31928571,10.7683036 C9.28142857,10.7590179 9.24571429,10.7447321 9.20857143,10.7340179 C9.00642857,10.6725893 8.80571429,10.5911607 8.61142857,10.4811607 C8.60785714,10.4790179 8.60285714,10.4790179 8.59928571,10.476875 C7.73428571,9.98544643 7.14285714,9.06616071 7.14285714,8.001875 C7.14285714,6.42616071 8.42428571,5.14473214 10,5.14473214 C11.5757143,5.14473214 12.8571429,6.42616071 12.8571429,8.001875 C12.8571429,9.06616071 12.2657143,9.98544643 11.4,10.476875 Z M8.18071429,11.876875 C8.73357143,12.1375893 9.34928571,12.2875893 10,12.2875893 C10.6507143,12.2875893 11.2664286,12.1375893 11.8192857,11.876875 C14.1078571,12.6461607 15.6885714,14.8025893 15.7128571,17.2311607 C15.6828571,17.2575893 15.6542857,17.2854464 15.6242857,17.311875 C15.4935714,17.4261607 15.36,17.5347321 15.2235714,17.6397321 C15.1435714,17.7011607 15.0635714,17.761875 14.9814286,17.8204464 C14.8521429,17.9133036 14.7207143,18.001875 14.5871429,18.0875893 C14.49,18.1497321 14.3907143,18.2097321 14.2907143,18.2675893 C14.165,18.3411607 14.0371429,18.411875 13.9078571,18.4783036 C13.7935714,18.536875 13.6771429,18.5925893 13.56,18.6461607 C13.4364286,18.7025893 13.3128571,18.7583036 13.1871429,18.8090179 C13.0578571,18.8611607 12.9264286,18.9075893 12.7942857,18.9533036 C12.6735714,18.9954464 12.5528571,19.0375893 12.43,19.0740179 C12.2857143,19.116875 12.1378571,19.151875 11.99,19.1875893 C11.8742857,19.2154464 11.76,19.2454464 11.6428571,19.2683036 C11.4735714,19.3011607 11.3007143,19.3240179 11.1271429,19.346875 C11.0285714,19.3597321 10.9307143,19.3783036 10.8307143,19.3875893 C10.5585714,19.4147321 10.2807143,19.4304464 10,19.4304464 C9.71928571,19.4304464 9.44142857,19.4147321 9.16714286,19.3883036 C9.06785714,19.3783036 8.97,19.3604464 8.87071429,19.3475893 C8.69785714,19.3247321 8.525,19.301875 8.355,19.2690179 C8.23785714,19.2461607 8.12357143,19.2154464 8.00785714,19.1883036 C7.86,19.1533036 7.71285714,19.1175893 7.56785714,19.0747321 C7.445,19.0383036 7.325,18.9954464 7.20357143,18.9540179 C7.07142857,18.9083036 6.94,18.861875 6.81071429,18.8097321 C6.685,18.7590179 6.56142857,18.7033036 6.43785714,18.646875 C6.32071429,18.5933036 6.20428571,18.5383036 6.09,18.4790179 C5.96071429,18.4125893 5.83357143,18.341875 5.70714286,18.2683036 C5.60714286,18.2104464 5.50785714,18.1504464 5.41071429,18.0883036 C5.27857143,18.001875 5.14714286,17.9133036 5.01785714,17.8197321 C4.93571429,17.7611607 4.85571429,17.7004464 4.77571429,17.6390179 C4.63928571,17.5340179 4.50571429,17.4247321 4.375,17.3111607 C4.345,17.2847321 4.31571429,17.256875 4.28642857,17.2304464 C4.31142857,14.8025893 5.89142857,12.6454464 8.18071429,11.876875 Z M16.9814286,15.8140179 C16.5271429,13.6847321 15.1135714,11.8597321 13.1564286,10.8904464 C13.8557143,10.1275893 14.2857143,9.11544643 14.2857143,8.001875 C14.2857143,5.63830357 12.3635714,3.71616071 10,3.71616071 C7.63642857,3.71616071 5.71428571,5.63830357 5.71428571,8.001875 C5.71428571,9.11544643 6.14428571,10.1275893 6.84285714,10.8904464 C4.88571429,11.8590179 3.47214286,13.6847321 3.01785714,15.8140179 C2.02142857,14.4133036 1.42857143,12.7054464 1.42857143,10.8590179 C1.42857143,6.13258929 5.27357143,2.28758929 10,2.28758929 C14.7264286,2.28758929 18.5714286,6.13258929 18.5714286,10.8590179 C18.5714286,12.7054464 17.9785714,14.4133036 16.9814286,15.8140179 Z" id="path-1"></path>
    </defs>
    <g id="💻-Web-Pages" stroke="none" stroke-width="1" fill="none" fill-rule="evenodd">
        <g id="Je-participe---infos-perso" transform="translate(-368.000000, -142.000000)">
            <g id="Bars/Steps" transform="translate(229.000000, -1046.000000)">
                <g id="Icons/Steps/personal_info" transform="translate(138.000000, 1187.000000)">
                    <g id="Group" transform="translate(2.000000, 1.140982)">
                        <mask id="mask-2" fill="white">
                            <use xlink:href="#path-1"></use>
                        </mask>
                        <use id="Shape" stroke="#893AE3" stroke-width="0.5" fill-rule="nonzero" xlink:href="#path-1"></use>
                        <g id="Colors/Purple" mask="url(#mask-2)" fill="#893AE3">
                            <g transform="translate(-106.000000, -98.000000)" id="Rectangle">
                                <rect x="0" y="0" width="246" height="212"></rect>
                            </g>
                        </g>
                    </g>
                </g>
            </g>
        </g>
    </g>
</svg>