<?xml version="1.0" encoding="UTF-8"?>
<svg width="15px" height="19px" viewBox="0 0 15 19" version="1.1" xmlns="http://www.w3.org/2000/svg" xmlns:xlink="http://www.w3.org/1999/xlink">
    <title>4FC3C9CD-4BA2-4717-A5AD-623C01683C4F</title>
    <defs>
        <path d="M5.30017049,12.2795262 C6.60487069,12.1743822 7.91557082,12.1743822 9.22027102,12.2795262 C9.9307507,12.3209423 10.6378603,12.4098197 11.3371253,12.5455961 C12.8502841,12.8519795 13.8381494,13.3518683 14.2615203,14.1581406 C14.5794932,14.7874009 14.5794932,15.5364981 14.2615203,16.1657585 C13.8381494,16.9720307 12.8894851,17.5041704 11.3214449,17.7783029 C10.6227283,17.9191977 9.91546022,18.0107889 9.20459061,18.0524355 C8.54601373,18.125 7.88743684,18.125 7.22101975,18.125 L7.22101975,18.125 L6.02146899,18.125 C5.77058256,18.0927491 5.52753632,18.0766237 5.29233029,18.0766237 C4.58143714,18.040057 3.87400664,17.9511392 3.17547601,17.8105538 C1.66231721,17.5202958 0.674451879,17.0042816 0.251081023,16.1980093 C0.0876445224,15.885682 0.00148088643,15.5367835 9.44473956e-05,15.1821063 C-0.00321203041,14.8252674 0.0803458236,14.4732341 0.243240822,14.1581406 C0.658771477,13.3518683 1.64663681,12.8277914 3.17547601,12.5455961 C3.87708481,12.4078801 4.58692741,12.3189884 5.30017049,12.2795262 Z M7.25238055,-1.05693232e-13 C9.8807048,-1.05693232e-13 12.0113826,2.1911509 12.0113826,4.89407251 C12.0113826,7.59699412 9.8807048,9.78814502 7.25238055,9.78814502 C4.62405631,9.78814502 2.49337852,7.59699412 2.49337852,4.89407251 C2.49337852,2.1911509 4.62405631,-1.05693232e-13 7.25238055,-1.05693232e-13 Z" id="path-1"></path>
    </defs>
    <g id="💻-Web-Pages" stroke="none" stroke-width="1" fill="none" fill-rule="evenodd">
        <g id="Mon-espace---mes-infos" transform="translate(-804.000000, -24.000000)">
            <g id="Bars/Menu">
                <g id="active">
                    <g transform="translate(804.000000, 24.000000)">
                        <g id="Icons/Menu/Account">
                            <mask id="mask-2" fill="white">
                                <use xlink:href="#path-1"></use>
                            </mask>
                            <use id="Profile" fill="#200E32" fill-rule="nonzero" xlink:href="#path-1"></use>
                            <g id="Colors/Purple" mask="url(#mask-2)" fill="#FF7C00">
                                <g transform="translate(-112.000000, -94.000000)" id="Rectangle">
                                    <rect x="0" y="0" width="247" height="212"></rect>
                                </g>
                            </g>
                        </g>
                    </g>
                </g>
            </g>
        </g>
    </g>
</svg>