<?xml version="1.0" encoding="UTF-8"?>
<svg width="23px" height="22px" viewBox="0 0 23 22" version="1.1" xmlns="http://www.w3.org/2000/svg" xmlns:xlink="http://www.w3.org/1999/xlink">
    <title>9A563B19-91EB-4515-8BA6-703CE4AF386A</title>
    <g id="💻-Web-Pages" stroke="none" stroke-width="1" fill="none" fill-rule="evenodd" stroke-linecap="round" stroke-linejoin="round">
        <g id="Je-participe---infos-perso" transform="translate(-608.000000, -483.000000)" stroke="#728393" stroke-width="1.5">
            <g id="date" transform="translate(367.000000, 441.000000)">
                <g id="Icons/Calendar" transform="translate(239.328470, 40.659021)">
                    <g id="Calendar" transform="translate(3.888889, 3.000000)">
                        <line x1="0.0943556232" y1="6.78723404" x2="18.2483775" y2="6.78723404" id="Line_200"></line>
                        <line x1="13.6910009" y1="10.3672183" x2="13.7004365" y2="10.3672183" id="Line_201"></line>
                        <line x1="9.17136657" y1="10.3672183" x2="9.18080213" y2="10.3672183" id="Line_202"></line>
                        <line x1="4.64229666" y1="10.3672183" x2="4.65173222" y2="10.3672183" id="Line_203"></line>
                        <line x1="13.6910009" y1="13.929866" x2="13.7004365" y2="13.929866" id="Line_204"></line>
                        <line x1="9.17136657" y1="13.929866" x2="9.18080213" y2="13.929866" id="Line_205"></line>
                        <line x1="4.64229666" y1="13.929866" x2="4.65173222" y2="13.929866" id="Line_206"></line>
                        <line x1="13.2852717" y1="-2.07611706e-14" x2="13.2852717" y2="3.01654846" id="Line_207"></line>
                        <line x1="5.0574614" y1="-2.07611706e-14" x2="5.0574614" y2="3.01654846" id="Line_208"></line>
                        <path d="M13.4834186,1.44759653 L4.85931459,1.44759653 C1.86824134,1.44759653 0,2.94720252 0,5.7037037 L0,13.999212 C0,16.7990544 1.86824134,18.3333333 4.85931459,18.3333333 L13.473983,18.3333333 C16.4744918,18.3333333 18.3333333,16.8250591 18.3333333,14.0685579 L18.3333333,5.7037037 C18.3427331,2.94720252 16.4839274,1.44759653 13.4834186,1.44759653 Z" id="Path"></path>
                    </g>
                </g>
            </g>
        </g>
    </g>
</svg>