<?xml version="1.0" encoding="UTF-8"?>
<svg width="5px" height="9px" viewBox="0 0 5 9" version="1.1" xmlns="http://www.w3.org/2000/svg" xmlns:xlink="http://www.w3.org/1999/xlink">
    <title>78EA8AA4-E0A9-43FB-96C1-9D4B2C975244</title>
    <g id="💻-Web-Pages" stroke="none" stroke-width="1" fill="none" fill-rule="evenodd">
        <g id="Je-participe---infos-perso" transform="translate(-370.000000, -1190.000000)" fill="#893AE3">
            <g id="Bars/Steps/Next" transform="translate(229.000000, 1163.218942)">
                <g id="Group" transform="translate(133.000000, 19.000000)">
                    <g id="Icons/Back">
                        <path d="M12.7835598,9.06650132 L9.56889598,11.9187693 L12.7835598,14.7710373 C12.9109588,14.88343 12.9884017,15.0418953 12.9987999,15.2114669 C13.0091982,15.3810384 12.9516972,15.5477786 12.838985,15.6748951 C12.7158255,15.8109681 12.5407439,15.8884379 12.3572118,15.8881356 C12.1996409,15.8903795 12.0471358,15.8324276 11.9308638,15.7260568 L8.17900156,12.3962791 L8.1491572,12.3664347 L8.12357632,12.3664347 C8.10891788,12.3493253 8.09605967,12.3307523 8.085205,12.3110095 L8.05109716,12.2598477 L8.02551629,12.200159 C8.02551629,12.200159 8.02551629,12.1617877 8.00419889,12.1447338 L8.00419889,12.085045 C8.00211757,12.0637784 8.00211757,12.0423594 8.00419889,12.0210928 C7.99860037,11.9814973 7.99860037,11.941311 8.00419889,11.9017154 C8.00211757,11.8804488 8.00211757,11.8590298 8.00419889,11.8377632 L8.00419889,11.7780745 C8.00419889,11.7780745 8.00419889,11.7397032 8.02551629,11.7226493 L8.05109716,11.6629605 C8.06096044,11.6449493 8.0723728,11.6278307 8.085205,11.6117988 C8.09605967,11.592056 8.10891788,11.573483 8.12357632,11.5563735 L8.12357632,11.5350561 C8.13516236,11.5198051 8.14799706,11.5055443 8.16194764,11.4924213 L11.9180734,8.16264359 C12.1817947,7.92717811 12.5864656,7.950084 12.8219311,8.21380535 C13.0573966,8.4775267 13.0344907,8.88219759 12.7707693,9.11766308 L12.7835598,9.06650132 Z" id="Path"></path>
                    </g>
                </g>
            </g>
        </g>
    </g>
</svg>