<?xml version="1.0" encoding="UTF-8"?>
<svg width="14px" height="14px" viewBox="0 0 14 14" version="1.1" xmlns="http://www.w3.org/2000/svg" xmlns:xlink="http://www.w3.org/1999/xlink">
    <title>70997593-AD58-47AE-9C49-638DED742744</title>
    <defs>
        <path d="M8.09076087,7.0029325 L13.7785492,1.31514415 C14.0738169,1.01987644 14.0738169,0.538123879 13.7785492,0.227315772 C13.4832815,-0.0834923342 13.001529,-0.0679519289 12.6907209,0.227315772 L7.0029325,5.91510412 L1.31514415,0.227315772 C1.01987644,-0.0679519289 0.538123879,-0.0679519289 0.227315772,0.227315772 C-0.0834923342,0.522583474 -0.0679519289,1.00433604 0.227315772,1.31514415 L5.91510412,7.0029325 L0.227315772,12.6907209 C-0.0679519289,12.9859886 -0.0679519289,13.4677411 0.227315772,13.7785492 C0.382719826,13.9339533 0.56920469,13.9961149 0.771229959,13.9961149 C0.973255229,13.9961149 1.15974009,13.9184129 1.31514415,13.7785492 L7.0029325,8.09076087 L12.6907209,13.7785492 C12.8461249,13.9339533 13.0326098,13.9961149 13.234635,13.9961149 C13.4366603,13.9961149 13.6231452,13.9184129 13.7785492,13.7785492 C14.0738169,13.4832815 14.0738169,13.001529 13.7785492,12.6907209 L8.09076087,7.0029325 Z" id="path-1"></path>
    </defs>
    <g id="💻-Web-Pages" stroke="none" stroke-width="1" fill="none" fill-rule="evenodd">
        <g id="Accueil---aide" transform="translate(-1283.000000, -105.000000)">
            <g id="close" transform="translate(1271.000000, 100.000000)">
                <g id="Icons/Close" transform="translate(12.000000, 5.000000)">
                    <mask id="mask-2" fill="white">
                        <use xlink:href="#path-1"></use>
                    </mask>
                    <use id="Path" fill="#ffffff" fill-rule="nonzero" xlink:href="#path-1"></use>
                </g>
            </g>
        </g>
    </g>
</svg>
