<?xml version="1.0" encoding="UTF-8"?>
<svg width="22px" height="22px" viewBox="0 0 22 22" version="1.1" xmlns="http://www.w3.org/2000/svg" xmlns:xlink="http://www.w3.org/1999/xlink">
    <title>CF47F9AF-3A07-4FCD-8479-98BE57220770</title>
    <g id="💻-Web-Pages" stroke="none" stroke-width="1" fill="none" fill-rule="evenodd">
        <g id="Contact" transform="translate(-880.000000, -194.000000)" fill="#FFFFFF" fill-rule="nonzero">
            <g id="menu-dropdown" transform="translate(845.000000, 60.000000)">
                <g id="courrier" transform="translate(28.000000, 125.000000)">
                    <g id="Group-2" transform="translate(0.000000, 2.000000)">
                        <g id="Icons/Menu/Mail" transform="translate(7.000000, 7.000000)">
                            <path d="M13.6521458,3.66666667 C15.7758333,3.66666667 16.9583333,4.89041667 16.9583333,6.98729167 L16.9583333,6.98729167 L16.9583333,14.0891667 C16.9583333,16.2204167 15.7758333,17.4166667 13.6521458,17.4166667 L13.6521458,17.4166667 L7.89020833,17.4166667 C5.80020833,17.4166667 4.58333333,16.2204167 4.58333333,14.0891667 L4.58333333,14.0891667 L4.58333333,6.98729167 C4.58333333,4.89041667 5.80020833,3.66666667 7.89020833,3.66666667 L7.89020833,3.66666667 Z M8.07583333,13.1129167 C7.86958333,13.0922917 7.67020833,13.1885417 7.56020833,13.3672917 C7.45020833,13.5391667 7.45020833,13.7660417 7.56020833,13.9447917 C7.67020833,14.1166667 7.86958333,14.2197917 8.07583333,14.1922917 L8.07583333,14.1922917 L13.4658333,14.1922917 C13.7401458,14.1647917 13.9470833,13.9303542 13.9470833,13.6560417 C13.9470833,13.3741667 13.7401458,13.1404167 13.4658333,13.1129167 L13.4658333,13.1129167 Z M13.4658333,9.97722917 L8.07583333,9.97722917 C7.77952083,9.97722917 7.53958333,10.2185417 7.53958333,10.5141667 C7.53958333,10.8097917 7.77952083,11.0504167 8.07583333,11.0504167 L8.07583333,11.0504167 L13.4658333,11.0504167 C13.7614583,11.0504167 14.0020833,10.8097917 14.0020833,10.5141667 C14.0020833,10.2185417 13.7614583,9.97722917 13.4658333,9.97722917 L13.4658333,9.97722917 Z M10.1307708,6.86354167 L8.07583333,6.86354167 C7.77952083,6.87041667 7.53958333,7.11104167 7.53958333,7.40666667 C7.53958333,7.70229167 7.77952083,7.94291667 8.07583333,7.94291667 L8.07583333,7.94291667 L10.1307708,7.94291667 C10.4270833,7.94291667 10.6677083,7.70229167 10.6677083,7.39910417 C10.6677083,7.10416667 10.4270833,6.86354167 10.1307708,6.86354167 L10.1307708,6.86354167 Z" id="Document"></path>
                        </g>
                    </g>
                </g>
            </g>
        </g>
    </g>
</svg>