<?xml version="1.0" encoding="UTF-8"?>
<svg width="24px" height="24px" viewBox="0 0 24 24" version="1.1" xmlns="http://www.w3.org/2000/svg" xmlns:xlink="http://www.w3.org/1999/xlink">
    <title>79D86ACE-645B-4ECE-85C7-F5023ED9F632</title>
    <g id="💻-Web-Pages" stroke="none" stroke-width="1" fill="none" fill-rule="evenodd">
        <g id="Je-participe---document-téléchargement" transform="translate(-1043.000000, -811.000000)" fill-rule="nonzero" stroke="#728393">
            <g id="Icons/duplicate" transform="translate(1043.000000, 811.000000)">
                <g id="Plus" transform="translate(2.000000, 2.000000)">
                    <path d="M5.64119601,1 C4.26073886,1 3.09854587,1.4736302 2.28687026,2.32156063 C1.45291075,3.19277031 1,4.43857236 1,5.8931693 L1,14.1068307 C1,15.5630996 1.451514,16.8093225 2.28523958,17.6802878 C3.09635716,18.5276352 4.25861547,19 5.64119601,19 L14.358804,19 C15.7413845,19 16.9036428,18.5276352 17.7147604,17.6802878 C18.548486,16.8093225 19,15.5630996 19,14.1068307 L19,5.8931693 C19,5.10137963 18.8740681,4.36965995 18.4259523,3.74036072 C18.0224774,3.17375169 17.3716704,2.70366455 16.4089986,2.30856285 C14.3397959,1.45931652 10.9786634,1 5.64119601,1 Z" stroke-width="2"></path>
                    <path d="M10,5.88586728 C10.3532054,5.88586728 10.6451079,6.14833601 10.6913055,6.48887141 L10.6976744,6.5835417 L10.6976744,13.3987564 C10.6976744,13.7840714 10.3853149,14.0964309 10,14.0964309 C9.64679464,14.0964309 9.35489213,13.8339621 9.30869453,13.4934267 L9.30232558,13.3987564 L9.30232558,6.5835417 C9.30232558,6.19822676 9.61468506,5.88586728 10,5.88586728 Z" id="Line_185" fill="#728393"></path>
                    <path d="M13.4108527,9.29347465 C13.7961677,9.29347465 14.1085271,9.60583413 14.1085271,9.99114907 C14.1085271,10.3443544 13.8460584,10.6362569 13.505523,10.6824545 L13.4108527,10.6888235 L6.58914729,10.6888235 C6.20383235,10.6888235 5.89147287,10.376464 5.89147287,9.99114907 C5.89147287,9.63794371 6.1539416,9.3460412 6.494477,9.2998436 L6.58914729,9.29347465 L13.4108527,9.29347465 Z" id="Line_186" fill="#728393"></path>
                </g>
            </g>
        </g>
    </g>
</svg>