<?xml version="1.0" encoding="UTF-8"?>
<svg width="17px" height="17px" viewBox="0 0 17 17" version="1.1" xmlns="http://www.w3.org/2000/svg" xmlns:xlink="http://www.w3.org/1999/xlink">
    <title>D30EC23A-CC10-46F3-BDD5-D6F1FDC280E1</title>
    <g id="💻-Web-Pages" stroke="none" stroke-width="1" fill="none" fill-rule="evenodd">
        <g id="Contact" transform="translate(-881.000000, -116.000000)" fill="#FFFFFF" fill-rule="nonzero">
            <g id="menu-dropdown" transform="translate(845.000000, 60.000000)">
                <g id="mail" transform="translate(28.000000, 45.000000)">
                    <g id="Group-2" transform="translate(0.000000, 2.000000)">
                        <g id="Icons/Menu/Mail" transform="translate(5.500000, 5.500000)">
                            <path d="M14.1107978,9.94415061 C14.2271084,9.79610531 14.2123361,9.58401714 14.0766249,9.4535256 C13.9409137,9.32303406 13.7284095,9.31658709 13.5850374,9.43861178 L7.01303272,15.0298712 L3.54250869,13.6876656 C3.2342069,13.5696799 3.0229514,13.2828289 3.00175075,12.9534034 C2.9805501,12.6239779 3.15329376,12.3124141 3.44392862,12.155883 L17.8517851,4.08495563 C18.0825086,3.96067097 18.3629232,3.97353115 18.5813023,4.11841223 C18.7996815,4.26329332 18.9205396,4.51665283 18.8957228,4.77754382 L17.6318757,17.9518856 C17.6062131,18.2258599 17.4527432,18.4716496 17.2178442,18.6149778 C16.9829452,18.758306 16.6941769,18.7823566 16.4388041,18.6798615 L12.2150272,17.0444434 L9.56347609,19.5291667 C9.36345312,19.7160419 9.0713787,19.7658926 8.82069429,19.6559433 C8.57000987,19.545994 8.40885119,19.2973569 8.41084757,19.0236279 L8.41084757,17.072248 L14.1107978,9.94415061 Z" id="Path"></path>
                        </g>
                    </g>
                </g>
            </g>
        </g>
    </g>
</svg>