<?xml version="1.0" encoding="UTF-8"?>
<svg width="16px" height="17px" viewBox="0 0 16 17" version="1.1" xmlns="http://www.w3.org/2000/svg" xmlns:xlink="http://www.w3.org/1999/xlink">
    <title>9F684160-26CB-4689-ABF1-FC135402CF2B</title>
    <g id="💻-Web-Pages" stroke="none" stroke-width="1" fill="none" fill-rule="evenodd">
        <g id="Je-participe---infos-documents" transform="translate(-574.000000, -387.000000)" fill="#728393" fill-rule="nonzero">
            <g id="Cards/Add_file" transform="translate(368.000000, 348.000000)">
                <g id="upload">
                    <g id="Group-2" transform="translate(206.000000, 30.000000)">
                        <path d="M14.9301699,10.0195787 C14.2183877,9.34126394 13.3599353,9 12.3720679,9 C11.3928283,9 10.5171205,9.35390335 9.77082772,10.0490706 L1.82906444,17.5063197 C1.82906444,17.5063197 1.82475061,17.5105328 1.82475061,17.5105328 C0.612564033,18.6944238 0,19.949938 0,21.2433705 C0,22.5578686 0.474521434,23.6869888 1.41925047,24.6054523 C2.38123483,25.532342 3.5502831,26 4.88757077,26 C5.89700728,26 6.80722567,25.7303594 7.59665678,25.1952912 C7.59665678,25.1952912 7.60097061,25.1910781 7.60097061,25.1910781 C7.77352386,25.0688971 8.3041251,24.5717472 8.72256673,24.1757125 C8.74844972,24.1504337 8.77001887,24.1251549 8.7872742,24.0956629 L14.1364249,18.7281289 C14.3046643,18.5596035 14.3003505,18.294176 14.1277972,18.1340768 C13.955244,17.9697646 13.6834726,17.9739777 13.519547,18.1425031 L8.10568886,23.5690211 C8.08411971,23.5900867 8.06686438,23.6111524 8.05392289,23.6322181 C7.2817471,24.3653036 7.11350768,24.4916976 7.09625236,24.5043371 C6.45780534,24.93829 5.71151254,25.157373 4.88325694,25.157373 C3.76597466,25.157373 2.82987328,24.7781908 2.02318684,24.0071871 C1.25101105,23.2530359 0.858452413,22.3219331 0.858452413,21.2433705 C0.858452413,20.1816605 1.38905365,19.1283767 2.42868698,18.108798 L10.3704503,10.6557621 C10.9571313,10.1080545 11.6128336,9.84262701 12.3720679,9.84262701 C13.1356161,9.84262701 13.7740631,10.0996283 14.3262335,10.622057 C14.8697762,11.152912 15.1372338,11.776456 15.1372338,12.5221809 C15.1242923,13.2299876 14.8827177,13.8198265 14.4081963,14.3254027 L6.00053923,22.692689 C5.64249124,23.0297398 5.21973578,23.2024783 4.70638986,23.2151177 C4.18873012,23.2024783 3.77460232,23.0297398 3.42949582,22.692689 C3.07144783,22.3429988 2.89458075,21.9301115 2.89458075,21.4287485 C2.89458075,21.0116481 3.01105419,20.666171 3.25262874,20.3754647 C3.26557023,20.3586121 3.27851173,20.3459727 3.28713939,20.3291202 C3.31302238,20.2827757 3.33890537,20.2532838 3.36910218,20.2237918 L9.6586681,14.0389095 C9.82690752,13.8745973 9.82690752,13.6091698 9.6586681,13.4448575 C9.49042869,13.2805452 9.21865732,13.2805452 9.0504179,13.4448575 L2.76085198,19.6297398 C2.68751685,19.7013631 2.62712321,19.7771995 2.56672958,19.8698885 C2.21299542,20.3080545 2.03612834,20.8304833 2.03612834,21.4287485 C2.03612834,22.1534077 2.29927204,22.7769517 2.82124562,23.286741 C3.32596387,23.7796778 3.95578323,24.0366791 4.6977622,24.0535316 C4.70638986,24.0535316 4.71070369,24.0535316 4.71933136,24.0535316 C5.45268266,24.0366791 6.08681585,23.7796778 6.6044756,23.2909542 C6.60878943,23.286741 6.60878943,23.286741 6.61310326,23.2825279 L15.0250741,14.9068154 C15.029388,14.9026022 15.029388,14.9026022 15.0337018,14.8983891 C15.6592073,14.24114 15.9827447,13.4448575 16,12.5306072 C16,12.5263941 16,12.5263941 16,12.5221809 C16,11.557373 15.641952,10.714746 14.9301699,10.0195787 C14.9344837,10.0237918 14.9344837,10.0195787 14.9301699,10.0195787 Z" id="Path"></path>
                    </g>
                </g>
            </g>
        </g>
    </g>
</svg>