<?xml version="1.0" encoding="UTF-8"?>
<svg width="15px" height="14px" viewBox="0 0 15 14" version="1.1" xmlns="http://www.w3.org/2000/svg" xmlns:xlink="http://www.w3.org/1999/xlink">
    <title>12AAB8ED-2B18-464B-B9C3-74437AEA5507</title>
    <g id="💻-Web-Pages" stroke="none" stroke-width="1" fill="none" fill-rule="evenodd" stroke-linejoin="round">
        <g id="Je-participe---infos-perso" transform="translate(-277.000000, -1496.000000)" fill="#FFFFFF" fill-rule="nonzero" stroke="#FFFFFF" stroke-width="0.5">
            <g id="Blocks/footer" transform="translate(0.000000, 1289.000000)">
                <g id="Icons/Footer/Facebook-Copy-3" transform="translate(269.000000, 199.000000)">
                    <g id="Group" transform="translate(9.333333, 9.333333)">
                        <path d="M10.7578125,1.9921875 L10.7578125,0 L9.9609375,0 L9.9609375,1.9921875 L7.96875,1.9921875 L7.96875,2.7890625 L9.9609375,2.7890625 L9.9609375,4.78125 L10.7578125,4.78125 L10.7578125,2.7890625 L12.75,2.7890625 L12.75,1.9921875 L10.7578125,1.9921875 Z M7.05234375,0 C7.05234375,0 4.5421875,0 3.70546875,0 C2.19140625,0 0.796875,1.23515625 0.796875,2.55 C0.796875,3.9046875 1.8328125,5.0203125 3.346875,5.0203125 C3.46640625,5.0203125 3.54609375,5.0203125 3.665625,5.0203125 C3.5859375,5.21953125 3.50625,5.41875 3.50625,5.6578125 C3.50625,6.01640625 3.70546875,6.33515625 3.94453125,6.57421875 C3.7453125,6.57421875 3.54609375,6.57421875 3.346875,6.57421875 C1.47421875,6.57421875 0,7.76953125 0,9.0046875 C0,10.2 1.63359375,11.1164063 3.50625,11.1164063 C5.61796875,11.1164063 6.7734375,9.76171875 6.7734375,8.5265625 C6.7734375,7.5703125 6.49453125,6.97265625 5.61796875,6.33515625 C5.29921875,6.1359375 4.74140625,5.578125 4.74140625,5.29921875 C4.74140625,4.940625 4.8609375,4.74140625 5.37890625,4.34296875 C5.93671875,3.94453125 6.375,3.38671875 6.375,2.66953125 C6.375,1.8328125 5.9765625,1.1953125 5.259375,0.796875 L6.33515625,0.796875 L7.05234375,0 Z M5.896875,8.3671875 C5.93671875,8.48671875 5.93671875,8.60625 5.93671875,8.72578125 C5.93671875,9.721875 5.29921875,10.359375 3.50625,10.359375 C2.23125,10.359375 1.275,9.6421875 1.275,8.64609375 C1.275,7.68984375 2.43046875,6.89296875 3.70546875,6.89296875 C4.02421875,6.89296875 4.303125,6.9328125 4.5421875,7.0125 C5.259375,7.53046875 5.7375,7.809375 5.896875,8.3671875 Z M3.825,4.7015625 C2.9484375,4.7015625 2.1515625,3.7453125 1.9921875,2.58984375 C1.8328125,1.434375 2.43046875,0.59765625 3.30703125,0.59765625 C4.18359375,0.6375 5.0203125,1.55390625 5.1796875,2.66953125 C5.29921875,3.825 4.7015625,4.74140625 3.825,4.7015625 Z" id="Shape"></path>
                    </g>
                </g>
            </g>
        </g>
    </g>
</svg>