<?xml version="1.0" encoding="UTF-8"?>
<svg width="18px" height="20px" viewBox="0 0 18 20" version="1.1" xmlns="http://www.w3.org/2000/svg" xmlns:xlink="http://www.w3.org/1999/xlink">
    <title>01E88E48-476A-4EFF-A0E0-050FA83D16F2</title>
    <defs>
        <path d="M6.28557964,18.2852718 L6.28557964,15.3884784 C6.28557964,14.6490106 6.88942556,14.0495535 7.63430726,14.0495535 L10.3572102,14.0495535 C10.714915,14.0495535 11.0579691,14.1906184 11.3109046,14.4417155 C11.5638401,14.6928126 11.7059378,15.0333734 11.7059378,15.3884784 L11.7059378,18.2852718 C11.7036773,18.5926991 11.825115,18.8883063 12.0432986,19.1064851 C12.2614823,19.3246639 12.5583626,19.4473684 12.868049,19.4473684 L14.7257304,19.4473684 C15.5933398,19.4495946 16.4261863,19.1090103 17.040476,18.5007652 C17.6547658,17.8925201 18,17.0666131 18,16.2053067 L18,7.95281396 C18,7.25706781 17.6893289,6.59711377 17.1517436,6.150739 L10.8322337,1.14029696 C9.73294147,0.261795297 8.15789631,0.290159878 7.09142319,1.20766425 L0.916116871,6.150739 C0.353122749,6.58395504 0.0166284875,7.24586609 0,7.95281396 L0,16.1968858 C0,17.9920717 1.46594041,19.4473684 3.27426956,19.4473684 L5.08953817,19.4473684 C5.73274105,19.4473684 6.25547106,18.9322039 6.26013195,18.2936927 L6.28557964,18.2852718 Z" id="path-1"></path>
    </defs>
    <g id="💻-Web-Pages" stroke="none" stroke-width="1" fill="none" fill-rule="evenodd">
        <g id="Accueil" transform="translate(-745.000000, -23.000000)">
            <g id="Bars/Menu">
                <g transform="translate(9.000000, 0.000000)" id="Icons/Menu/Home">
                    <g transform="translate(736.000000, 23.000000)">
                        <mask id="mask-2" fill="white">
                            <use xlink:href="#path-1"></use>
                        </mask>
                        <use id="Home" fill="#200E32" fill-rule="nonzero" xlink:href="#path-1"></use>
                        <g id="Colors/Purple" mask="url(#mask-2)" fill="#FF7C00">
                            <g transform="translate(-101.000000, -83.000000)" id="Rectangle">
                                <rect x="0" y="0" width="246" height="212"></rect>
                            </g>
                        </g>
                    </g>
                </g>
            </g>
        </g>
    </g>
</svg>