<?xml version="1.0" encoding="UTF-8"?>
<svg width="20px" height="18px" viewBox="0 0 20 18" version="1.1" xmlns="http://www.w3.org/2000/svg" xmlns:xlink="http://www.w3.org/1999/xlink">
    <title>36C57F3C-000A-42C0-961A-DB374E15CC60</title>
    <g id="💻-Web-Pages" stroke="none" stroke-width="1" fill="none" fill-rule="evenodd">
        <g id="Je-participe---infos-perso" transform="translate(-625.000000, -942.000000)" fill-rule="nonzero">
            <g id="iban" transform="translate(366.000000, 941.000000)">
                <g id="icon" transform="translate(260.000000, 2.000000)">
                    <path d="M11.1681532,-6.69940294e-14 L6.51837738,-6.69940294e-14 C2.91837696,-6.69940294e-14 2.19253187e-13,2.62653926 2.19253187e-13,5.86653964 L2.19253187e-13,10.0513379 C2.19253187e-13,13.2913383 2.91837696,15.9178776 6.51837738,15.9178776 L11.1681532,15.9178776 C14.7681537,15.9178776 17.6865306,13.2913383 17.6865306,10.0513379 L17.6865306,5.86653964 C17.6865306,2.62653926 14.7681537,-6.69940294e-14 11.1681532,-6.69940294e-14 Z" id="Shape" stroke="#FF7C00"></path>
                    <path d="M10.002088,12.1958841 L7.68444266,12.1958841 C7.28444262,12.1958841 6.96017851,11.9040464 6.96017851,11.5440463 C6.96017851,11.1840463 7.28444262,10.8922086 7.68444266,10.8922086 L8.11900115,10.8922086 L8.11900115,7.30710104 L7.75686908,7.30710104 C7.35686903,7.30710104 7.03260492,7.01526334 7.03260492,6.6552633 C7.03260492,6.29526326 7.35686903,6.00342556 7.75686908,6.00342556 L8.84326531,6.00342556 C9.24326535,6.00342556 9.56752946,6.29526326 9.56752946,6.6552633 L9.56752946,10.8922086 L10.002088,10.8922086 C10.402088,10.8922086 10.7263521,11.1840463 10.7263521,11.5440463 C10.7263521,11.9040464 10.402088,12.1958841 10.002088,12.1958841 Z" id="Path" fill="#FF7C00"></path>
                    <path d="M7.95604172,4.21413097 C7.97827311,4.10922476 8.02384973,4.0094489 8.09003059,3.92080399 C8.12342757,3.87669467 8.16098689,3.83525825 8.20229153,3.79695482 C8.56292969,3.49312018 9.12360092,3.49312018 9.48423908,3.79695482 C9.65226857,3.9510441 9.74707741,4.15793517 9.7485955,4.37383122 C9.75393404,4.42695622 9.75393404,4.48040646 9.7485955,4.53353146 C9.72636411,4.63843768 9.68078749,4.73821353 9.61460663,4.82685845 C9.58028773,4.87034211 9.54278417,4.91171702 9.50234569,4.95070762 C9.2454013,5.19645207 8.84673465,5.27422574 8.49979134,5.1462904 C8.15284803,5.01835505 7.92942539,4.71118596 7.93793512,4.37383122 C7.93859185,4.32021452 7.94465223,4.26676201 7.95604172,4.21413097 Z" id="Path" fill="#FF7C00"></path>
                </g>
            </g>
        </g>
    </g>
</svg>