<?xml version="1.0" encoding="UTF-8"?>
<svg width="13px" height="13px" viewBox="0 0 13 13" version="1.1" xmlns="http://www.w3.org/2000/svg" xmlns:xlink="http://www.w3.org/1999/xlink">
    <title>4EB79A34-C54C-48F8-8DCD-7D60AB42F965</title>
    <g id="💻-Web-Pages" stroke="none" stroke-width="1" fill="none" fill-rule="evenodd">
        <g id="Je-participe---infos-perso" transform="translate(-244.000000, -1497.000000)" fill="#FFFFFF" fill-rule="nonzero">
            <g id="Blocks/footer" transform="translate(0.000000, 1289.000000)">
                <g id="Icons/Footer/Facebook-Copy-2" transform="translate(235.000000, 199.000000)">
                    <g id="Group" transform="translate(9.333333, 9.333333)">
                        <path d="M0.146236559,11.3333333 L2.6688172,11.3333333 L2.6688172,3.77777778 L0.146236559,3.77777778 L0.146236559,11.3333333 Z M8.59139785,3.55111111 C7.5311828,3.55111111 6.94623656,3.92888889 6.28817204,4.79777778 L6.28817204,3.77777778 L3.7655914,3.77777778 L3.7655914,11.3333333 L6.28817204,11.3333333 L6.28817204,7.21555556 C6.28817204,6.34666667 6.69032258,5.51555556 7.64086022,5.51555556 C8.59139785,5.51555556 8.81075269,6.34666667 8.81075269,7.21555556 L8.81075269,11.3333333 L11.3333333,11.3333333 L11.3333333,7.02666667 C11.3333333,4.04222222 9.61505376,3.55111111 8.59139785,3.55111111 Z M1.42580645,0 C0.621505376,0 0,0.604444444 0,1.32222222 C0,2.07777778 0.621505376,2.64444444 1.42580645,2.64444444 C2.19354839,2.64444444 2.81505376,2.07777778 2.81505376,1.32222222 C2.81505376,0.604444444 2.19354839,0 1.42580645,0 Z" id="Shape"></path>
                    </g>
                </g>
            </g>
        </g>
    </g>
</svg>