<?xml version="1.0" encoding="UTF-8"?>
<svg width="18px" height="20px" viewBox="0 0 18 20" version="1.1" xmlns="http://www.w3.org/2000/svg" xmlns:xlink="http://www.w3.org/1999/xlink">
    <title>96FF7BB4-D0FE-478A-8268-14C8589A39A8</title>
    <defs>
        <path d="M2.98663896,17.9154449 C3.16219452,18.9742644 4.0783751,19.7500005 5.15036124,19.7500005 L12.4051948,19.7500005 C13.4771809,19.7500005 14.3933615,18.9742644 14.568917,17.9154449 L15.3611115,6.5833335 L2.1944445,6.5833335 L2.98663896,17.9154449 Z M9.87500025,10.4236114 C9.87500025,10.120778 10.120778,9.87500025 10.4236114,9.87500025 L11.5208336,9.87500025 C11.823667,9.87500025 12.0694448,10.120778 12.0694448,10.4236114 L12.0694448,15.9097226 C12.0694448,16.2114587 11.823667,16.4583338 11.5208336,16.4583338 L10.4236114,16.4583338 C10.120778,16.4583338 9.87500025,16.2114587 9.87500025,15.9097226 L9.87500025,10.4236114 Z M5.48611125,10.4236114 C5.48611125,10.120778 5.73188903,9.87500025 6.03472238,9.87500025 L7.13194463,9.87500025 C7.43477797,9.87500025 7.68055575,10.120778 7.68055575,10.4236114 L7.68055575,15.9097226 C7.68055575,16.2114587 7.43477797,16.4583338 7.13194463,16.4583338 L6.03472238,16.4583338 C5.73188903,16.4583338 5.48611125,16.2114587 5.48611125,15.9097226 L5.48611125,10.4236114 Z M16.4583337,2.1944445 L12.0694447,2.1944445 C12.0694447,0.982013914 11.0874308,0 9.87500025,0 L7.68055575,0 C6.46812516,0 5.48611125,0.982013914 5.48611125,2.1944445 L1.09722225,2.1944445 C0.491555568,2.1944445 0,2.68490285 0,3.29166675 C0,3.89843065 0.491555568,4.388889 1.09722225,4.388889 L16.4583337,4.388889 C17.0640004,4.388889 17.555556,3.89843065 17.555556,3.29166675 C17.555556,2.68490285 17.0640004,2.1944445 16.4583337,2.1944445 L16.4583337,2.1944445 Z" id="path-1"></path>
    </defs>
    <g id="💻-Web-Pages" stroke="none" stroke-width="1" fill="none" fill-rule="evenodd">
        <g id="Je-participe---document-téléchargement" transform="translate(-1022.000000, -813.000000)">
            <g id="Icons/remove" transform="translate(1022.000000, 813.000000)">
                <mask id="mask-2" fill="white">
                    <use xlink:href="#path-1"></use>
                </mask>
                <use id="Shape" fill="#728393" fill-rule="nonzero" xlink:href="#path-1"></use>
                <g id="Colors/DarkGray" mask="url(#mask-2)" fill="#71828A">
                    <g transform="translate(-114.000000, -102.000000)" id="Rectangle">
                        <rect x="0" y="0" width="246" height="212"></rect>
                    </g>
                </g>
            </g>
        </g>
    </g>
</svg>