<?xml version="1.0" encoding="UTF-8"?>
<svg width="15px" height="15px" viewBox="0 0 15 15" version="1.1" xmlns="http://www.w3.org/2000/svg" xmlns:xlink="http://www.w3.org/1999/xlink">
    <title>19D57C73-C2AC-438B-BAB6-9B411FACECA6</title>
    <defs>
        <path d="M14.6157872,13.0973882 L13.9668944,13.746281 L13.9327422,13.7804333 C12.8057179,14.9074575 11.8494549,15.1806755 10.3467558,14.7366963 C8.77575226,14.2585648 7.37550998,13.4047585 6.11187669,12.380191 C4.30180739,10.9116442 2.35512909,8.99911812 1.0914958,7.01828757 C-0.172137484,4.96915251 -0.581964495,2.8175607 1.19395255,1.04164365 C1.19395255,1.04164365 1.22810481,1.0074914 1.22810481,1.0074914 L1.87699757,0.358598635 C2.35512909,-0.119532878 3.14063086,-0.119532878 3.65291462,0.358598635 L5.66789743,2.37358144 C6.14602894,2.85171295 6.14602894,3.63721473 5.66789743,4.14949849 L4.47256865,5.34482727 L4.5067209,5.37897952 C5.83865868,7.39396233 7.58042348,9.13572713 9.59540629,10.4676649 L9.62955854,10.5018172 L10.8248873,9.30648838 C11.3030188,8.82835687 12.0885206,8.82835687 12.6008044,9.30648838 L14.6157872,11.3214712 C15.1280709,11.833755 15.1280709,12.6192567 14.6157872,13.0973882 Z" id="path-1"></path>
    </defs>
    <g id="💻-Web-Pages" stroke="none" stroke-width="1" fill="none" fill-rule="evenodd">
        <g id="Contact" transform="translate(-885.000000, -301.000000)">
            <g id="menu-dropdown" transform="translate(845.000000, 60.000000)">
                <g id="tel" transform="translate(29.000000, 231.000000)">
                    <g id="Group-2">
                        <g id="Icons/Menu/Mail" transform="translate(11.000000, 10.000000)">
                            <mask id="mask-2" fill="white">
                                <use xlink:href="#path-1"></use>
                            </mask>
                            <use id="Path" fill="#24285B" fill-rule="nonzero" xlink:href="#path-1"></use>
                            <g id="Colors/DarkGray" mask="url(#mask-2)" fill="#FFFFFF">
                                <g transform="translate(-117.000000, -100.000000)" id="Rectangle">
                                    <rect x="0" y="0" width="246" height="212"></rect>
                                </g>
                            </g>
                        </g>
                    </g>
                </g>
            </g>
        </g>
    </g>
</svg>