<?xml version="1.0" encoding="UTF-8"?>
<svg width="12px" height="10px" viewBox="0 0 12 10" version="1.1" xmlns="http://www.w3.org/2000/svg" xmlns:xlink="http://www.w3.org/1999/xlink">
    <title>D7D25FC4-2880-4C28-9120-4901FC846A26</title>
    <g id="💻-Web-Pages" stroke="none" stroke-width="1" fill="none" fill-rule="evenodd">
        <g id="Je-participe---infos-perso" transform="translate(-210.000000, -1498.000000)" fill="#FFFFFF" fill-rule="nonzero">
            <g id="Blocks/footer" transform="translate(0.000000, 1289.000000)">
                <g id="Icons/Footer/Facebook-Copy" transform="translate(201.000000, 199.000000)">
                    <path d="M20.6666667,11.49375 C20.4895833,11.6 19.8875,11.8125 19.35625,11.8479167 C19.7104167,11.6708333 20.20625,11.06875 20.3479167,10.5729167 C20.0291667,10.8208333 19.25,11.1041667 18.8958333,11.1041667 C18.8958333,11.1041667 18.8958333,11.1041667 18.8958333,11.1041667 C18.4708333,10.64375 17.86875,10.3958333 17.1958333,10.3958333 C15.9208333,10.3958333 14.8583333,11.4583333 14.8583333,12.7333333 C14.8583333,12.9104167 14.89375,13.0875 14.9291667,13.2645833 L14.9291667,13.2645833 C13.19375,13.2291667 11.2458333,12.34375 10.1125,10.8208333 C9.40416667,12.0604167 10.00625,13.40625 10.8208333,13.9020833 C10.5375,13.9375 10.0416667,13.8666667 9.79375,13.6541667 C9.79375,14.46875 10.1833333,15.53125 11.6,15.95625 C11.3166667,16.0979167 10.8208333,16.0625 10.64375,16.0270833 C10.7145833,16.7 11.6708333,17.6208333 12.7333333,17.6208333 C12.34375,18.0458333 10.9625,18.825 9.36875,18.5770833 C10.43125,19.2145833 11.70625,19.6041667 13.0166667,19.6041667 C16.80625,19.6041667 19.7104167,16.5583333 19.56875,12.76875 C19.56875,12.76875 19.56875,12.76875 19.56875,12.76875 C19.56875,12.76875 19.56875,12.7333333 19.56875,12.7333333 C19.56875,12.7333333 19.56875,12.6979167 19.56875,12.6979167 C19.8875,12.4854167 20.3479167,12.0604167 20.6666667,11.49375 Z" id="Path"></path>
                </g>
            </g>
        </g>
    </g>
</svg>