<?xml version="1.0" encoding="UTF-8"?>
<svg width="20px" height="20px" viewBox="0 0 20 20" version="1.1" xmlns="http://www.w3.org/2000/svg" xmlns:xlink="http://www.w3.org/1999/xlink">
    <title>CE3C5422-C086-4889-B5C3-9B5A6596249E</title>
    <g id="💻-Web-Pages" stroke="none" stroke-width="1" fill="none" fill-rule="evenodd">
        <g id="Mon-espace---suivi" transform="translate(-589.000000, -399.000000)">
            <g id="motif-1" transform="translate(589.000000, 398.000000)">
                <g id="Icons/warning" transform="translate(0.000000, 1.000000)">
                    <g id="Group">
                        <path d="M10.025,0.75 C6.32412952,0.75 3.94914584,1.13613298 2.54277908,2.54600689 C1.13635333,3.95593994 0.75,6.337064 0.75,10.05 C0.75,13.7047831 1.12172326,16.0646374 2.52612723,17.4655215 C3.91974074,18.8556423 6.27855389,19.25 9.975,19.25 C13.6135911,19.25 15.9911005,18.8555018 17.4164282,17.4515007 C18.8259023,16.063116 19.25,13.7330812 19.25,10.125 C19.25,6.40483021 18.8391134,4.00851504 17.4335655,2.58183106 C16.0238863,1.15095375 13.6613475,0.75 10.025,0.75 Z" id="Path" stroke="#FB4064" stroke-width="1.5" fill-rule="nonzero"></path>
                        <circle id="Oval" fill="#FB4064" cx="10" cy="14" r="1"></circle>
                        <path d="M10,5 C10.5128358,5 10.9355072,5.38604019 10.9932723,5.88337887 L11,6 L11,10.3196335 C11,10.8719183 10.5522847,11.3196335 10,11.3196335 C9.48716416,11.3196335 9.06449284,10.9335933 9.00672773,10.4362547 L9,10.3196335 L9,6 C9,5.44771525 9.44771525,5 10,5 Z" id="Path-5" fill="#FB4064" fill-rule="nonzero"></path>
                    </g>
                </g>
            </g>
        </g>
    </g>
</svg>